<?xml version="1.0" encoding="UTF-8" standalone="no"?> <svg xmlns="http://www.w3.org/2000/svg" viewBox="0 0 64 64"><g id="Layer_27" data-name="Layer 27"><rect x="16" y="17" width="32" height="40" rx="2" style="fill:#2488ff"/><path d="M18,57H46a2,2,0,0,0,2-2V27A30,30,0,0,1,18,57Z" style="fill:#006df0"/><path d="M42,57h4a2,2,0,0,0,2-2V51A6,6,0,0,0,42,57Z" style="fill:#ffcd00"/><path d="M48,23V19a2,2,0,0,0-2-2H42A6,6,0,0,0,48,23Z" style="fill:#ffcd00"/><path d="M22,17H18a2,2,0,0,0-2,2v4A6,6,0,0,0,22,17Z" style="fill:#ffcd00"/><path d="M16,51v4a2,2,0,0,0,2,2h4A6,6,0,0,0,16,51Z" style="fill:#ffcd00"/><polygon points="42 6 42 3 22 3 22 6 24 6 40 6 42 6" style="fill:#ffcd00"/><path d="M20,57v2a2,2,0,0,0,4,0V57H20Z" style="fill:#58595b"/><path d="M40,57v2a2,2,0,0,0,4,0V57H40Z" style="fill:#58595b"/><path d="M32,26a2,2,0,0,0-2,2V46a2,2,0,0,0,4,0V28A2,2,0,0,0,32,26Z" style="fill:#f1f2f2"/><path d="M41,48a2,2,0,0,0,2-2V28a2,2,0,0,0-4,0V46A2,2,0,0,0,41,48Z" style="fill:#f1f2f2"/><path d="M23,26a2,2,0,0,0-2,2V46a2,2,0,0,0,4,0V28A2,2,0,0,0,23,26Z" style="fill:#f1f2f2"/><path d="M46,16H41V7h1a1,1,0,0,0,1-1V3a1,1,0,0,0-1-1H22a1,1,0,0,0-1,1V6a1,1,0,0,0,1,1h1v9H18a3.009,3.009,0,0,0-3,3V55a3.009,3.009,0,0,0,3,3h1v1a3,3,0,0,0,6,0V58H39v1a3,3,0,0,0,6,0V58h1a3.009,3.009,0,0,0,3-3V19A3.009,3.009,0,0,0,46,16ZM23,4H41V5H23Zm13,9H28a2.006,2.006,0,0,0-2,2v1H25V7H39v9H38V15A2.006,2.006,0,0,0,36,13Zm0,2v1H28V15ZM17,19a1,1,0,0,1,1-1h2.9A5.01,5.01,0,0,1,17,21.9Zm1,37a1,1,0,0,1-1-1V52.1A5.01,5.01,0,0,1,20.9,56Zm5,3a1,1,0,0,1-2,0V58h2Zm20,0a1,1,0,0,1-2,0V58h2Zm4-4a1,1,0,0,1-1,1H43.1A5.01,5.01,0,0,1,47,52.1Zm0-4.92A7,7,0,0,0,41.08,56H22.92A7,7,0,0,0,17,50.08V23.92A7,7,0,0,0,22.92,18H41.08A7,7,0,0,0,47,23.92ZM47,21.9A5.01,5.01,0,0,1,43.1,18H46a1,1,0,0,1,1,1Z" style="fill:#231f20"/><path d="M32,25a3,3,0,0,0-3,3V46a3,3,0,0,0,6,0V28A3,3,0,0,0,32,25Zm1,21a1,1,0,0,1-2,0V28a1,1,0,0,1,2,0Z" style="fill:#231f20"/><path d="M41,25a3,3,0,0,0-3,3V46a3,3,0,0,0,6,0V28A3,3,0,0,0,41,25Zm1,21a1,1,0,0,1-2,0V28a1,1,0,0,1,2,0Z" style="fill:#231f20"/><path d="M23,25a3,3,0,0,0-3,3V46a3,3,0,0,0,6,0V28A3,3,0,0,0,23,25Zm1,21a1,1,0,0,1-2,0V28a1,1,0,0,1,2,0Z" style="fill:#231f20"/></g></svg>