<?xml version="1.0" encoding="UTF-8" standalone="no"?> <svg id="Layer_1" data-name="Layer 1" xmlns="http://www.w3.org/2000/svg" viewBox="0 0 512 512"><defs><style>.cls-1{fill:#27ae60;}.cls-2{fill:#1d934d;}.cls-3{fill:#2ecc71;}.cls-4{fill:#f1c40f;}.cls-5{fill:#f39c12;}</style></defs><title>Prayer Mat</title><path class="cls-1" d="M458.666,117.333H416A10.667,10.667,0,0,1,416,96h42.667a10.667,10.667,0,1,1,0,21.333Z"/><path class="cls-1" d="M458.666,192H416a10.667,10.667,0,0,1,0-21.333h42.667a10.667,10.667,0,1,1,0,21.333Z"/><path class="cls-1" d="M458.666,256H416a10.667,10.667,0,0,1,0-21.333h42.667a10.667,10.667,0,1,1,0,21.333Z"/><path class="cls-1" d="M458.666,330.667H416a10.667,10.667,0,0,1,0-21.333h42.667a10.667,10.667,0,0,1,0,21.333Z"/><path class="cls-1" d="M458.666,394.667H416a10.667,10.667,0,0,1,0-21.333h42.667a10.667,10.667,0,0,1,0,21.333Z"/><path class="cls-1" d="M458.666,469.333H416A10.667,10.667,0,0,1,416,448h42.667a10.667,10.667,0,1,1,0,21.333Z"/><polygon class="cls-1" points="96 469.333 426.667 469.333 426.667 96 151.645 96 96 96 96 469.333"/><polygon class="cls-2" points="95.972 469.333 192 469.333 192 96 112.132 96 95.972 96 95.972 469.333"/><path class="cls-3" d="M133.889,416H362.667a10.667,10.667,0,0,0,10.667-10.667V160a10.667,10.667,0,0,0-10.667-10.667H135.04Z"/><polygon class="cls-1" points="133.889 416 192 416 192 149.333 134.169 149.333 133.889 416"/><path class="cls-4" d="M301.476,314.667a32,32,0,1,1,32-32,10.667,10.667,0,0,1-21.333,0,10.667,10.667,0,1,0-10.667,10.667,10.667,10.667,0,1,1,0,21.333Z"/><circle class="cls-4" cx="186.667" cy="282.667" r="82.809"/><path class="cls-5" d="M192,200.047c-1.765-.112-3.54-.189-5.333-.189a82.809,82.809,0,1,0,0,165.618c1.793,0,3.568-.077,5.333-.189Z"/><rect class="cls-4" x="42.667" y="42.667" width="106.611" height="426.667" rx="53.306" ry="53.306"/><path class="cls-5" d="M85.333,43.731A53.322,53.322,0,0,0,42.667,95.972V416.028a53.322,53.322,0,0,0,42.667,52.241Z"/><circle class="cls-5" cx="96.008" cy="416" r="53.333"/><circle class="cls-4" cx="96.008" cy="416" r="21.333"/></svg>