<?xml version="1.0" encoding="UTF-8"?>
<!DOCTYPE svg PUBLIC "-//W3C//DTD SVG 1.1//EN" "http://www.w3.org/Graphics/SVG/1.1/DTD/svg11.dtd">
<!-- Creator: CorelDRAW -->
<svg xmlns="http://www.w3.org/2000/svg" xml:space="preserve" width="1.70666in" height="1.70666in" version="1.1" style="shape-rendering:geometricPrecision; text-rendering:geometricPrecision; image-rendering:optimizeQuality; fill-rule:evenodd; clip-rule:evenodd"
viewBox="0 0 1706.66 1706.66"
 xmlns:xlink="http://www.w3.org/1999/xlink"
 xmlns:xodm="http://www.corel.com/coreldraw/odm/2003">
 <defs>
  <style type="text/css">
   <![CDATA[
    .fil0 {fill:black}
    .fil1 {fill:#294D71}
    .fil4 {fill:#D6E3FF}
    .fil2 {fill:#E13641}
    .fil3 {fill:#FA3C48}
   ]]>
  </style>
 </defs>
 <g id="Layer_x0020_1">
  <metadata id="CorelCorpID_0Corel-Layer"/>
  <path class="fil0" d="M643.05 1246.88c-273.5,0.02 -593.73,-38.49 -642.76,-338.79 -2.34,-14.37 11.05,-26.39 25.08,-22.5 300.27,83.31 658.23,142.43 929.09,86.06l708.56 -0.43c7.16,0 13.85,3.96 17.43,10.14 0.61,1.07 53.44,121.52 7.26,201.49 -24.48,42.41 -70.3,63.92 -136.16,63.92l-908.5 0.11zm-596.89 -314.17c63.21,252.47 359.33,275.24 625.11,274.04l880.27 0c133.52,0 128.92,-109.94 98.08,-195.52l-689.07 0c-73.27,15.01 -155.93,22.64 -245.66,22.64 -190.89,0 -421.48,-34.94 -668.73,-101.17z"/>
  <path class="fil0" d="M1663 1011.24c-10.83,0 -19.74,-8.67 -19.98,-19.56l-8.51 -383.69c-3.01,-130 -58.77,-98.52 -190.6,-21.54 -131.59,76.84 -311.77,182.09 -429.47,10.07 -7.51,-10.98 -10.23,-73.04 -59.66,-91.55 -89.29,-33.41 -268.73,100.97 -399.73,199.08 -137,102.6 -139.22,109.37 -336.22,139.62 -83.35,12.8 -177.81,27.31 -178.77,61.76 -0.73,26.42 -40.71,25.15 -39.98,-1.11 3.28,-118.94 314.8,-79.13 432.61,-160.34 154.48,-106.49 399.75,-327.5 536.11,-276.46 40.47,15.16 67.64,52 80.82,109.54 96.69,136.9 244.04,50.84 374.11,-25.14 119.3,-69.67 246.31,-138.68 250.78,55.15l8.52 383.73c0.25,11.21 -8.74,20.44 -20.02,20.44z"/>
  <path class="fil0" d="M891.46 626.83c-6.9,0 -13.63,-3.58 -17.33,-10.02l-60.43 -104.66c-13.16,-22.8 21.47,-42.8 34.63,-20l60.43 104.66c7.77,13.46 -2.17,30.02 -17.3,30.02z"/>
  <path class="fil0" d="M782.19 684.81c-6.92,0 -13.64,-3.59 -17.35,-10l-60 -103.93c-13.16,-22.83 21.5,-42.77 34.64,-20l60 103.93c7.75,13.43 -2.1,30 -17.28,30z"/>
  <path class="fil0" d="M696.81 743.83c-6.92,0 -13.64,-3.59 -17.35,-10l-60.43 -104.67c-13.16,-22.81 21.47,-42.8 34.64,-20l60.43 104.66c7.76,13.45 -2.13,30 -17.28,30z"/>
  <path class="fil0" d="M1657.27 753.12c-13.93,0 -104.95,-51.48 -132.6,-46.15 -128.97,52.65 -237.13,42.69 -304.87,-28.15 -21.2,-22.02 7.47,-49.91 28.91,-27.64 97.17,100.92 253.48,17.14 270.17,16.03 47.89,-3.17 100.44,29.35 145.76,47.31 20.46,8.11 14.47,38.59 -7.37,38.59z"/>
  <path class="fil0" d="M531.24 1024.39c-11.69,0 -20.93,-10.06 -19.94,-21.7 7.33,-86.51 -24.39,-175.83 -80.8,-227.52 -19.39,-17.78 7.59,-47.29 27.02,-29.48 65.22,59.76 101.98,161.95 93.65,260.36 -0.9,10.46 -9.65,18.34 -19.93,18.34z"/>
  <path class="fil0" d="M1442.92 1011.24c-11.04,0 -20,-8.97 -20,-20 0,-125.94 104.54,-278.05 234.37,-278.05 26.33,0 26.32,40 0,40 -102.84,0 -194.35,133.11 -194.35,238.05 0,11.04 -8.97,20 -20.01,20z"/>
  <path class="fil0" d="M1529.67 1160.35l-174.79 0c-72.87,0 -72.89,-110.76 0,-110.76l174.79 0c72.9,0 72.91,110.76 0,110.76zm-174.79 -70.75c-20.22,0 -20.21,30.73 0,30.73l174.79 0c20.24,0 20.25,-30.73 0,-30.73l-174.79 0z"/>
  <path class="fil0" d="M1274.52 911.96c-130.52,0 -160.96,-79.41 -337.12,-53.46 -39.42,5.81 -84.11,12.41 -158.26,5.67 -235.67,-21.45 -262.18,54.59 -282.03,17.76 -5.22,-9.68 -1.68,-21.74 7.98,-27.01 3.59,-1.96 89.94,-47.7 277.67,-30.6 182.43,16.63 182.04,-54.41 401.79,30.97 162.46,63.12 312.32,-77.39 324.99,-18.02 5.35,25.06 -27.05,25.76 -69.74,40.18 -45.64,15.4 -102.31,34.51 -165.29,34.51z"/>
  <path class="fil1" d="M1272.71 671.74c96.96,67.65 230.8,-3.52 246.17,-4.54 38.28,-2.54 79.55,17.74 117.72,35.16l-2.09 -94.38c-3.01,-130 -58.77,-98.52 -190.6,-21.54 -51.8,30.24 -111.12,64.89 -171.19,85.3z"/>
  <path class="fil2" d="M1637.76 754.77c-88.33,14.27 -164.1,122.34 -173.79,216.57l178.59 -0.11 -4.8 -216.46z"/>
  <path class="fil3" d="M1477.81 823.61c29.42,-43.45 68.9,-79.2 114.07,-97.41 -26.67,-11.49 -54.07,-21.77 -67.2,-19.24 -125.43,51.2 -231.18,43.19 -299.2,-22.45 -76.73,14.92 -151.8,-1.42 -211.04,-88 -7.51,-10.98 -10.23,-73.04 -59.66,-91.55 -25.36,-9.49 -58,-5.44 -94.73,7.46l48.72 84.39c7.77,13.46 -2.17,30.02 -17.3,30.02 -6.9,0 -13.63,-3.58 -17.33,-10.02l-51.39 -89.02c-23.61,11.01 -48.35,24.69 -73.49,40.02l50.22 87c7.75,13.43 -2.1,30 -17.28,30 -6.92,0 -13.64,-3.59 -17.35,-10l-49.42 -85.61c-17.56,11.48 -35.17,23.52 -52.6,35.8l51.28 88.82c7.76,13.45 -2.13,30 -17.28,30 -6.92,0 -13.64,-3.59 -17.35,-10l-49.33 -85.43c-26.07,18.93 -51.38,37.88 -75.09,55.65 -33.05,24.75 -58.26,43.93 -80.25,59.2 20.99,23.57 38.29,51.83 51.18,82.8 35.97,-13 119.12,-34.25 256.8,-21.71 182.43,16.63 182.04,-54.41 401.79,30.97 122.98,47.78 238.75,-21.12 293.24,-31.68z"/>
  <path class="fil1" d="M1274.52 911.96c-130.52,0 -160.96,-79.41 -337.12,-53.46 -39.42,5.81 -84.11,12.41 -158.26,5.67 -138.37,-12.59 -204.64,8.42 -239.79,20.46 9.17,32.63 13.7,67.13 12.88,101.56 142.85,12.77 281.22,10.63 402.22,-14.55l469.3 -0.28c2.69,-32.23 11.72,-65.52 25.84,-97.05 -3.19,0.97 -6.46,2.02 -9.78,3.14 -45.64,15.4 -102.31,34.51 -165.29,34.51z"/>
  <path class="fil2" d="M495.34 877.41c-12.32,-35.32 -30.97,-67.25 -54.68,-92.24 -51.52,29.81 -98.51,39.55 -221.85,58.49 -70.97,10.9 -150.01,23.04 -172.5,47.67 147.99,40.14 308.95,73.99 466,90.92 0.52,-34.91 -5.12,-69.75 -15.96,-101.89 -0.42,-0.97 -0.76,-1.95 -1.01,-2.95z"/>
  <path class="fil4" d="M527.15 1023.96c-147.31,-14.68 -310.18,-45.5 -480.99,-91.26 63.21,252.47 359.33,275.24 625.11,274.04l880.27 0c133.52,0 128.92,-109.94 98.08,-195.52l-206.7 0 -482.37 0c-73.27,15.01 -155.93,22.64 -245.66,22.64 -57.74,0 -119.11,-3.2 -183.48,-9.49 -0.06,0 -0.11,0 -0.17,0 -1.4,0 -2.77,-0.15 -4.09,-0.42zm827.73 136.39c-72.87,0 -72.89,-110.76 0,-110.76l174.79 0c72.9,0 72.91,110.76 0,110.76l-174.79 0z"/>
  <path class="fil1" d="M1354.88 1089.61c-20.22,0 -20.21,30.73 0,30.73l174.79 0c20.24,0 20.25,-30.73 0,-30.73l-174.79 0z"/>
 </g>
</svg>
