<?xml version="1.0" encoding="iso-8859-1"?>
<!-- Uploaded to: SVG Repo, www.svgrepo.com, Generator: SVG Repo Mixer Tools -->
<svg version="1.1" id="Layer_1" xmlns="http://www.w3.org/2000/svg" xmlns:xlink="http://www.w3.org/1999/xlink" 
	 viewBox="0 0 512.002 512.002" xml:space="preserve">
<path style="fill:#FF4444;" d="M105.218,496.214h156.414c-0.014-0.27-0.04-0.535-0.04-0.808v-64.24
	c0-8.515,6.902-15.417,15.417-15.417h49.207v-53.59c0-115.736-69.156-194.143-184.893-194.143H73.372V362.36
	c7.667-2.918,15.977-4.531,24.667-4.531c38.316,0,69.377,31.061,69.377,69.377C167.417,463.099,140.161,492.622,105.218,496.214z"/>
<circle style="fill:#E7AD7C;" cx="98.038" cy="427.208" r="69.377"/>
<path style="fill:#FF4444;" d="M141.32,168.017H73.372V362.36c7.667-2.918,15.977-4.531,24.667-4.531
	c38.316,0,69.377,31.061,69.377,69.377c0,35.893-27.256,65.416-62.2,69.008h177.232c24.171,0,43.764-19.594,43.764-43.764v-90.29
	C326.213,246.422,257.058,168.017,141.32,168.017z"/>
<rect x="73.372" y="104.42" style="fill:#E7AD7C;" width="83.761" height="63.595"/>
<path d="M160.092,299.044c-1.002,0-2.02-0.108-3.006-0.308c-0.987-0.2-1.958-0.493-2.883-0.879c-0.94-0.385-1.835-0.863-2.667-1.418
	c-0.848-0.555-1.634-1.203-2.343-1.912c-0.709-0.709-1.357-1.495-1.912-2.343c-0.555-0.833-1.033-1.727-1.418-2.667
	c-0.385-0.925-0.678-1.896-0.879-2.883c-0.2-0.987-0.308-2.004-0.308-3.006s0.108-2.02,0.308-3.006
	c0.2-0.987,0.493-1.958,0.879-2.898c0.385-0.925,0.863-1.819,1.418-2.652c0.555-0.848,1.203-1.634,1.912-2.343
	c0.709-0.709,1.495-1.357,2.343-1.927c0.833-0.555,1.727-1.033,2.667-1.418c0.925-0.385,1.896-0.678,2.883-0.863
	c1.989-0.401,4.039-0.416,6.028,0c0.971,0.185,1.943,0.478,2.883,0.863c0.925,0.385,1.819,0.863,2.652,1.418
	c0.848,0.57,1.634,1.218,2.343,1.927s1.357,1.495,1.927,2.343c0.555,0.833,1.033,1.727,1.418,2.652
	c0.37,0.94,0.678,1.912,0.879,2.898c0.2,0.987,0.293,2.004,0.293,3.006s-0.092,2.02-0.293,3.006s-0.509,1.958-0.879,2.883
	c-0.385,0.94-0.863,1.835-1.418,2.667c-0.57,0.848-1.218,1.634-1.927,2.343s-1.495,1.357-2.343,1.912
	c-0.833,0.555-1.727,1.033-2.652,1.418c-0.94,0.385-1.912,0.678-2.883,0.879C162.11,298.936,161.094,299.044,160.092,299.044z"/>
<path d="M190.926,366.108c-1.002,0-2.02-0.108-3.006-0.308c-0.987-0.2-1.958-0.493-2.883-0.879c-0.94-0.385-1.835-0.863-2.667-1.418
	c-0.848-0.555-1.634-1.203-2.343-1.912c-2.868-2.868-4.517-6.845-4.517-10.9c0-4.07,1.65-8.032,4.517-10.9
	c0.709-0.709,1.495-1.357,2.343-1.927c0.833-0.555,1.727-1.033,2.667-1.418c0.925-0.385,1.896-0.678,2.883-0.879
	c1.989-0.401,4.039-0.401,6.028,0c0.971,0.2,1.943,0.493,2.883,0.879c0.925,0.385,1.819,0.863,2.652,1.418
	c0.848,0.57,1.634,1.218,2.343,1.927c2.868,2.868,4.517,6.83,4.517,10.9c0,4.055-1.65,8.032-4.517,10.9
	c-0.709,0.709-1.495,1.357-2.343,1.912c-0.833,0.555-1.727,1.033-2.652,1.418c-0.94,0.385-1.912,0.678-2.883,0.879
	C192.944,366,191.928,366.108,190.926,366.108z"/>
<path d="M380.171,322.94c-4.055,0-8.032-1.65-10.9-4.517c-0.709-0.709-1.357-1.495-1.912-2.343
	c-0.555-0.833-1.033-1.727-1.418-2.667c-0.385-0.925-0.678-1.896-0.879-2.883s-0.308-2.004-0.308-3.006s0.108-2.02,0.308-3.022
	c0.2-0.971,0.493-1.943,0.879-2.883c0.385-0.925,0.863-1.819,1.418-2.652c0.555-0.848,1.203-1.634,1.912-2.343
	c2.868-2.868,6.845-4.517,10.9-4.517c4.055,0,8.032,1.65,10.9,4.517c0.709,0.709,1.357,1.495,1.927,2.343
	c0.555,0.833,1.033,1.727,1.418,2.652c0.385,0.94,0.678,1.912,0.879,2.883c0.2,1.002,0.293,2.02,0.293,3.022
	c0,1.002-0.092,2.02-0.293,3.006c-0.2,0.987-0.493,1.958-0.879,2.883c-0.385,0.94-0.863,1.835-1.418,2.667
	c-0.57,0.848-1.218,1.634-1.927,2.343C388.203,321.291,384.224,322.94,380.171,322.94z"/>
<rect x="323.513" y="366.927" style="fill:#E0315B;" width="113.316" height="64.24"/>
<rect x="277.015" y="431.17" style="fill:#F5849F;" width="206.327" height="64.24"/>
<path d="M483.339,415.748h-31.092v-48.823c0-8.515-6.902-15.417-15.417-15.417h-95.396
	c-3.891-110.189-68.356-184.399-168.879-196.992v-50.093c0-8.515-6.902-15.417-15.417-15.417h-25.847
	c4.485-34.209,33.777-58.172,72.971-58.172h86.906c40.643,0,73.589,32.946,73.589,73.589v152.512
	c0,7.729,5.481,14.634,13.131,15.733c9.531,1.369,17.703-5.986,17.703-15.252V104.423C395.589,46.752,348.837,0,291.166,0H204.26
	c-56.203,0-99.337,37.659-103.985,89.006H73.372c-8.515,0-15.417,6.902-15.417,15.417v63.594v184.492
	c-26.591,14.327-44.71,42.434-44.71,74.699c0,46.755,38.039,84.794,84.794,84.794c2.612,0,384.733-0.61,384.733-0.61
	c8.515,0,15.983-7.468,15.983-15.983v-64.24C498.756,422.652,491.854,415.748,483.339,415.748z M421.413,415.748H341.63v-33.406
	h79.783V415.748z M88.789,119.84h52.931v32.758h-0.401H88.789V119.84z M44.126,429.454c-0.984-24.089,13.925-44.901,35.075-52.808
	c0.356-0.133,0.715-0.256,1.073-0.381c0.436-0.153,0.873-0.304,1.314-0.446c0.384-0.123,0.769-0.237,1.155-0.352
	c0.433-0.128,0.868-0.254,1.306-0.372c0.384-0.103,0.769-0.2,1.155-0.294c0.453-0.111,0.91-0.217,1.367-0.316
	c0.375-0.082,0.751-0.16,1.127-0.234c0.481-0.094,0.965-0.179,1.451-0.261c0.359-0.06,0.72-0.12,1.081-0.173
	c0.516-0.076,1.036-0.139,1.557-0.199c0.339-0.04,0.678-0.083,1.019-0.116c0.578-0.056,1.161-0.096,1.744-0.133
	c0.287-0.018,0.574-0.045,0.86-0.059c0.871-0.042,1.748-0.066,2.63-0.066c29.753,0,53.96,24.206,53.96,53.96
	c0,0.907-0.025,1.808-0.069,2.704c-0.009,0.193-0.029,0.381-0.04,0.572c-0.043,0.717-0.092,1.434-0.163,2.143
	c-0.015,0.151-0.037,0.299-0.052,0.45c-0.083,0.766-0.176,1.531-0.291,2.288c-0.009,0.06-0.02,0.119-0.029,0.177
	c-4.218,27.083-28.65,47.566-57.332,45.477C66.891,479.044,45.236,456.634,44.126,429.454z M181.801,440.403
	c0.031-0.2,0.062-0.402,0.092-0.604c0.162-1.095,0.301-2.194,0.421-3.301c0.035-0.33,0.076-0.658,0.108-0.988
	c0.1-1.033,0.176-2.07,0.237-3.114c0.022-0.355,0.052-0.706,0.069-1.061c0.065-1.369,0.105-2.744,0.105-4.129
	c0-46.755-38.039-84.794-84.794-84.794c-1.512,0-3.014,0.043-4.506,0.122c-0.47,0.025-0.936,0.074-1.406,0.108
	c-1.115,0.077-2.229,0.156-3.332,0.279c-0.003-0.003-0.005-0.005-0.008-0.006V183.434h52.531
	c70.294,0,122.681,30.968,149.461,84.774h-83.955c-7.729,0-14.634,5.481-15.733,13.131c-1.369,9.531,5.986,17.703,15.252,17.703
	h95.201c0.347,0,0.686-0.029,1.027-0.052c3.219,11.382,5.519,23.493,6.851,36.283h-71.763c-7.729,0-14.634,5.481-15.733,13.131
	c-1.369,9.531,5.986,17.703,15.252,17.703h70.96c-0.014,0.273-0.042,0.543-0.042,0.819v48.823h-31.092
	c-8.515,0-15.417,6.902-15.417,15.417v49.631h-97.718C173.141,469.398,179.453,455.546,181.801,440.403z M467.922,479.99H292.424
	v-33.406h31.092h113.316h31.092v33.406H467.922z"/>
</svg>