<?xml version="1.0" encoding="UTF-8" standalone="no"?> <svg xmlns="http://www.w3.org/2000/svg" viewBox="0 0 64 64"><title>cleaning-clean-liquid-wash-laundry-detergent</title><g id="_18-detergent" data-name="18-detergent"><rect x="37" y="40" width="20" height="4" style="fill:#fff5cc"/><rect x="37" y="40" width="4" height="4" style="fill:#ffb655"/><rect x="36" y="34" width="22" height="6" style="fill:#898890"/><rect x="36" y="34" width="3" height="6" style="fill:#3e3d42"/><rect x="13" y="7" width="12" height="6" style="fill:#898890"/><rect x="15" y="1" width="8" height="6" style="fill:#b3d8f4"/><rect x="15" y="1" width="3" height="6" style="fill:#57a4ff"/><rect x="36" y="44" width="22" height="19" style="fill:#c6c5ca"/><rect x="36" y="44" width="3" height="19" style="fill:#898890"/><circle cx="47" cy="53.5" r="5.5" style="fill:#b3d8f4"/><path d="M44.5,53.5a5.5,5.5,0,0,1,4-5.288,5.5,5.5,0,1,0,0,10.576A5.5,5.5,0,0,1,44.5,53.5Z" style="fill:#86a2b7"/><path d="M24.538,13H13.462A37.58,37.58,0,0,0,6,35.477V63H32V35.477A37.58,37.58,0,0,0,24.538,13Z" style="fill:#57a4ff"/><path d="M18.462,13h-5A37.58,37.58,0,0,0,6,35.477V63h5V35.477A37.58,37.58,0,0,1,18.462,13Z" style="fill:#006df0"/><path d="M24,23H14a19.333,19.333,0,0,0-3,10.315V43H27V33.315A19.333,19.333,0,0,0,24,23Z" style="fill:#fff5cc"/><path d="M17,23H14a19.333,19.333,0,0,0-3,10.315V43h3V33.315A19.333,19.333,0,0,1,17,23Z" style="fill:#ffb655"/><path d="M25.949,13.254A.979.979,0,0,0,26,13V7a1,1,0,0,0-1-1H24V1a1,1,0,0,0-1-1H15a1,1,0,0,0-1,1V6H13a1,1,0,0,0-1,1v6a.979.979,0,0,0,.051.254A38.847,38.847,0,0,0,5,35.477V63a1,1,0,0,0,1,1H32a1,1,0,0,0,1-1V35.477A38.847,38.847,0,0,0,25.949,13.254ZM18,8v4H17V8Zm2,0h1v4H20Zm3,0h1v4H23ZM16,2h6V6H16ZM14,8h1v4H14ZM31,62H7V35.477A36.829,36.829,0,0,1,13.968,14H24.032A36.829,36.829,0,0,1,31,35.477Z"/><path d="M27,44H11a1,1,0,0,1-1-1V33.315a20.341,20.341,0,0,1,3.154-10.848A1,1,0,0,1,14,22H24a1,1,0,0,1,.846.467A20.341,20.341,0,0,1,28,33.315V43A1,1,0,0,1,27,44ZM12,42H26V33.315A18.309,18.309,0,0,0,23.438,24H14.562A18.309,18.309,0,0,0,12,33.315Z"/><rect x="17" y="26" width="7" height="2"/><rect x="14" y="30" width="10" height="2"/><rect x="14" y="34" width="10" height="2"/><rect x="14" y="38" width="6" height="2"/><rect x="22" y="38" width="2" height="2"/><path d="M28,60H24V58h3V55h2v4A1,1,0,0,1,28,60Z"/><rect x="20" y="58" width="2" height="2"/><path d="M59,40V34a1,1,0,0,0-1-1H36a1,1,0,0,0-1,1v6a1,1,0,0,0,1,1v2a1,1,0,0,0-1,1V63a1,1,0,0,0,1,1H58a1,1,0,0,0,1-1V44a1,1,0,0,0-1-1V41A1,1,0,0,0,59,40ZM37,35H57v4H37Zm5,6h2v2H42Zm4,0h2v2H46Zm4,0h2v2H50ZM38,41h2v2H38ZM57,62H37V45H57ZM56,43H54V41h2Z"/><path d="M47,60a6.5,6.5,0,1,1,6.5-6.5A6.508,6.508,0,0,1,47,60Zm0-11a4.5,4.5,0,1,0,4.5,4.5A4.505,4.505,0,0,0,47,49Z"/><rect x="59" y="26" width="2" height="2"/><rect x="61" y="28" width="2" height="2"/><rect x="59" y="30" width="2" height="2"/><rect x="57" y="28" width="2" height="2"/><rect x="37" y="21" width="2" height="2"/><rect x="39" y="23" width="2" height="2"/><rect x="37" y="25" width="2" height="2"/><rect x="35" y="23" width="2" height="2"/></g></svg>