<?xml version="1.0" encoding="UTF-8"?>
<!DOCTYPE svg PUBLIC "-//W3C//DTD SVG 1.1//EN" "http://www.w3.org/Graphics/SVG/1.1/DTD/svg11.dtd">
<!-- Creator: CorelDRAW -->
<svg xmlns="http://www.w3.org/2000/svg" xml:space="preserve" width="1.70666in" height="1.70666in" version="1.1" style="shape-rendering:geometricPrecision; text-rendering:geometricPrecision; image-rendering:optimizeQuality; fill-rule:evenodd; clip-rule:evenodd"
viewBox="0 0 1706.66 1706.66"
 xmlns:xlink="http://www.w3.org/1999/xlink"
 xmlns:xodm="http://www.corel.com/coreldraw/odm/2003">
 <defs>
  <style type="text/css">
   <![CDATA[
    .fil1 {fill:#0E9AA7}
    .fil4 {fill:#333333}
    .fil0 {fill:#CED07D}
    .fil2 {fill:#FE6F69}
    .fil3 {fill:#FFCB5B}
   ]]>
  </style>
 </defs>
 <g id="Layer_x0020_1">
  <metadata id="CorelCorpID_0Corel-Layer"/>
  <path class="fil0" d="M1045.05 768.76c-67.29,52.62 -67.02,155.06 0.04,207.47 32.56,-65.16 32.56,-142.31 -0.04,-207.47z"/>
  <path class="fil1" d="M1023.89 1010.76c-55.09,-40.83 -77.37,-106.31 -67.2,-167.11 -99.82,-8.83 -117.06,56.38 -223.88,56.38 -54.47,0 -100.6,-19.74 -128.7,-35.44 -4.35,131.52 101.26,240.64 232.63,240.64 76.65,0 144.73,-37.18 187.16,-94.47z"/>
  <path class="fil2" d="M836.73 599.43c150.51,0 273.04,122.39 273.04,273.04 0,150.65 -122.53,273.04 -273.04,273.04 -150.51,0 -273.04,-122.4 -273.04,-273.04 0,-150.65 122.53,-273.04 273.04,-273.04zm0 612.67c187.3,0 339.63,-152.33 339.63,-339.62 0,-187.3 -152.33,-339.63 -339.63,-339.63 -187.3,0 -339.63,152.33 -339.63,339.63 0,187.3 152.33,339.62 339.63,339.62z"/>
  <path class="fil3" d="M1216.64 872.48c0,209.4 -170.37,379.91 -379.91,379.91 -209.54,0 -379.91,-170.37 -379.91,-379.91 0,-209.54 170.51,-379.91 379.91,-379.91 209.4,0 379.91,170.37 379.91,379.91zm-985.44 481.32l1210.93 0 0 -962.65 -1210.93 0 0 962.65z"/>
  <path class="fil1" d="M1442.13 1394.08l-1210.93 0 0 76.52c0,22.81 18.37,36.11 42.21,34.69l952.89 0c32.8,-1.98 138.13,0 181.14,0 19.17,0 34.69,-15.52 34.69,-34.69l0 -76.52z"/>
  <polygon class="fil2" points="1377.51,1545.43 1248.81,1545.43 1248.81,1649.08 1377.51,1649.08 "/>
  <polygon class="fil2" points="424.65,1649.08 424.65,1545.43 295.96,1545.43 295.96,1649.08 "/>
  <path class="fil2" d="M231.2 350.87l384.81 0 0 -326.62 -350.11 0c-19.17,0 -34.69,15.53 -34.69,34.69l0 291.93zm293.74 -144.91l-217.93 0c-26.55,0 -26.55,-40.28 0,-40.28l217.93 0c26.55,0 26.55,40.28 0,40.28z"/>
  <path class="fil3" d="M761.06 187.49c0,47.42 38.61,86.02 86.03,86.02 101.2,0 118.2,-146.03 20.14,-169.67l0 83.65c0,26.48 -40.28,26.59 -40.28,0l0 -83.65c-37.74,9.09 -65.89,43.16 -65.89,83.65z"/>
  <path class="fil1" d="M847.09 313.94c-69.66,0 -126.31,-56.65 -126.31,-126.31 0,-69.66 56.65,-126.31 126.31,-126.31 69.66,0 126.31,56.65 126.31,126.31 -0,69.52 -56.65,126.31 -126.31,126.31zm-190.8 36.93l785.84 0 0 -291.93c0,-19.17 -15.53,-34.69 -34.69,-34.69l-751.15 0 0 326.62zm565.94 -37.07c-97.12,0 -158.4,-106.33 -108.69,-190.52 57.15,-96.77 203.21,-76.04 231.36,32.59 20.69,79.82 -39.65,157.93 -122.68,157.93z"/>
  <path class="fil3" d="M1222.66 101.46c-87,0 -119.16,115.85 -43.92,160.3 65.63,38.77 146.23,-21.53 127.15,-95.53 -4.06,-15.76 -12.42,-29.61 -23.59,-40.42l-42.43 71.89c-13.22,22.46 -48.14,2.38 -34.69,-20.43l42.5 -72.01c-7.98,-2.48 -16.39,-3.8 -25.02,-3.8z"/>
  <path class="fil4" d="M1424.24 1562.1l-1141.69 0c-41.41,0 -74.98,-33.57 -74.98,-74.98l0 -1411.52c0,-41.27 33.57,-74.98 74.98,-74.98l1141.55 0c41.41,0 74.98,33.57 74.98,74.98l0 1411.66c0.14,41.26 -33.57,74.83 -74.83,74.83zm-1141.69 -1521.19c-19.17,0 -34.69,15.53 -34.69,34.69l0 1411.66c0,19.17 15.53,34.69 34.69,34.69l1141.55 0c19.17,0 34.69,-15.52 34.69,-34.69l0 -1411.66c0,-19.17 -15.53,-34.69 -34.69,-34.69l-1141.55 0z"/>
  <path class="fil4" d="M1479.07 407.81l-1251.35 0c-26.55,0 -26.55,-40.28 0,-40.28l1251.22 0c26.48,0 26.53,40.28 0.14,40.28z"/>
  <path class="fil4" d="M652.81 407.81c-11.19,0 -20.14,-8.95 -20.14,-20.14l0 -366.9c0,-26.55 40.29,-26.55 40.29,0l0 366.91c0,11.05 -8.95,20.14 -20.15,20.14z"/>
  <path class="fil4" d="M541.61 222.62l-217.93 0c-26.55,0 -26.55,-40.28 0,-40.28l217.93 0c26.55,0 26.55,40.28 0,40.28z"/>
  <path class="fil4" d="M863.75 330.6c-69.66,0 -126.31,-56.65 -126.31,-126.31 0,-69.66 56.65,-126.31 126.31,-126.31 69.66,0 126.31,56.65 126.31,126.31 -0,69.52 -56.65,126.31 -126.31,126.31zm0 -212.48c-47.42,0 -86.03,38.61 -86.03,86.03 0,47.42 38.61,86.02 86.03,86.02 47.42,0 86.02,-38.61 86.02,-86.02 -0,-47.42 -38.61,-86.03 -86.02,-86.03z"/>
  <path class="fil4" d="M863.75 224.3c-11.19,0 -20.14,-8.95 -20.14,-20.14l0 -106.17c0,-26.59 40.28,-26.48 40.28,0l0 106.17c0,11.19 -9.09,20.14 -20.14,20.14z"/>
  <path class="fil4" d="M1238.9 330.46c-97.12,0 -158.4,-106.33 -108.69,-190.52 57.15,-96.77 203.21,-76.04 231.36,32.59 20.69,79.82 -39.65,157.93 -122.68,157.93zm0.42 -212.34c-87,0 -119.16,115.85 -43.92,160.3 65.63,38.77 146.23,-21.53 127.15,-95.53 -9.78,-37.9 -44.38,-64.77 -83.23,-64.77z"/>
  <path class="fil4" d="M1239.19 224.3c-15.62,0 -25.13,-17.13 -17.34,-30.36l53.99 -91.48c13.39,-22.89 48.1,-2.35 34.69,20.43l-53.99 91.48c-3.78,6.44 -10.49,9.93 -17.35,9.93z"/>
  <path class="fil4" d="M853.4 1269.05c-209.54,0 -379.91,-170.37 -379.91,-379.91 0,-209.54 170.51,-379.91 379.91,-379.91 209.4,0 379.91,170.37 379.91,379.91 0,209.4 -170.37,379.91 -379.91,379.91zm0 -719.54c-187.3,0 -339.63,152.33 -339.63,339.63 0,187.3 152.33,339.62 339.63,339.62 187.3,0 339.63,-152.33 339.63,-339.62 0,-187.3 -152.33,-339.63 -339.63,-339.63z"/>
  <path class="fil4" d="M853.4 1162.19c-150.51,0 -273.04,-122.4 -273.04,-273.04 0,-150.65 122.53,-273.04 273.04,-273.04 150.51,0 273.04,122.39 273.04,273.04 0,150.65 -122.53,273.04 -273.04,273.04zm0 -505.8c-128.27,0 -232.76,104.35 -232.76,232.76 0,128.27 104.35,232.76 232.76,232.76 128.41,0 232.76,-104.35 232.76,-232.76 0,-128.27 -104.49,-232.76 -232.76,-232.76z"/>
  <path class="fil4" d="M749.47 916.7c-87.84,0 -154.01,-51.33 -157.78,-54.28 -20.69,-16.22 4.28,-47.94 25.04,-31.47 4.48,3.5 112.32,86.3 226.6,19.58 48.54,-28.39 101.97,-37.48 158.48,-27.14 25.96,4.71 19.1,44.3 -7.28,39.73 -119.1,-20.65 -131.1,53.57 -245.07,53.57z"/>
  <path class="fil4" d="M1065.17 1039.93c-3.5,0 -7.13,-0.98 -10.35,-2.94 -112.21,-67.86 -111.4,-228.8 0,-295.7 22.81,-13.7 43.54,20.9 20.84,34.55 -85.93,51.67 -85.56,175.21 0,226.6 17.5,10.52 9.76,37.49 -10.49,37.49z"/>
  <path class="fil4" d="M1479.07 1410.75l-1251.35 0c-26.52,0 -26.52,-40.28 0,-40.28l1251.22 0c26.44,0 26.5,40.28 0.14,40.28z"/>
  <path class="fil4" d="M1414.31 1706.03l-168.98 0c-11.05,0 -20.14,-9.09 -20.14,-20.14l0 -143.94c0,-11.05 9.09,-20.14 20.14,-20.14l168.98 0c11.05,0 20.14,9.09 20.14,20.14l0 143.94c0,11.05 -9.09,20.14 -20.14,20.14zm-148.83 -40.28l128.69 0 0 -103.65 -128.69 0 0 103.65z"/>
  <path class="fil4" d="M461.6 1706.03l-169.12 0c-11.19,0 -20.14,-9.09 -20.14,-20.14l0 -143.94c0,-11.05 8.95,-20.14 20.14,-20.14l168.98 0c11.19,0 20.15,9.09 20.15,20.14l0 143.94c0.14,11.05 -8.96,20.14 -20,20.14zm-148.97 -40.28l128.69 0 0 -103.65 -128.69 0 0 103.65z"/>
 </g>
</svg>
