<?xml version="1.0" encoding="UTF-8" standalone="no"?> <svg id="Layer_1" data-name="Layer 1" xmlns="http://www.w3.org/2000/svg" viewBox="0 0 48 48"><defs><style>.cls-1{fill:#f1c40f;}.cls-2{fill:#2ecc71;}.cls-3{fill:#3498db;}.cls-4{fill:#2980b9;}</style></defs><path class="cls-1" d="M42,17H23a1,1,0,0,1-.984-1.176l1.089-6.11a1,1,0,0,1,.334-.583,3.686,3.686,0,0,1,.612-.423l3.122-1.786a6.981,6.981,0,0,1,5.685-.561L39.576,8.6A4.977,4.977,0,0,1,43,13.34V16A1,1,0,0,1,42,17Z"/><path class="cls-2" d="M26.26,17H6a1,1,0,0,1-1-1V14.32A5.979,5.979,0,0,1,8.31,8.956l6.643-3.32a6.011,6.011,0,0,1,6.014.374l2.158,1.438A5.906,5.906,0,0,1,24.956,9.39a5.159,5.159,0,0,1,.536,1.164l1.716,5.129A1,1,0,0,1,26.26,17Z"/><path class="cls-3" d="M36.517,43H11.483a4,4,0,0,1-3.93-3.251L4.018,21.188A1,1,0,0,1,5,20H43a1,1,0,0,1,.982,1.188L40.447,39.749A4,4,0,0,1,36.517,43Z"/><path class="cls-2" d="M30,31H26a1,1,0,0,1-1-1V26a1,1,0,0,1,1-1h4a1,1,0,0,1,1,1v4A1,1,0,0,1,30,31Z"/><path class="cls-1" d="M30,40H26a1,1,0,0,1-1-1V34a1,1,0,0,1,1-1h4a1,1,0,0,1,1,1v5A1,1,0,0,1,30,40Z"/><path class="cls-2" d="M22,31H18a1,1,0,0,1-1-1V26a1,1,0,0,1,1-1h4a1,1,0,0,1,1,1v4A1,1,0,0,1,22,31Z"/><path class="cls-1" d="M22,40H18a1,1,0,0,1-1-1V34a1,1,0,0,1,1-1h4a1,1,0,0,1,1,1v5A1,1,0,0,1,22,40Z"/><path class="cls-2" d="M13.35,31H9.59a1,1,0,0,1-.983-.813l-.759-4A1,1,0,0,1,8.83,25h4.29a1,1,0,0,1,1,.942l.23,4a1,1,0,0,1-1,1.058Z"/><path class="cls-2" d="M13.88,40H11.31a1,1,0,0,1-.982-.813l-.951-5A1,1,0,0,1,10.36,33h3.23a1,1,0,0,1,1,.942l.29,5a1,1,0,0,1-1,1.058Z"/><path class="cls-1" d="M36.69,40H34.12a1,1,0,0,1-1-1.058l.29-5a1,1,0,0,1,1-.942h3.23a1,1,0,0,1,.983,1.187l-.951,5A1,1,0,0,1,36.69,40Z"/><path class="cls-1" d="M38.41,31H34.65a1,1,0,0,1-1-1.058l.23-4a1,1,0,0,1,1-.942h4.29a1,1,0,0,1,.982,1.187l-.759,4A1,1,0,0,1,38.41,31Z"/><path class="cls-4" d="M44,22H4a1.874,1.874,0,0,1-2-1.714V17.714A1.874,1.874,0,0,1,4,16H44a1.874,1.874,0,0,1,2,1.714v2.572A1.874,1.874,0,0,1,44,22Z"/></svg>