<?xml version="1.0" encoding="UTF-8" standalone="no"?> <svg viewBox="-14 0 511 512" xmlns="http://www.w3.org/2000/svg"><path d="m473.292969 414.039062-11.199219-118.039062h-440l-11.199219 118.039062c-4.710937 47.089844 32.269531 87.960938 79.601563 87.960938h303.199218c47.328126 0 84.308594-40.871094 79.597657-87.960938zm0 0" fill="#424d63"/><path d="m422.09375 170c-12.355469 0-355.171875 0-360 0-22.089844 0-40 17.910156-40 40v112c0 44.179688 35.820312 80 80 80h280c44.179688 0 80-35.820312 80-80 0-12.167969 0-93.210938 0-112 0-22.089844-17.910156-40-40-40zm0 0" fill="#e87288"/><path d="m422.09375 150v20h-80v-20c0-11.050781 8.949219-20 20-20h40c11.023438 0 20 8.929688 20 20zm0 0" fill="#ffe781"/><path d="m393.65625 103.671875 13.167969 26.328125-.121094.539062c-1.476563-.359374-3.019531-.539062-4.609375-.539062h-40l-4.21875-8.449219c-21.902344-43.824219-66.738281-71.550781-115.78125-71.550781-49.027344 0-93.847656 27.699219-115.777344 71.550781l-4.222656 8.449219h-40c-1.589844 0-3.128906.179688-4.609375.539062l-.121094-.539062 13.171875-26.328125c28.890625-57.773437 86.96875-93.671875 151.558594-93.671875s122.671875 35.898438 151.5625 93.671875zm0 0" fill="#424d63"/><g fill="#ffe781"><path d="m199.660156 260 42.429688-42.429688 42.429687 42.429688-42.429687 42.429688zm0 0"/><path d="m272.09375 412c0 16.570312-13.429688 30-30 30s-30-13.429688-30-30c0-8.835938 0-36.554688 0-50h60zm0 0"/><path d="m142.09375 150v20h-80v-20c0-9.460938 6.5625-17.378906 15.390625-19.460938 3.875-.941406 3.15625-.367187 44.609375-.539062 11.050781 0 20 8.949219 20 20zm0 0"/></g><path d="m412.34375 250c0 5.519531 4.480469 10 10 10s10-4.480469 10-10-4.480469-10-10-10-10 4.480469-10 10zm0 0"/><path d="m420.613281 280.105469c-4.964843.714843-8.519531 5.195312-8.519531 10.207031v31.6875c0 16.476562-13.355469 29.898438-29.808594 30-5.101562.03125-9.570312 3.796875-10.128906 8.863281-.664062 6.03125 4.039062 11.136719 9.9375 11.136719 27.570312 0 50-22.429688 50-50v-32c0-6.011719-5.300781-10.78125-11.480469-9.894531zm0 0"/><path d="m414.300781 122.589844-11.699219-23.394532c-30.601562-61.183593-92.101562-99.195312-160.507812-99.195312-68.402344 0-129.902344 38.011719-160.503906 99.195312l-11.707032 23.40625c-10.691406 4.730469-17.789062 15.320313-17.789062 27.398438v11.007812c-22.792969 4.644532-40 24.84375-40 48.992188v85.527344l-11.148438 117.519531c-2.527343 25.25 5.792969 50.523437 22.820313 69.34375 17.03125 18.816406 41.351563 29.609375 66.730469 29.609375h303.199218c25.375 0 49.699219-10.792969 66.726563-29.609375 17.03125-18.816406 25.347656-44.09375 22.828125-69.292969l-11.15625-117.570312v-85.527344c0-24.144531-17.203125-44.347656-40-48.992188v-11.007812c0-12.101562-7.117188-22.703125-17.792969-27.410156zm-262.207031 37.410156v-10c0-11.332031-6.316406-21.214844-15.613281-26.316406 20.75-39.34375 60.964843-63.683594 105.613281-63.683594 44.390625 0 84.984375 24.582031 105.617188 63.683594-9.296876 5.101562-15.617188 14.984375-15.617188 26.316406v10zm-80-10c0-5.597656 4.53125-10 10-10h40c5.523438 0 10 4.476562 10 10v10h-60zm280-.648438c0-5.515624 4.503906-9.722656 10.007812-9.347656.011719 0 .023438-.003906.035157-.003906h39.957031c5.503906 0 10 4.40625 10 10v10h-60zm-109.75-129.351562c60.78125 0 115.429688 33.773438 142.617188 88.144531l5.929687 11.855469h-22.363281l-1.457032-2.921875c-23.152343-46.320313-70.90625-77.078125-124.726562-77.078125-52.785156 0-101.085938 29.8125-124.726562 77.082031l-1.457032 2.917969h-22.363281l5.933594-11.855469c27.1875-54.371093 81.835937-88.144531 142.613281-88.144531zm203.5 448.972656c-13.242188 14.632813-32.160156 23.027344-51.898438 23.027344h-303.199218c-19.738282 0-38.65625-8.394531-51.898438-23.027344-13.246094-14.636718-19.71875-34.296875-17.746094-53.988281l4.382813-46.207031c15.820313 25.898437 44.355469 43.222656 76.859375 43.222656h100c0 22.054688 17.945312 40 40 40 22.058594 0 40-17.945312 40-40h100c32.507812 0 61.039062-17.324219 76.863281-43.222656l4.386719 46.257812c1.964844 19.640625-4.503906 39.300782-17.75 53.9375zm-183.75-56.972656c0 11.644531-10.003906 20.996094-21.867188 19.914062-10.363281-.945312-18.132812-9.96875-18.132812-20.378906v-39.535156h40zm190-204.742188v121.140626c0 35.125-28.472656 63.601562-63.597656 63.601562h-106.402344v-30c0-5.523438-4.476562-10-10-10h-60c-5.523438 0-10 4.476562-10 10v30h-106.398438c-35.125 0-63.601562-28.476562-63.601562-63.601562v-121.140626c0-15.054687 12.203125-27.257812 27.257812-27.257812h365.484376c15.054687 0 27.257812 12.203125 27.257812 27.257812zm0 0"/><path d="m249.417969 210.5c-3.90625-3.90625-10.238281-3.90625-14.144531 0l-42.429688 42.429688c-3.90625 3.90625-3.90625 10.234374 0 14.140624l42.429688 42.433594c1.953124 1.949219 4.511718 2.925782 7.070312 2.925782s5.121094-.976563 7.070312-2.925782l42.433594-42.433594c3.902344-3.902343 3.902344-10.234374 0-14.140624zm-7.074219 77.789062-28.285156-28.289062 28.285156-28.289062 28.289062 28.289062zm0 0"/></svg>