<?xml version="1.0" encoding="utf-8"?>
<!-- Generator: Adobe Illustrator 26.0.2, SVG Export Plug-In . SVG Version: 6.00 Build 0)  -->
<svg version="1.1" id="Layer_32" xmlns="http://www.w3.org/2000/svg" xmlns:xlink="http://www.w3.org/1999/xlink" x="0px" y="0px"
	 viewBox="0 0 64 64" style="enable-background:new 0 0 64 64;" xml:space="preserve">
<g>
	<path style="fill:#F8E0B5;" d="M52.143,54.698L40,52v-4.158c4.778-2.768,8-7.923,8-13.842v-4.419c0-1.047,0.169-2.088,0.5-3.081
		c0.331-0.994,0.5-2.034,0.5-3.081V21c0-2.495-0.538-4.865-1.503-7H16.503C15.538,16.135,15,18.505,15,21v2.419
		c0,1.047,0.169,2.088,0.5,3.081c0.331,0.993,0.5,2.034,0.5,3.081V34c0,5.919,3.222,11.074,8,13.842V52l-12.143,2.698
		C8.435,55.459,6,58.494,6,62h52C58,58.494,55.565,55.459,52.143,54.698z"/>
	<path style="fill:#F9EBD2;" d="M15,23.419c0,1.047,0.169,2.088,0.5,3.081c0.331,0.993,0.5,2.034,0.5,3.081V34
		c0,8.158,6.11,14.876,14,15.862C37.89,48.876,44,42.158,44,34v-4.419c0-1.047,0.169-2.088,0.5-3.081
		c0.331-0.994,0.5-2.034,0.5-3.081V21c0-2.495-0.538-4.865-1.503-7H16.503C15.538,16.135,15,18.505,15,21V23.419z"/>
	<circle style="fill:#A1CDF9;" cx="32" cy="15" r="13"/>
	<path style="fill:#C7E2FB;" d="M32,2c-7.18,0-13,5.82-13,13c0,2.58,0.761,4.978,2.057,7H35c3.314,0,6-2.686,6-6V5.633
		C38.664,3.387,35.496,2,32,2z"/>
	<path style="fill:#EBF7FE;" d="M33,18h-7c-1.657,0-3-1.343-3-3v-5c0-1.657,1.343-3,3-3h7c1.657,0,3,1.343,3,3v5
		C36,16.657,34.657,18,33,18z"/>
	<circle style="fill:#EEAB46;" cx="32" cy="15" r="9"/>
	<path style="fill:#F8D859;" d="M32,6c-4.971,0-9,4.029-9,9c0,1.851,0.56,3.57,1.518,5H33c2.209,0,4-1.791,4-4V7.518
		C35.57,6.56,33.851,6,32,6z"/>
	<path style="fill:#FDED72;" d="M33,16h-4c-1.105,0-2-0.895-2-2v-2c0-1.105,0.895-2,2-2h4c1.105,0,2,0.895,2,2v2
		C35,15.105,34.105,16,33,16z"/>
	<path style="fill:#BDBDBD;" d="M55,13H44.831C44.932,13.654,45,14.318,45,15h9v4.277C54.295,19.106,54.634,19,55,19
		s0.705,0.106,1,0.277V14C56,13.448,55.552,13,55,13z"/>
	<path style="fill:#F8E0B5;" d="M48.023,29.002C48.012,29.195,48,29.388,48,29.581V34c0,1.026-0.106,2.027-0.291,3H48
		c2.209,0,4-1.791,4-4C52,30.799,50.221,29.015,48.023,29.002z"/>
	<path style="fill:#F9EBD2;" d="M48,30.877V34c0,0.38-0.031,0.752-0.057,1.126C49.085,35.083,50,34.151,50,32.998
		C50,31.865,49.115,30.948,48,30.877z"/>
	<path style="fill:#F8E0B5;" d="M15.977,29.001C15.988,29.194,16,29.387,16,29.58v4.419c0,1.026,0.106,2.027,0.291,3H16
		c-2.209,0-4-1.791-4-4C12,30.798,13.779,29.014,15.977,29.001z"/>
	<path style="fill:#F9EBD2;" d="M16,30.876v3.123c0,0.38,0.031,0.752,0.057,1.126C14.915,35.082,14,34.149,14,32.997
		C14,31.864,14.885,30.947,16,30.876z"/>
	<g>
		<path style="fill:#F5CD90;" d="M43.445,36.832c-1.713-1.142-3.768-1.548-5.785-1.145l-1.464,0.293
			c-0.433,0.087-0.869-0.12-1.078-0.509c-0.208-0.388-0.137-0.867,0.175-1.179l6-6l1.414,1.414l-3.833,3.833
			c2.016-0.064,3.978,0.493,5.681,1.628L43.445,36.832z"/>
	</g>
	<g>
		<path style="fill:#F5CD90;" d="M20.555,36.832l-1.109-1.664c1.703-1.135,3.669-1.695,5.681-1.628l-3.833-3.833l1.414-1.414l6,6
			c0.312,0.312,0.383,0.791,0.175,1.179c-0.208,0.389-0.646,0.596-1.078,0.509l-1.464-0.293
			C24.322,35.285,22.267,35.69,20.555,36.832z"/>
	</g>
	<path style="fill:#3477CC;" d="M52.143,54.698L40,52l-0.8,0.6C37.123,54.158,34.596,55,32,55s-5.123-0.842-7.2-2.4L24,52
		l-12.143,2.698C8.435,55.459,6,58.494,6,62h52C58,58.494,55.565,55.459,52.143,54.698z"/>
	<path style="fill:#3E89DE;" d="M45.9,56.889L37.4,55l-0.56,0.42c-1.454,1.091-3.223,1.68-5.04,1.68s-3.586-0.59-5.04-1.68L26.2,55
		l-8.5,1.889c-2.396,0.532-4.1,2.657-4.1,5.111H50C50,59.546,48.296,57.421,45.9,56.889z"/>
	<circle style="fill:#F3C14F;" cx="50" cy="4" r="2"/>
	<path style="fill:#BDBDBD;" d="M50,6c-0.366,0-0.705-0.106-1-0.277V9h-5.474c0.333,0.638,0.616,1.305,0.841,2H50
		c0.552,0,1-0.448,1-1V5.723C50.705,5.894,50.366,6,50,6z"/>
	<g>
		<path style="fill:#5BA5EF;" d="M54.258,61.277h-0.002c-0.481,0-0.876-0.347-0.977-0.818c-0.242-1.129-0.98-2.097-2.044-2.629
			l-0.422-0.211c-0.494-0.247-0.694-0.848-0.447-1.342v0c0.247-0.494,0.848-0.694,1.342-0.447l0.422,0.211
			c1.62,0.81,2.742,2.285,3.107,4.005C55.37,60.677,54.903,61.277,54.258,61.277z"/>
	</g>
	<g>
		<path style="fill:#5BA5EF;" d="M10.001,61.277h0.002c0.481,0,0.876-0.347,0.977-0.818c0.242-1.129,0.98-2.097,2.044-2.629
			l0.422-0.211c0.494-0.247,0.694-0.848,0.447-1.342l0,0c-0.247-0.494-0.848-0.694-1.342-0.447L12.13,56.04
			c-1.62,0.81-2.742,2.285-3.107,4.005C8.889,60.677,9.356,61.277,10.001,61.277z"/>
	</g>
	<path style="fill:#F7D771;" d="M50,2c-1.105,0-2,0.895-2,2c0,0.366,0.106,0.705,0.277,1H49c1.105,0,2-0.895,2-2V2.277
		C50.705,2.106,50.366,2,50,2z"/>
	<circle style="fill:#F3C14F;" cx="55" cy="21" r="2"/>
	<path style="fill:#F7D771;" d="M55,19c-1.105,0-2,0.895-2,2c0,0.366,0.106,0.705,0.277,1H54c1.105,0,2-0.895,2-2v-0.723
		C55.705,19.106,55.366,19,55,19z"/>
	<path style="fill:#BDBDBD;" d="M9,13h10.169C19.068,13.654,19,14.318,19,15h-9v4.277C9.705,19.106,9.366,19,9,19
		s-0.705,0.106-1,0.277V14C8,13.448,8.448,13,9,13z"/>
	<circle style="fill:#F3C14F;" cx="14" cy="4" r="2"/>
	<path style="fill:#BDBDBD;" d="M14,6c0.366,0,0.705-0.106,1-0.277V9h5.474c-0.333,0.638-0.616,1.305-0.841,2H14
		c-0.552,0-1-0.448-1-1V5.723C13.295,5.894,13.634,6,14,6z"/>
	<path style="fill:#F7D771;" d="M14,2c-1.105,0-2,0.895-2,2c0,0.366,0.106,0.705,0.277,1H13c1.105,0,2-0.895,2-2V2.277
		C14.705,2.106,14.366,2,14,2z"/>
	<circle style="fill:#F3C14F;" cx="9" cy="21" r="2"/>
	<path style="fill:#F7D771;" d="M9,19c-1.105,0-2,0.895-2,2c0,0.366,0.106,0.705,0.277,1H8c1.105,0,2-0.895,2-2v-0.723
		C9.705,19.106,9.366,19,9,19z"/>
	<path style="fill:#FFFFFF;" d="M36,45h-8c-1.105,0-2-0.895-2-2v0c0-1.105,0.895-2,2-2h8c1.105,0,2,0.895,2,2v0
		C38,44.105,37.105,45,36,45z"/>
	<g>
		<path style="fill:#FFFFFF;" d="M33,18h-2v-2c0-0.553,0.448-1,1-1c1.103,0,2-0.897,2-2s-0.897-2-2-2s-2,0.897-2,2h-2
			c0-2.206,1.794-4,4-4s4,1.794,4,4c0,1.86-1.277,3.429-3,3.873V18z"/>
	</g>
	<g>
		<rect x="31" y="19" style="fill:#FFFFFF;" width="2" height="2"/>
	</g>
</g>
</svg>
