<?xml version="1.0" encoding="iso-8859-1"?>
<!-- Uploaded to: SVG Repo, www.svgrepo.com, Generator: SVG Repo Mixer Tools -->
<svg height="800px" width="800px" version="1.1" id="Layer_1" xmlns="http://www.w3.org/2000/svg" xmlns:xlink="http://www.w3.org/1999/xlink" 
	 viewBox="0 0 512 512" xml:space="preserve">
<path style="fill:#FF675C;" d="M79.376,277.027c-20.901,0-37.848-16.948-37.848-37.848s16.948-37.848,37.848-37.848h189.24
	l-32.707-31.782c-18.072-18.062-18.072-47.352,0-65.414c18.062-18.062,47.352-18.062,65.414,0l93.453,97.196h109.339v302.784
	H104.608c-20.901,0-37.848-16.948-37.848-37.848s16.948-37.848,37.848-37.848H58.349c-20.901,0-37.848-16.948-37.848-37.848
	s16.948-37.848,37.848-37.848H45.733c-20.901,0-37.848-16.948-37.848-37.848s16.948-37.848,37.848-37.848H79.376z"/>
<g>
	<path style="fill:#DB3D5A;" d="M170.842,414.089c0-3.704-2.993-6.711-6.696-6.727l-105.797-0.495
		c-17.16,0-31.643-11.423-36.284-27.077c-1.015,3.417-1.564,7.035-1.564,10.781c0,20.903,16.945,37.848,37.848,37.848l112.493,0.526
		V414.089z"/>
	<path style="fill:#DB3D5A;" d="M164.114,331.696H52.083c2.039-0.34-6.35-0.526-6.35-0.526c-17.158,0-31.641-11.421-36.283-27.072
		c-1.013,3.417-1.565,7.031-1.565,10.776c0,18.767,13.663,34.336,31.582,37.322h131.375v-13.774
		C170.842,334.708,167.83,331.696,164.114,331.696z"/>
	<path style="fill:#DB3D5A;" d="M170.842,264.239c0-3.712-3.007-6.723-6.719-6.727l-84.747-0.105
		c-17.509,0-32.234-11.892-36.557-28.038c-0.838,3.13-1.291,6.416-1.291,9.81c0,20.903,16.945,37.848,37.848,37.848l91.466,0.526
		V264.239z"/>
	<path style="fill:#DB3D5A;" d="M68.051,456.457c-0.838,3.13-1.291,6.416-1.291,9.81c0,20.903,16.945,37.848,37.848,37.848h399.507
		v-19.62H104.608C87.099,484.495,72.374,472.602,68.051,456.457z"/>
</g>
<path style="fill:#FAEC8E;" d="M369.544,352.723c0,34.841-28.239,63.08-63.08,63.08s-63.08-28.239-63.08-63.08
	s63.08-105.133,63.08-105.133S369.544,317.882,369.544,352.723z"/>
<path style="fill:#FBC96C;" d="M331.696,398.982c-34.841,0-63.08-28.239-63.08-63.08c0-21.968,25.073-58.022,43.605-81.672
	c-3.564-4.197-5.757-6.64-5.757-6.64s-63.08,70.292-63.08,105.133s28.239,63.08,63.08,63.08c18.44,0,35.028-7.913,46.563-20.527
	C346.363,397.669,339.184,398.982,331.696,398.982z"/>
<g>
	<path style="fill:#5CC4E0;" d="M411.598,98.3c12.269,15.644,29.763,18.409,33.643,18.924c-3.879,0.515-21.374,3.28-33.643,18.924
		c-8.579,10.944-10.145,22.499-10.513,27.335c-0.368-4.836-1.934-16.39-10.513-27.335c-12.269-15.644-29.763-18.409-33.643-18.924
		c3.879-0.515,21.374-3.28,33.643-18.924c8.579-10.944,10.145-22.499,10.513-27.335C401.452,75.801,403.019,87.355,411.598,98.3z"/>
	<path style="fill:#5CC4E0;" d="M62.554,98.3c12.269,15.644,29.763,18.409,33.643,18.924c-3.879,0.515-21.374,3.28-33.643,18.924
		c-8.579,10.944-10.145,22.499-10.513,27.335c-0.368-4.836-1.934-16.39-10.513-27.335c-12.269-15.644-29.763-18.409-33.643-18.924
		c3.879-0.515,21.374-3.28,33.643-18.924c8.579-10.944,10.145-22.499,10.513-27.335C52.409,75.801,53.976,87.355,62.554,98.3z"/>
	<path style="fill:#5CC4E0;" d="M213.947,35.22c12.269,15.644,29.763,18.409,33.643,18.924c-3.879,0.515-21.374,3.28-33.643,18.924
		c-8.579,10.944-10.145,22.499-10.513,27.335c-0.368-4.836-1.934-16.39-10.513-27.335c-12.269-15.644-29.763-18.409-33.643-18.924
		c3.879-0.515,21.374-3.28,33.643-18.924c8.579-10.944,10.145-22.499,10.513-27.335C203.801,12.721,205.368,24.275,213.947,35.22z"
		/>
</g>
<path d="M504.115,193.446H398.133L307.007,98.67c-0.036-0.037-0.072-0.074-0.109-0.11c-21.109-21.109-55.457-21.109-76.563-0.001
	c-10.231,10.225-15.865,23.821-15.865,38.284c0,14.462,5.633,28.059,15.865,38.284c0.025,0.026,0.053,0.053,0.079,0.078
	l18.775,18.241H79.376H75.17c-1.026,0-2.005,0.196-2.904,0.552c-21.852,3.425-38.624,22.382-38.624,45.181
	c0,11.465,4.251,21.95,11.245,29.984C20.061,269.617,0,289.941,0,314.875c0,18.748,11.345,34.891,27.526,41.942
	c-9.156,8.369-14.91,20.401-14.91,33.754c0,25.217,20.516,45.733,45.733,45.733h11.753c-6.984,8.032-11.227,18.509-11.227,29.963
	c0,25.217,20.516,45.733,45.733,45.733h275.449c4.356,0,7.885-3.53,7.885-7.885c0-4.355-3.529-7.885-7.885-7.885H104.608
	c-16.522,0-29.963-13.441-29.963-29.963c0-16.522,13.441-29.963,29.963-29.963h58.875c4.356,0,7.885-3.53,7.885-7.885
	c0-4.355-3.529-7.885-7.885-7.885H58.349c-16.522,0-29.963-13.441-29.963-29.963s13.441-29.963,29.963-29.963h109.339
	c4.356,0,7.885-3.53,7.885-7.885c0-4.355-3.529-7.885-7.885-7.885H45.733c-16.522,0-29.963-13.441-29.963-29.963
	s13.441-29.963,29.963-29.963h121.955c4.356,0,7.885-3.53,7.885-7.885s-3.529-7.885-7.885-7.885H79.376
	c-16.522,0-29.963-13.441-29.963-29.963s13.441-29.963,29.963-29.963h189.24c3.21,0,6.1-1.946,7.306-4.92
	c1.207-2.974,0.491-6.384-1.811-8.62l-32.666-31.742c-7.226-7.242-11.204-16.861-11.204-27.092c0-10.249,3.993-19.884,11.243-27.132
	c14.944-14.943,39.245-14.962,54.211-0.054l93.397,97.139c1.487,1.547,3.539,2.42,5.684,2.42H496.23V496.23h-69.914
	c-4.356,0-7.885,3.53-7.885,7.885c0,4.355,3.529,7.885,7.885,7.885h77.799c4.356,0,7.885-3.53,7.885-7.885V201.331
	C512,196.976,508.471,193.446,504.115,193.446z"/>
<path d="M306.464,239.704c-2.239,0-4.372,0.953-5.869,2.619c-6.663,7.425-65.097,73.602-65.097,110.4
	c0,39.131,31.834,70.965,70.965,70.965s70.965-31.834,70.965-70.965c0-36.798-58.433-102.975-65.097-110.4
	C310.837,240.657,308.703,239.704,306.464,239.704z M361.659,352.723c0,30.435-24.761,55.195-55.195,55.195
	c-30.434,0-55.195-24.76-55.195-55.195c0-23.461,35.667-70.2,55.195-93.137C325.993,282.523,361.659,329.262,361.659,352.723z"/>
<path d="M6.847,125.04c5.353,0.711,18.843,3.691,28.475,15.972c6.844,8.731,8.486,18.201,8.856,23.067
	c0.311,4.112,3.739,7.288,7.862,7.288s7.551-3.176,7.863-7.288c0.37-4.867,2.012-14.336,8.855-23.066
	c9.633-12.283,23.123-15.263,28.476-15.974c3.918-0.52,6.846-3.863,6.846-7.816s-2.928-7.295-6.847-7.817
	c-5.352-0.711-18.843-3.692-28.475-15.972c-6.844-8.731-8.486-18.201-8.856-23.067c-0.311-4.112-3.739-7.288-7.862-7.288
	s-7.551,3.176-7.863,7.288c-0.37,4.867-2.012,14.336-8.855,23.066c-9.633,12.283-23.123,15.263-28.476,15.974
	C2.928,109.929,0,113.271,0,117.224S2.928,124.519,6.847,125.04z M47.733,103.164c1.64-2.092,3.068-4.206,4.308-6.315
	c1.241,2.108,2.668,4.223,4.308,6.315c0,0,0,0.001,0.001,0.001c4.949,6.309,10.615,10.826,16.15,14.058
	c-5.535,3.233-11.202,7.749-16.151,14.06c-1.64,2.092-3.068,4.206-4.308,6.315c-1.242-2.109-2.668-4.224-4.309-6.316
	c-4.949-6.309-10.615-10.826-16.15-14.058C37.117,113.991,42.784,109.474,47.733,103.164z"/>
<path d="M355.89,125.04c5.353,0.711,18.843,3.691,28.475,15.972c6.844,8.731,8.486,18.201,8.856,23.067
	c0.312,4.112,3.74,7.288,7.863,7.288s7.551-3.176,7.863-7.288c0.37-4.867,2.012-14.336,8.855-23.066
	c9.633-12.283,23.123-15.263,28.476-15.974c3.919-0.52,6.847-3.863,6.847-7.817s-2.928-7.295-6.847-7.817
	c-5.353-0.711-18.843-3.691-28.475-15.972c-6.844-8.731-8.486-18.201-8.856-23.067c-0.313-4.111-3.741-7.287-7.864-7.287
	s-7.551,3.176-7.863,7.288c-0.37,4.867-2.012,14.336-8.856,23.067c-9.632,12.281-23.123,15.262-28.475,15.973
	c-3.919,0.52-6.847,3.863-6.847,7.817S351.971,124.519,355.89,125.04z M396.775,103.165
	C396.776,103.165,396.776,103.164,396.775,103.165c1.641-2.093,3.069-4.208,4.309-6.316c1.242,2.109,2.668,4.224,4.309,6.316
	c4.949,6.309,10.615,10.826,16.15,14.058c-5.535,3.233-11.202,7.749-16.151,14.06c-1.64,2.092-3.068,4.206-4.308,6.315
	c-1.242-2.109-2.668-4.224-4.309-6.316c-4.949-6.309-10.615-10.826-16.15-14.058C386.16,113.992,391.826,109.475,396.775,103.165z"
	/>
<path d="M158.24,61.96c5.353,0.711,18.843,3.691,28.475,15.972c6.844,8.731,8.486,18.201,8.856,23.067
	c0.312,4.112,3.74,7.288,7.863,7.288c4.123,0,7.551-3.176,7.863-7.288c0.37-4.867,2.012-14.336,8.855-23.066
	c9.633-12.283,23.123-15.263,28.476-15.974c3.917-0.52,6.845-3.863,6.845-7.816s-2.928-7.295-6.847-7.817
	c-5.352-0.711-18.843-3.692-28.475-15.972c-6.844-8.731-8.486-18.201-8.856-23.067C210.984,3.176,207.557,0,203.433,0
	s-7.551,3.176-7.863,7.288c-0.37,4.867-2.012,14.336-8.855,23.066c-9.633,12.283-23.123,15.263-28.476,15.974
	c-3.918,0.52-6.846,3.863-6.846,7.816S154.32,61.439,158.24,61.96z M199.125,40.084c1.64-2.092,3.068-4.206,4.308-6.315
	c1.241,2.108,2.668,4.223,4.308,6.315c0,0,0,0.001,0.001,0.001c4.949,6.309,10.615,10.826,16.15,14.058
	c-5.535,3.233-11.202,7.749-16.151,14.06c-1.64,2.092-3.068,4.206-4.308,6.315c-1.242-2.109-2.668-4.224-4.309-6.316
	c-4.949-6.309-10.615-10.826-16.15-14.058C188.51,50.911,194.176,46.394,199.125,40.084z"/>
<path d="M331.721,329.98c9.566,11.646,12.068,26.285,6.541,38.235c-5.722,11.349-18.191,18.676-31.799,18.676
	c-4.356,0-7.885,3.53-7.885,7.885c0,4.355,3.529,7.885,7.885,7.885c19.565,0,37.603-10.79,45.952-27.488
	c0.032-0.064,0.063-0.127,0.093-0.191c8.176-17.521,4.881-38.6-8.602-55.012c-2.763-3.365-7.732-3.85-11.098-1.088
	C329.444,321.646,328.957,326.615,331.721,329.98z"/>
<path d="M318.328,309.345c1.531,2.21,3.989,3.395,6.488,3.395c1.55,0,3.114-0.455,4.484-1.405c3.58-2.48,4.47-7.393,1.99-10.973
	c-1.231-1.778-2.48-3.544-3.742-5.302c-2.539-3.54-7.469-4.346-11.003-1.809c-3.538,2.539-4.349,7.466-1.81,11.003
	C315.947,305.942,317.145,307.638,318.328,309.345z"/>
</svg>