<?xml version="1.0" encoding="UTF-8" standalone="no"?> <svg width="64" height="64" viewBox="0 0 64 64" fill="none" xmlns="http://www.w3.org/2000/svg">
<path d="M17 43H3V49H61V43H17Z" fill="#FFCD00"/>
<path d="M61 43H3V46H61V43Z" fill="#DDB200"/>
<path d="M51 43H27V61H51V43Z" fill="#ED1C24"/>
<path d="M49 39H17V43H49V39Z" fill="#A7A9AC"/>
<path d="M37.093 24C36.3939 24.0018 35.6954 24.0388 35 24.111V26C35 26.7956 34.6839 27.5587 34.1213 28.1213C33.5587 28.6839 32.7956 29 32 29H23.5C22.4764 29.8683 21.5388 30.8331 20.7 31.881L15 39H51L55 35L52.622 28.459L51 24H37.093ZM49.758 36H36L40 27H48.9L51.529 34.229L49.758 36Z" fill="#006DF0"/>
<path d="M35 26V24.111C30.7592 24.5352 26.748 26.2404 23.5 29H32C32.7956 29 33.5587 28.6839 34.1213 28.1213C34.6839 27.5587 35 26.7956 35 26Z" fill="#ED1C24"/>
<path d="M51 57H27V61H51V57Z" fill="#CD2A00"/>
<path d="M46 33H42C41.7348 33 41.4804 33.1054 41.2929 33.2929C41.1054 33.4804 41 33.7348 41 34V36H47V34C47 33.7348 46.8946 33.4804 46.7071 33.2929C46.5196 33.1054 46.2652 33 46 33Z" fill="#AB2300"/>
<path d="M49 43V49C49.0007 51.9552 47.9054 54.8056 45.926 57H51V43H49Z" fill="#AB2300"/>
<path d="M37 61H51V57H45.926C44.8043 58.2584 43.4292 59.2654 41.8908 59.9547C40.3525 60.6441 38.6857 61.0003 37 61V61Z" fill="#9A2000"/>
<path d="M49 39H17V41H49V39Z" fill="#939598"/>
<path d="M61 42H50V40H51C51.2651 39.998 51.5193 39.8942 51.71 39.71L55.71 35.71C55.8422 35.5737 55.9337 35.4032 55.9744 35.2177C56.015 35.0322 56.0031 34.8391 55.94 34.66L53.91 29.08L56.37 28.27L57.05 30.32C57.1189 30.5175 57.2472 30.6888 57.4172 30.8106C57.5873 30.9323 57.7909 30.9985 58 31H61C61.2652 31 61.5196 30.8946 61.7071 30.7071C61.8946 30.5196 62 30.2652 62 30C62 29.7348 61.8946 29.4804 61.7071 29.2929C61.5196 29.1054 61.2652 29 61 29H58.72L57.95 26.68C57.9083 26.5551 57.8422 26.4396 57.7557 26.3402C57.6692 26.2409 57.5639 26.1596 57.4459 26.1011C57.3279 26.0425 57.1995 26.0079 57.0681 25.9991C56.9366 25.9903 56.8047 26.0076 56.68 26.05L53.23 27.2L51.94 23.66C51.8711 23.4661 51.7437 23.2984 51.5752 23.1801C51.4068 23.0619 51.2058 22.9989 51 23H37.09C33.7889 22.9924 30.5288 23.7315 27.5538 25.1619C24.5787 26.5923 21.9656 28.677 19.91 31.26L14.22 38.38C14.1019 38.5253 14.0278 38.7014 14.0065 38.8875C13.9853 39.0735 14.0177 39.2618 14.1 39.43C14.181 39.6002 14.3085 39.744 14.4678 39.8448C14.627 39.9457 14.8115 39.9995 15 40H16V42H3C2.73478 42 2.48043 42.1054 2.29289 42.2929C2.10536 42.4804 2 42.7348 2 43V49C2 49.2652 2.10536 49.5196 2.29289 49.7071C2.48043 49.8946 2.73478 50 3 50H26V61C26 61.2652 26.1054 61.5196 26.2929 61.7071C26.4804 61.8946 26.7348 62 27 62H51C51.2652 62 51.5196 61.8946 51.7071 61.7071C51.8946 61.5196 52 61.2652 52 61V50H61C61.2652 50 61.5196 49.8946 61.7071 49.7071C61.8946 49.5196 62 49.2652 62 49V43C62 42.7348 61.8946 42.4804 61.7071 42.2929C61.5196 42.1054 61.2652 42 61 42ZM34 25.24V26C33.9984 26.5299 33.7872 27.0377 33.4125 27.4125C33.0377 27.7872 32.5299 27.9984 32 28H26.54C28.8156 26.5873 31.3529 25.6486 34 25.24ZM21.48 32.51C22.1976 31.6046 22.9941 30.7647 23.86 30H32C33.0609 30 34.0783 29.5786 34.8284 28.8284C35.5786 28.0783 36 27.0609 36 26V25.03C36.36 25.01 36.73 25 37.09 25H50.3L51.67 28.77V28.78H51.68L53.84 34.74L50.59 38H17.08L21.48 32.51ZM26 48H4V44H26V48ZM18 42V40H48V42H18ZM50 60H28V58H50V60ZM50 53H38C37.7348 53 37.4804 53.1054 37.2929 53.2929C37.1054 53.4804 37 53.7348 37 54C37 54.2652 37.1054 54.5196 37.2929 54.7071C37.4804 54.8946 37.7348 55 38 55H50V56H28V51.96L34.99 52H35C35.2652 52.0013 35.5201 51.8972 35.7086 51.7106C35.897 51.524 36.0037 51.2702 36.005 51.005C36.0063 50.7398 35.9022 50.4849 35.7156 50.2964C35.529 50.108 35.2752 50.0013 35.01 50L28 49.96V44H50V53ZM60 48H52V44H60V48Z" fill="#231F20"/>
<path d="M52.47 33.89L49.84 26.66C49.7701 26.4667 49.6424 26.2997 49.4742 26.1816C49.306 26.0635 49.1055 26.0001 48.9 26H40C39.8073 25.9988 39.6184 26.054 39.4567 26.1588C39.295 26.2637 39.1675 26.4136 39.09 26.59L35.09 35.59C35.0216 35.7421 34.9924 35.909 35.0049 36.0753C35.0175 36.2416 35.0714 36.4021 35.1619 36.5423C35.2523 36.6824 35.3764 36.7977 35.5228 36.8776C35.6691 36.9576 35.8332 36.9997 36 37H49.76C50.0221 36.9979 50.2732 36.8939 50.46 36.71L52.23 34.94C52.366 34.8061 52.4609 34.6361 52.5034 34.4501C52.546 34.264 52.5344 34.0697 52.47 33.89ZM46 35H42V34H46V35ZM49.34 35H48V34C47.9984 33.4701 47.7872 32.9623 47.4125 32.5875C47.0377 32.2128 46.5299 32.0016 46 32H42C41.47 32.0016 40.9623 32.2128 40.5875 32.5875C40.2128 32.9623 40.0016 33.4701 40 34V35H37.54L40.65 28H48.2L50.37 33.97L49.34 35Z" fill="#231F20"/>
<path d="M39 50H38C37.7348 50 37.4804 50.1054 37.2929 50.2929C37.1054 50.4804 37 50.7348 37 51C37 51.2652 37.1054 51.5196 37.2929 51.7071C37.4804 51.8946 37.7348 52 38 52H39C39.2652 52 39.5196 51.8946 39.7071 51.7071C39.8946 51.5196 40 51.2652 40 51C40 50.7348 39.8946 50.4804 39.7071 50.2929C39.5196 50.1054 39.2652 50 39 50Z" fill="#231F20"/>
<path d="M23.4 19.2C22.331 20 21 21 21 23C21 23.2652 21.1054 23.5196 21.2929 23.7071C21.4804 23.8946 21.7348 24 22 24C22.2652 24 22.5196 23.8946 22.7071 23.7071C22.8946 23.5196 23 23.2652 23 23C23 22.046 23.578 21.566 24.6 20.8C25.669 20 27 19 27 17C27 15 25.669 14 24.6 13.2C23.578 12.432 23 11.951 23 11C23 10.049 23.578 9.567 24.6 8.8C25.669 8 27 7 27 5C27 4.73478 26.8946 4.48043 26.7071 4.29289C26.5196 4.10536 26.2652 4 26 4C25.7348 4 25.4804 4.10536 25.2929 4.29289C25.1054 4.48043 25 4.73478 25 5C25 5.953 24.422 6.433 23.4 7.2C22.331 8 21 9 21 11C21 13 22.331 14 23.4 14.8C24.422 15.566 25 16.047 25 17C25 17.953 24.422 18.433 23.4 19.2Z" fill="#231F20"/>
<path d="M15.4 21.2C14.331 22 13 23 13 25C13 25.2652 13.1054 25.5196 13.2929 25.7071C13.4804 25.8946 13.7348 26 14 26C14.2652 26 14.5196 25.8946 14.7071 25.7071C14.8946 25.5196 15 25.2652 15 25C15 24.046 15.578 23.566 16.6 22.8C17.669 22 19 21 19 19C19 17 17.669 16 16.6 15.2C15.578 14.432 15 13.951 15 13C15 12.049 15.578 11.567 16.6 10.8C17.669 10 19 9 19 7C19 6.73478 18.8946 6.48043 18.7071 6.29289C18.5196 6.10536 18.2652 6 18 6C17.7348 6 17.4804 6.10536 17.2929 6.29289C17.1054 6.48043 17 6.73478 17 7C17 7.953 16.422 8.433 15.4 9.2C14.331 10 13 11 13 13C13 15 14.331 16 15.4 16.8C16.422 17.566 17 18.047 17 19C17 19.953 16.422 20.433 15.4 21.2Z" fill="#231F20"/>
<path d="M31.4 17.2C30.331 18 29 19 29 21C29 21.2652 29.1054 21.5196 29.2929 21.7071C29.4804 21.8946 29.7348 22 30 22C30.2652 22 30.5196 21.8946 30.7071 21.7071C30.8946 21.5196 31 21.2652 31 21C31 20.046 31.578 19.566 32.6 18.8C33.669 18 35 17 35 15C35 13 33.669 12 32.6 11.2C31.578 10.432 31 9.951 31 9C31 8.049 31.578 7.567 32.6 6.8C33.669 6 35 5 35 3C35 2.73478 34.8946 2.48043 34.7071 2.29289C34.5196 2.10536 34.2652 2 34 2C33.7348 2 33.4804 2.10536 33.2929 2.29289C33.1054 2.48043 33 2.73478 33 3C33 3.953 32.422 4.433 31.4 5.2C30.331 6 29 7 29 9C29 11 30.331 12 31.4 12.8C32.422 13.566 33 14.047 33 15C33 15.953 32.422 16.433 31.4 17.2Z" fill="#231F20"/>
</svg>
