<?xml version="1.0" encoding="UTF-8" standalone="no"?> <svg xmlns="http://www.w3.org/2000/svg" viewBox="0 0 64 64"><g id="Laundry"><rect x="14" y="9" width="26" height="33" style="fill:#ffda44"/><path d="M21,9H33A6,6,0,0,1,21,9Z" style="fill:#e0e0e2"/><rect x="40" y="9" width="9" height="11" style="fill:#ff9811"/><rect x="5" y="9" width="9" height="11" style="fill:#ff9811"/><rect x="6" y="54" width="52" height="7" style="fill:#957856"/><rect x="3" y="49" width="58" height="5" style="fill:#5f4d37"/><path d="M59,50a5.8,5.8,0,0,1-.35,2,5.984,5.984,0,0,1-10.11,2H34v2a2.006,2.006,0,0,1-2,2,2.015,2.015,0,0,1-2-2V54H14v2a2.006,2.006,0,0,1-2,2,2.015,2.015,0,0,1-2-2V53a5,5,0,0,1-4.9-4.01A4.619,4.619,0,0,1,5,48a5,5,0,0,1,5-5,4.925,4.925,0,0,1,2.03.43,7.991,7.991,0,0,1,13.12-5.55,7.987,7.987,0,0,1,13.36-.52,9.054,9.054,0,0,1,1.5-.3A7.977,7.977,0,0,1,41,37a8.939,8.939,0,0,1,5.83,2.15A5.069,5.069,0,0,1,48,39a5,5,0,0,1,5,5,5.99,5.99,0,0,1,5.91,5A5.47,5.47,0,0,1,59,50Z" style="fill:#2488ff"/><circle cx="7" cy="36" r="2" style="fill:#bdfdff"/><circle cx="18" cy="46" r="2" style="fill:#bdfdff"/><circle cx="57" cy="36" r="2" style="fill:#bdfdff"/><path d="M4,36a3,3,0,1,0,3-3A3,3,0,0,0,4,36Zm4,0a1,1,0,1,1-1-1A1,1,0,0,1,8,36Z"/><path d="M57,39a3,3,0,1,0-3-3A3,3,0,0,0,57,39Zm0-4a1,1,0,1,1-1,1A1,1,0,0,1,57,35Z"/><path d="M18,49a3,3,0,1,0-3-3A3,3,0,0,0,18,49Zm0-4a1,1,0,1,1-1,1A1,1,0,0,1,18,45Z"/><rect x="47" y="26" width="2" height="2"/><rect x="49" y="28" width="2" height="2"/><rect x="47" y="30" width="2" height="2"/><rect x="45" y="28" width="2" height="2"/><rect x="4" y="24" width="2" height="2"/><rect x="6" y="26" width="2" height="2"/><rect x="4" y="28" width="2" height="2"/><rect x="2" y="26" width="2" height="2"/><rect x="58" y="16" width="2" height="2"/><rect x="60" y="18" width="2" height="2"/><rect x="58" y="20" width="2" height="2"/><rect x="56" y="18" width="2" height="2"/><rect x="36" y="40" width="2" height="2"/><rect x="38" y="42" width="2" height="2"/><rect x="36" y="44" width="2" height="2"/><rect x="34" y="42" width="2" height="2"/><path d="M61,48H59.71a7.035,7.035,0,0,0-5.78-4.94A6.021,6.021,0,0,0,48,38a5.9,5.9,0,0,0-.91.08A10,10,0,0,0,41,36.01V21h8a1,1,0,0,0,1-1V9a1,1,0,0,0-1-1H5A1,1,0,0,0,4,9V20a1,1,0,0,0,1,1h8V38.38a9.028,9.028,0,0,0-1.79,3.74A6.014,6.014,0,0,0,4,48H3a1,1,0,0,0-1,1v5a1,1,0,0,0,1,1H5v6a1,1,0,0,0,1,1H58a1,1,0,0,0,1-1V55h2a1,1,0,0,0,1-1V49A1,1,0,0,0,61,48ZM41,10h7v9H41Zm-9.1,0a5,5,0,0,1-9.8,0ZM15,10h5.08a6.991,6.991,0,0,0,13.84,0H39V36.21c-.03.01-.07.01-.1.02A9.053,9.053,0,0,0,32,33a8.94,8.94,0,0,0-7.09,3.46,8.936,8.936,0,0,0-9.91.08ZM6,19V10h7v9ZM4,53V50h.35a6.021,6.021,0,0,0,2.37,3Zm53,7H7V55H9v1a3,3,0,0,0,3,3,3.009,3.009,0,0,0,3-3V55H29v1a3,3,0,0,0,6,0V55H48.11a6.979,6.979,0,0,0,8.89.74Zm.71-8.33a4.988,4.988,0,0,1-8.42,1.67.981.981,0,0,0-.75-.34H34a1,1,0,0,0-1,1v2a1,1,0,0,1-2,0V54a1,1,0,0,0-1-1H14a1,1,0,0,0-1,1v2a1,1,0,0,1-1,1,.949.949,0,0,1-.71-.31A.928.928,0,0,1,11,56V53a1,1,0,0,0-1-1,4,4,0,1,1,1.51-7.71.931.931,0,0,0,.52.15,1,1,0,0,0,1-.96,6.989,6.989,0,0,1,11.48-4.83,1,1,0,0,0,1.5-.25A6.939,6.939,0,0,1,32,35a7.037,7.037,0,0,1,5.7,2.94.982.982,0,0,0,1.09.38,7.966,7.966,0,0,1,7.39,1.59.97.97,0,0,0,.88.21A4.243,4.243,0,0,1,48,40a4,4,0,0,1,4,4,1,1,0,0,0,1,1,4.993,4.993,0,0,1,4.71,6.67ZM60,53h-.7c.1-.22.21-.43.29-.66A6.818,6.818,0,0,0,60,50Z"/></g></svg>