<?xml version="1.0" encoding="UTF-8"?>
<!DOCTYPE svg PUBLIC "-//W3C//DTD SVG 1.1//EN" "http://www.w3.org/Graphics/SVG/1.1/DTD/svg11.dtd">
<!-- Creator: CorelDRAW -->
<svg xmlns="http://www.w3.org/2000/svg" xml:space="preserve" width="2.66666in" height="2.66666in" version="1.1" style="shape-rendering:geometricPrecision; text-rendering:geometricPrecision; image-rendering:optimizeQuality; fill-rule:evenodd; clip-rule:evenodd"
viewBox="0 0 2666.66 2666.66"
 xmlns:xlink="http://www.w3.org/1999/xlink"
 xmlns:xodm="http://www.corel.com/coreldraw/odm/2003">
 <defs>
  <style type="text/css">
   <![CDATA[
    .fil1 {fill:black}
    .fil6 {fill:#474747}
    .fil4 {fill:#597DA2}
    .fil5 {fill:#D62966}
    .fil2 {fill:#F8B9A0}
    .fil3 {fill:#FBE201}
    .fil0 {fill:#FF9AA2}
   ]]>
  </style>
 </defs>
 <g id="Layer_x0020_1">
  <metadata id="CorelCorpID_0Corel-Layer"/>
  <circle class="fil0" cx="1333.33" cy="1333.33" r="1333.33"/>
  <path class="fil1" d="M1332.98 1562.36c-212.36,0 -385,-172.78 -385,-385l0 -115.97c0,-212.36 172.78,-385 385,-385 212.22,0 385,172.78 385,385l0 115.97c0.14,212.22 -172.64,385 -385,385zm0 -846.11c-190.27,0 -345,154.86 -345,345l0 115.97c0,190.27 154.72,345 345,345 190.28,0 345.14,-154.72 345.14,-344.86l0 -115.97c0,-190.41 -154.86,-345.14 -345.14,-345.14z"/>
  <path class="fil1" d="M872.98 2140c-11.11,0 -20,-9.03 -20,-20l0 -181.39c0,-26.33 40,-26.33 40,0l0 181.39c0,11.11 -8.89,20 -20,20z"/>
  <path class="fil1" d="M1816.59 2140c-10.97,0 -20,-9.03 -20,-20l0 -181.39c0,-26.3 40,-26.3 40,0l0 181.39c0,11.11 -9.03,20 -20,20z"/>
  <path class="fil1" d="M2166.72 2140l-1666.66 0c-11.11,0 -20,-9.03 -20,-20 0,-354.69 276.06,-432.5 530,-519.58 24.87,-8.53 37.99,29.34 12.92,37.92 -245.85,84.11 -492.45,153.24 -502.63,461.67l1625.96 0c-10.21,-309.19 -257.54,-377.54 -502.63,-461.94 -24.93,-8.59 -11.98,-46.46 12.92,-37.92 257.91,88.44 527.85,164.34 530,519.58 0.14,11.39 -8.75,20.28 -19.86,20.28z"/>
  <path class="fil1" d="M967.98 1081.25c-23.26,0 -27.67,-33.67 -5,-39.44 2.78,-0.69 275.83,-71.11 354.03,-204.03 9.2,-15.64 33.23,-11.92 36.8,6.25 1.67,8.06 44.58,198.33 339.44,159.3 25.96,-3.38 31.59,36.15 5.28,39.72 -247.92,32.78 -339.3,-87.92 -370,-152.78 -104.15,124.85 -350.72,190.97 -360.55,190.97z"/>
  <path class="fil1" d="M1188.54 1164.59c-15.56,0 -42.36,3.96 -42.36,-20 0,-23.96 26.8,-20 42.36,-20 26.43,0 26.27,40 0,40z"/>
  <path class="fil1" d="M1499.92 1164.59c-15.37,0 -42.36,3.96 -42.36,-20 0,-23.96 27,-20 42.36,-20 26.27,0 26.43,40 0,40z"/>
  <path class="fil1" d="M1765.61 1289.72l-79.44 0c-26.33,0 -26.33,-40 0,-40l79.44 0c24.58,0 44.58,-20 44.58,-44.58l0 -154.03c0,-24.58 -20,-44.58 -44.58,-44.58l-75.28 0c-26.33,0 -26.33,-40 0,-40l75.28 0c46.67,0 84.58,37.92 84.58,84.58l0 154.03c0,46.67 -38.06,84.58 -84.58,84.58z"/>
  <path class="fil1" d="M979.93 1289.72l-73.75 0c-46.67,0 -84.58,-37.92 -84.58,-84.58l0 -154.03c0,-46.67 37.92,-84.58 84.58,-84.58l69.58 0c26.36,0 26.36,40 0,40l-69.58 0c-24.58,0 -44.58,20 -44.58,44.58l0 154.03c0,24.58 20,44.58 44.58,44.58l73.75 0c26.36,0 26.37,40 0,40z"/>
  <path class="fil1" d="M1771.72 1006.67c-24.6,0 -20,-28.73 -20,-46.81 0,-216.8 -186.53,-393.19 -415.83,-393.19 -229.3,0 -415.83,176.39 -415.83,393.19 0,18.27 4.61,46.81 -20,46.81 -24.61,0 -20,-28.54 -20,-46.81 0,-238.89 204.44,-433.19 455.83,-433.19 251.39,0 455.83,194.3 455.83,433.19 0,18.06 4.61,46.81 -20,46.81z"/>
  <path class="fil1" d="M1337.7 1854.58l-8.47 0c-166.39,0 -356.24,-175.42 -356.24,-329.3 0,-45.69 22.64,-90.69 65.56,-130.28 19.33,-17.91 46.38,11.59 27.08,29.44 -24.03,22.08 -52.64,57.64 -52.64,100.83 0,129.72 174.3,289.3 316.24,289.3l8.47 -0c141.81,0 316.25,-159.58 316.25,-289.3 0,-81.89 -81.69,-99.5 -54.3,-129.44 7.5,-8.19 20.14,-8.61 28.19,-1.25 43.19,39.58 65.97,84.86 65.97,130.69 0,153.88 -189.72,329.3 -356.11,329.3z"/>
  <path class="fil1" d="M1337.7 1774.58c-80.37,0 -141.58,-42.58 -174.86,-69.44 -99.31,-80.18 -137.46,-199.86 -89.72,-199.86 11.11,0 20,9.03 20,20 0,84.51 136.57,209.28 236.11,209.3 48.76,0.01 97.44,-18.24 149.72,-60.55 45.69,-36.94 94.86,-99.31 94.86,-148.75 0,-26.3 40,-26.3 40,0 0,105.56 -152.64,249.3 -276.11,249.3z"/>
  <path class="fil1" d="M1071.59 1945.69c-11.11,0 -20,-9.03 -20,-20l0 -225c0,-26.33 40,-26.33 40,0l0 225c0,10.97 -9.03,20 -20,20z"/>
  <path class="fil1" d="M1595.2 1945.69c-10.97,0 -20,-9.03 -20,-20l0 -225c0,-26.3 40,-26.3 40,0l0 225c0,10.97 -8.89,20 -20,20z"/>
  <path class="fil1" d="M1116.59 1945.69l-90 0c-26.33,0 -26.33,-40 0,-40l90 0c26.39,0 26.23,40 0,40z"/>
  <path class="fil1" d="M1640.2 1945.69l-90 0c-26.3,0 -26.3,-40 0,-40l90 0c26.23,0 26.39,40 0,40z"/>
  <path class="fil1" d="M1332.98 1369.3c-41.18,0 -98.57,-32.04 -74.16,-57.78 21.39,-22.56 31.44,17.64 74.17,17.64 42.69,0 52.77,-40.2 74.17,-17.64 24.54,25.87 -33.49,57.78 -74.17,57.78z"/>
  <path class="fil2" d="M1332.98 1329.17c42.69,0 52.77,-40.2 74.17,-17.64 24.54,25.87 -33.49,57.78 -74.17,57.78 -41.18,0 -98.57,-32.04 -74.16,-57.78 21.39,-22.56 31.44,17.64 74.17,17.64zm-345 -252.59l0 100.65c0,190.27 154.72,345 345,345 105.74,0 200.54,-47.78 263.91,-122.86 0.76,-1.16 1.67,-2.33 2.76,-3.52 0.33,-0.36 0.67,-0.7 1.01,-1.03 48.4,-59.37 77.46,-135.09 77.46,-217.44l0 -115.97c0,-5.33 -0.12,-10.63 -0.36,-15.91 -232.29,23.53 -319.4,-92.19 -349.22,-155.2 -88.11,105.62 -278.16,169.21 -340.55,186.3zm511.94 88.01c-15.37,0 -42.36,3.96 -42.36,-20 0,-23.96 27,-20 42.36,-20 26.27,0 26.43,40 0,40zm-311.39 0c-15.56,0 -42.36,3.96 -42.36,-20 0,-23.96 26.8,-20 42.36,-20 26.43,0 26.27,40 0,40z"/>
  <path class="fil3" d="M1614.91 1439.33c-70.35,75.63 -170.71,123.02 -281.93,123.02 -111.28,0 -211.66,-47.45 -282,-123.15 -19.65,21.8 -37.99,51.48 -37.99,86.07 0,129.72 174.3,289.3 316.24,289.3l8.47 -0c141.81,0 316.25,-159.58 316.25,-289.3 0,-42.25 -21.75,-67.39 -39.04,-85.94zm-521.79 85.94c0,84.51 136.57,209.28 236.11,209.3 48.76,0.01 97.44,-18.24 149.72,-60.55 45.69,-36.94 94.86,-99.31 94.86,-148.75 0,-26.3 40,-26.3 40,0 0,105.56 -152.64,249.3 -276.11,249.3 -80.37,0 -141.58,-42.58 -174.86,-69.44 -99.31,-80.18 -137.46,-199.86 -89.72,-199.86 11.11,0 20,9.03 20,20z"/>
  <path class="fil4" d="M1575.2 1750.34c-67.83,61.63 -155.5,104.24 -237.5,104.24l-8.47 0c-82.03,0 -169.76,-42.63 -237.63,-104.3l0 155.41 25 0c26.39,0 26.23,40 0,40l-45 0 -45 0c-26.33,0 -26.33,-40 0,-40l25 0 0 -196.69c-17.54,-20.63 -32.81,-42.52 -45.1,-65.05 -240.27,81.69 -476.19,154.51 -486.15,456.04l332.64 0 0 -161.39c0,-26.33 40,-26.33 40,0l0 161.39 903.6 0 0 -161.39c0,-26.3 40,-26.3 40,0l0 161.39 309.72 0c-9.98,-302.15 -246.4,-374.3 -485.9,-456.2 -12.31,22.61 -27.61,44.58 -45.21,65.27l0 196.62 25 0c26.23,0 26.39,40 0,40l-45 0 -45 0c-26.3,0 -26.3,-40 0,-40l25 0 0 -155.35z"/>
  <path class="fil5" d="M1711.19 1249.72l54.42 0c24.58,0 44.58,-20 44.58,-44.58l0 -154.03c0,-24.58 -20,-44.58 -44.58,-44.58l-51.54 0c2.57,17.92 3.9,36.24 3.9,54.86l0 115.97c0.02,24.73 -2.31,48.92 -6.78,72.36z"/>
  <path class="fil6" d="M1353.81 844.03c1.63,7.87 42.66,189.81 319.81,161.61 -26.72,-163.96 -169.33,-289.39 -340.64,-289.39 -181.23,0 -330.21,140.5 -343.96,318.15 70.53,-21.29 264.17,-88.14 327.99,-196.63 9.2,-15.64 33.23,-11.92 36.8,6.25z"/>
  <path class="fil5" d="M947.98 1177.36l0 -115.97c0,-18.62 1.33,-36.94 3.89,-54.86l-45.7 0c-24.58,0 -44.58,20 -44.58,44.58l0 154.03c0,24.58 20,44.58 44.58,44.58l48.62 0c-4.48,-23.44 -6.82,-47.63 -6.82,-72.36z"/>
 </g>
</svg>
