<?xml version="1.0" encoding="utf-8"?>
<!-- Generator: Adobe Illustrator 24.3.0, SVG Export Plug-In . SVG Version: 6.00 Build 0)  -->
<svg version="1.1" id="Layer_1" xmlns="http://www.w3.org/2000/svg" xmlns:xlink="http://www.w3.org/1999/xlink" x="0px" y="0px"
	 viewBox="0 0 64 64" enable-background="new 0 0 64 64" xml:space="preserve">
<circle fill="#A9D3F5" cx="48.5" cy="37.5" r="6.5"/>
<circle fill="#A9D3F5" cx="17" cy="40" r="7"/>
<circle fill="#A9D3F5" cx="27.5" cy="36.5" r="8.5"/>
<path fill="#0A5FA2" d="M61,43H3v0c0-2.2,1.8-4,4-4h50C59.2,39,61,40.8,61,43L61,43z"/>
<path fill="#0A5FA2" d="M7,43l2.4,14.7c0.3,1.9,2,3.3,3.9,3.3h37.2c2,0,3.6-1.4,3.9-3.3L57,43H7z"/>
<circle fill="#A9D3F5" cx="16" cy="21" r="2"/>
<circle fill="#A9D3F5" cx="7" cy="14" r="4"/>
<path fill="#084E85" d="M13.4,60.7L13.4,60.7C12.2,53,18.1,46,25.9,46h30.6l0.5-3H7l2.4,14.7c0.3,1.9,2,3.3,3.9,3.3h0.1
	C13.5,60.9,13.5,60.8,13.4,60.7z"/>
<path fill="#F2C720" d="M51.4,18L50,15h-5c0,2.8-2.2,5-5,5s-5-2.2-5-5h-5l-1.4,3L25,26l5,2v12h12v2c0,1.1,0.9,2,2,2s2-0.9,2-2v3
	c0,1.1,0.9,2,2,2s2-0.9,2-2v-5V28l5-2L51.4,18z"/>
<path fill="#E3BB1E" d="M47.7,42c-1-0.2-1.7-1.1-1.7-2.1v-0.1c0-0.7-0.7-1.1-1.3-0.9c-0.7,0.2-1.6,0.1-2.4-0.6
	c-0.2-0.2-0.3-0.4-0.3-0.7V36c0-0.5-0.4-1-1-1h-4.1c-1.6,0-2.9-1.3-2.9-2.9l0-2c0-1.3-0.8-2.4-2-2.9c-1.6-0.7-2.4-2.6-1.7-4.2l2.3-5
	l1.4-3h-4l-1.4,3L25,26l5,2v12h12v1.9c0,1,0.7,1.9,1.7,2.1c1.3,0.2,2.3-0.8,2.3-2v2.9c0,1,0.7,1.9,1.7,2.1c1.3,0.2,2.3-0.8,2.3-2v-5
	C50,41.2,48.9,42.2,47.7,42z"/>
<path fill="#F2C09D" d="M56,8V2h-6v6l-3,2v2h3v4c0,1.1,0.9,2,2,2h4c1.1,0,2-0.9,2-2v-5L56,8z"/>
<path fill="#F2C09D" d="M30,8V2h-6v6l-2,3v5c0,1.1,0.9,2,2,2h4c1.1,0,2-0.9,2-2v-4h3v-2L30,8z"/>
</svg>
