<?xml version="1.0" encoding="UTF-8" standalone="no"?> <svg xmlns="http://www.w3.org/2000/svg" width="452.084" height="512" viewBox="0 0 452.084 512">
  <g id="Layer_x0020_1" transform="translate(-123.957 -94.001)">
    <g id="_846459344">
      <path id="_521852856" d="M409.574,96.827c2.745,13.124,8.935,24.456,17.3,32.446C434.964,137.008,445.1,141.6,456.1,141.6c11.059,0,21.254-4.654,29.371-12.478,8.375-8.075,14.554-19.506,17.243-32.708a2.788,2.788,0,0,1,4.33-1.923c32.108,22.105,50,27.874,58.955,30.759,11.839,3.816,11.851,3.822,6.995,17.178-1.871,5.146-3.907,11.109-5.949,17.093-6.41,18.781-12.891,37.769-17.967,38.911l-.611-2.724.612,2.733a2.755,2.755,0,0,1-.347.056c-4.7.8-22.538-.338-29.694-.843V330.223a2.8,2.8,0,0,1-2.791,2.8H396.815a2.8,2.8,0,0,1-2.792-2.8V197.652c-7.155.506-24.991,1.646-29.692.843a2.773,2.773,0,0,1-.348-.056l.611-2.733-.611,2.724c-5.075-1.141-11.558-20.137-17.969-38.919-2.041-5.981-4.076-11.941-5.947-17.086-4.856-13.355-4.856-13.356,6.976-17.169C355.918,122.4,373.6,116.7,405.259,95a2.788,2.788,0,0,1,4.315,1.825Z" fill="#ee404b"/>
      <path id="_521852976" d="M146.373,207.606H422.126a22.468,22.468,0,0,1,22.415,22.415V583.587A22.468,22.468,0,0,1,422.126,606H146.373a22.468,22.468,0,0,1-22.415-22.414V230.021a22.467,22.467,0,0,1,22.415-22.415Z" fill="#407093"/>
      <path id="_521853288" d="M444.541,286.784v9.336H123.958v-9.336Z" fill="#345b77"/>
      <path id="_521853480" d="M252.962,207.606H262.3v83.847a4.669,4.669,0,0,1-9.338,0V207.606Z" fill="#345b77"/>
      <path id="_846452408" d="M335.673,606h-9.338V557.134a4.669,4.669,0,0,1,9.338,0V606Z" fill="#345b77"/>
      <path id="_846452360" d="M444.541,552.465V561.8H123.958v-9.338Z" fill="#345b77"/>
      <path id="_846452168" d="M284.249,321.338A108.772,108.772,0,1,1,207.333,353.2a108.442,108.442,0,0,1,76.916-31.859Z" fill="#a2aab2"/>
      <path id="_846452792" d="M284.249,337.291a92.821,92.821,0,1,1-65.633,27.187,92.533,92.533,0,0,1,65.633-27.187Z" fill="#3fd7fd"/>
      <path id="_846452552" d="M162.241,233.885a4.668,4.668,0,1,0,0,9.337H223.33a4.668,4.668,0,1,0,0-9.337Z" fill="#edf4ff"/>
      <path id="_846452672" d="M281.52,237.979a4.669,4.669,0,1,0,0,9.338h17.575a4.669,4.669,0,1,0,0-9.338Z" fill="#edf4ff"/>
      <path id="_846452192" d="M316.073,237.979a4.669,4.669,0,1,0,0,9.338h17.576a4.669,4.669,0,1,0,0-9.338Z" fill="#edf4ff"/>
      <path id="_846452480" d="M281.52,252.483a4.669,4.669,0,1,0,0,9.338h17.575a4.669,4.669,0,1,0,0-9.338H281.52Z" fill="#edf4ff"/>
      <path id="_846452720" d="M316.073,252.483a4.669,4.669,0,1,0,0,9.338h17.576a4.669,4.669,0,1,0,0-9.338H316.073Z" fill="#edf4ff"/>
      <path id="_846452576" d="M281.52,266.988a4.669,4.669,0,0,0,0,9.338h17.575a4.669,4.669,0,1,0,0-9.338Z" fill="#edf4ff"/>
      <path id="_846451544" d="M316.073,266.988a4.669,4.669,0,0,0,0,9.338h17.576a4.669,4.669,0,1,0,0-9.338Z" fill="#edf4ff"/>
      <path id="_846451952" d="M393.459,228.808a21.733,21.733,0,1,1-15.366,6.365A21.672,21.672,0,0,1,393.459,228.808Z" fill="#b3e59f"/>
      <path id="_846451760" d="M226.17,420.98a4.662,4.662,0,0,0,9.008,2.408,51.122,51.122,0,0,1,49.09-37.895,4.651,4.651,0,0,0-.037-9.3A60.448,60.448,0,0,0,226.17,420.98Z" fill="#e6e6e6"/>
      <path id="_846451880" d="M221.713,455.613a4.669,4.669,0,0,0,0,9.338h97.534a4.669,4.669,0,0,0,0-9.338H221.713Z" fill="#e6e6e6"/>
      <path id="_846451712" d="M318.931,488.871a4.669,4.669,0,0,0,0,9.338,16.9,16.9,0,0,0,13.146-6.6,24.062,24.062,0,0,0,0-29.388,16.9,16.9,0,0,0-13.146-6.6,4.669,4.669,0,0,0,0,9.338,7.749,7.749,0,0,1,5.924,3.138,14.9,14.9,0,0,1,0,17.643,7.749,7.749,0,0,1-5.924,3.138Z" fill="#e6e6e6"/>
      <path id="_846452024" d="M223.158,431.777a4.669,4.669,0,0,0,0,9.338h82.408a4.669,4.669,0,0,0,0-9.338H223.158Z" fill="#e6e6e6"/>
      <path id="_846451808" d="M305.3,398.519a4.668,4.668,0,0,0,0,9.337c1.442,0,2.889,1.075,4.059,2.811a18.127,18.127,0,0,1,0,18.3c-1.169,1.735-2.616,2.81-4.059,2.81a4.669,4.669,0,0,0,0,9.338c4.747,0,8.906-2.65,11.792-6.931a27.313,27.313,0,0,0,0-28.735c-2.887-4.281-7.045-6.931-11.792-6.931Z" fill="#e6e6e6"/>
      <path id="_846451376" d="M212.8,444.25a4.668,4.668,0,1,0,0,9.337H330.128a4.668,4.668,0,1,0,0-9.337H212.8Z" fill="#e6e6e6"/>
      <path id="_846451616" d="M329.865,410.991a4.668,4.668,0,0,0,0,9.337c1.443,0,2.89,1.075,4.058,2.81a18.12,18.12,0,0,1,0,18.3c-1.169,1.736-2.616,2.811-4.058,2.811a4.668,4.668,0,0,0,0,9.337c4.746,0,8.906-2.649,11.792-6.931a27.32,27.32,0,0,0,0-28.735c-2.887-4.28-7.046-6.93-11.792-6.93Z" fill="#e6e6e6"/>
      <path id="_846451520" d="M415.191,250.54a21.735,21.735,0,0,0-39.314-12.775,21.734,21.734,0,0,1,28.806,31.388,21.752,21.752,0,0,0,10.508-18.613Z" fill="#a1ce8f" fill-rule="evenodd"/>
    </g>
  </g>
</svg>
