<?xml version="1.0" encoding="UTF-8" standalone="no"?> <svg id="Layer_2" data-name="Layer 2" xmlns="http://www.w3.org/2000/svg" viewBox="0 0 64 64"><defs><style>.cls-1{fill:#fe9801;}.cls-2{fill:#ccda46;}.cls-3{fill:#f4eec7;}</style></defs><title>1</title><path class="cls-1" d="M39.5,3h-15a4,4,0,0,0-4,4,1,1,0,0,0,1,1H24v9a1,1,0,0,0,1,1H39a1,1,0,0,0,1-1V8h2.5a1,1,0,0,0,1-1A4,4,0,0,0,39.5,3ZM38,16H26V8H38Z"/><path class="cls-2" d="M48.5,21.67V52.33A5.67,5.67,0,0,1,42.83,58H42v2a1,1,0,0,1-2,0V58H24v2a1,1,0,0,1-2,0V58h-.83a5.67,5.67,0,0,1-5.67-5.67V21.67A5.67,5.67,0,0,1,21.17,16H42.83A5.67,5.67,0,0,1,48.5,21.67Z"/><path class="cls-3" d="M48.5,25v2H37.79a2.51,2.51,0,0,1-2.29,1.5H33V58H31V28.5H28.5A2.51,2.51,0,0,1,26.21,27H15.5V25H26.21a2.51,2.51,0,0,1,2.29-1.5h7A2.51,2.51,0,0,1,37.79,25Z"/></svg>