<?xml version="1.0" encoding="UTF-8" standalone="no"?> <svg xmlns="http://www.w3.org/2000/svg" viewBox="0 0 48 48"><defs><style>.cls-1{fill:#009ae0;}.cls-2{fill:#eaeff0;}</style></defs><g id="Rug"><rect class="cls-1" x="9" y="6" width="30" height="36"/><path class="cls-2" d="M35,35V13a3,3,0,0,1-3-3H16a3,3,0,0,1-3,3V35a3,3,0,0,1,3,3H32A3,3,0,0,1,35,35Z"/><polygon class="cls-1" points="24 15 18 24 24 33 30 24 24 15"/><path d="M39,1a1,1,0,0,0-1,1V5H35V2a1,1,0,0,0-2,0V5H30V2a1,1,0,0,0-2,0V5H25V2a1,1,0,0,0-2,0V5H20V2a1,1,0,0,0-2,0V5H15V2a1,1,0,0,0-2,0V5H10V2A1,1,0,0,0,8,2V46a1,1,0,0,0,2,0V43h3v3a1,1,0,0,0,2,0V43h3v3a1,1,0,0,0,2,0V43h3v3a1,1,0,0,0,2,0V43h3v3a1,1,0,0,0,2,0V43h3v3a1,1,0,0,0,2,0V43h3v3a1,1,0,0,0,2,0V2A1,1,0,0,0,39,1ZM10,41V7H38V41Z"/><path d="M35,12a2,2,0,0,1-2-2,1,1,0,0,0-1-1H16a1,1,0,0,0-1,1,2,2,0,0,1-2,2,1,1,0,0,0-1,1V35a1,1,0,0,0,1,1,2,2,0,0,1,2,2,1,1,0,0,0,1,1H32a1,1,0,0,0,1-1,2,2,0,0,1,2-2,1,1,0,0,0,1-1V13A1,1,0,0,0,35,12ZM34,34.127A4.015,4.015,0,0,0,31.126,37H16.874A4.015,4.015,0,0,0,14,34.127V13.873A4.015,4.015,0,0,0,16.874,11H31.126A4.015,4.015,0,0,0,34,13.873Z"/><path d="M24.832,14.445a1.039,1.039,0,0,0-1.664,0l-6,9a1,1,0,0,0,0,1.11l6,9a1,1,0,0,0,1.664,0l6-9a1,1,0,0,0,0-1.11ZM24,31.2,19.2,24,24,16.8,28.8,24Z"/></g></svg>