<?xml version="1.0" encoding="UTF-8" standalone="no"?> <svg xmlns="http://www.w3.org/2000/svg" viewBox="0 0 64 64"><g id="Flat"><rect x="2" y="3" width="60" height="59" style="fill:#e6e6e6"/><path d="M32,5h0A12,12,0,0,1,44,17V59a0,0,0,0,1,0,0H20a0,0,0,0,1,0,0V17A12,12,0,0,1,32,5Z" style="fill:#a67c52"/><path d="M24,19H40V17a8,8,0,0,0-8-8h0a8,8,0,0,0-8,8Z" style="fill:#8cd8e0"/><rect x="24" y="19" width="8" height="8" style="fill:#82d1df"/><rect x="32" y="19" width="8" height="8" style="fill:#65c4ce"/><rect x="32" y="27" width="8" height="8" style="fill:#82d1df"/><rect x="24" y="27" width="8" height="8" style="fill:#65c4ce"/><rect x="24" y="35" width="8" height="8" style="fill:#82d1df"/><rect x="32" y="35" width="8" height="8" style="fill:#65c4ce"/><rect x="32" y="43" width="8" height="8" style="fill:#82d1df"/><rect x="24" y="43" width="8" height="8" style="fill:#65c4ce"/><rect x="24" y="54" width="16" height="2" style="fill:#29485a"/><path d="M2,3H16a2,2,0,0,1,2,2V61l-1.5-1.5a2.122,2.122,0,0,0-3,0h0a2.122,2.122,0,0,1-3,0h0a2.122,2.122,0,0,0-3,0h0a2.122,2.122,0,0,1-3,0h0A2.121,2.121,0,0,0,2,59.129" style="fill:#039791"/><path d="M62,3H48a2,2,0,0,0-2,2V61l1.5-1.5a2.122,2.122,0,0,1,3,0h0a2.122,2.122,0,0,0,3,0h0a2.122,2.122,0,0,1,3,0h0a2.122,2.122,0,0,0,3,0h0a2.121,2.121,0,0,1,2.5-.371" style="fill:#039791"/><rect x="10" y="3" width="2" height="23" style="fill:#00807c"/><rect x="4" y="3" width="2" height="32" style="fill:#00807c"/><rect x="8" y="41" width="2" height="18" style="fill:#00807c"/><rect x="51" y="35" width="2" height="25" style="fill:#00807c"/><rect x="60" y="29" width="2" height="30" style="fill:#00807c"/><rect x="51" y="3" width="2" height="7" style="fill:#00807c"/><rect x="56" y="3" width="2" height="22" style="fill:#00807c"/></g><g id="Outline"><path d="M32,8a9.01,9.01,0,0,0-9,9V51a1,1,0,0,0,1,1H40a1,1,0,0,0,1-1V17A9.01,9.01,0,0,0,32,8Zm7,12v6H33V20Zm0,14H33V28h6Zm-8,0H25V28h6Zm-6,2h6v6H25Zm8,0h6v6H33ZM31,26H25V20h6ZM25,44h6v6H25Zm14,6H33V44h6Zm0-32H25V17a7,7,0,0,1,14,0Z"/><path d="M40,54H24a1,1,0,0,0,0,2H40a1,1,0,0,0,0-2Z"/><path d="M62,29H60V58.044a3.124,3.124,0,0,0-1.207.749,1.148,1.148,0,0,1-1.586,0A3.192,3.192,0,0,0,53,58.626V35H51V58.624a3.192,3.192,0,0,0-4-.021V5a1,1,0,0,1,1-1h3v6h2V4h3V25h2V4h4V2H48a3,3,0,0,0-2.816,2H18.816A3,3,0,0,0,16,2H2V4H4V35H6V4h4V26h2V4h4a1,1,0,0,1,1,1V58.6a3.194,3.194,0,0,0-4.207.19,1.148,1.148,0,0,1-1.586,0A2.97,2.97,0,0,0,10,58.076V41H8V58.076a2.97,2.97,0,0,0-1.207.717,1.148,1.148,0,0,1-1.586,0,3.1,3.1,0,0,0-3.679-.546l.944,1.763a1.13,1.13,0,0,1,1.321.2,3.194,3.194,0,0,0,4.414,0,1.148,1.148,0,0,1,1.586,0,3.194,3.194,0,0,0,4.414,0,1.148,1.148,0,0,1,1.586,0l1.5,1.5A1,1,0,0,0,19,61V59a1,1,0,0,0,1,1H44a1,1,0,0,0,1-1v2a1,1,0,0,0,1.707.707l1.5-1.5a1.148,1.148,0,0,1,1.586,0,3.194,3.194,0,0,0,4.414,0,1.148,1.148,0,0,1,1.586,0,3.194,3.194,0,0,0,4.414,0,1.129,1.129,0,0,1,1.321-.2l.944-1.763a3.05,3.05,0,0,0-.472-.2ZM19,17V6h6.1A12.988,12.988,0,0,0,19,17ZM43,58H21V17a11,11,0,0,1,22,0ZM38.9,6H45V17A12.988,12.988,0,0,0,38.9,6Z"/></g></svg>