<?xml version="1.0" encoding="UTF-8" standalone="no"?> <svg xmlns="http://www.w3.org/2000/svg" viewBox="0 0 64 64"><defs><style>.cls-1{fill:#e6ebce;}.cls-2{fill:none;}.cls-2,.cls-4,.cls-5,.cls-6,.cls-7,.cls-8,.cls-9{stroke:#4c241d;stroke-linecap:round;stroke-linejoin:round;stroke-width:2px;}.cls-3{fill:#4c241d;}.cls-4{fill:#e66353;}.cls-5{fill:#ffce56;}.cls-6{fill:#6b4f5b;}.cls-7{fill:#9dc1e4;}.cls-8{fill:#a9ba5a;}.cls-9{fill:#bd53b5;}</style></defs><g id="carpet"><circle class="cls-1" cx="37.5" cy="24.5" r="21.5"/><circle class="cls-2" cx="40" cy="6" r="2"/><circle class="cls-3" cx="52.04" cy="13.01" r="1.07"/><line class="cls-2" x1="28" y1="10" x2="31" y2="13"/><line class="cls-2" x1="31" y1="10" x2="28" y2="13"/><rect class="cls-4" x="15" y="20" width="36" height="33"/><rect class="cls-5" x="15" y="26" width="32" height="21"/><line class="cls-2" x1="56" y1="21" x2="51" y2="21"/><line class="cls-2" x1="56" y1="24" x2="51" y2="24"/><line class="cls-2" x1="56" y1="27" x2="51" y2="27"/><line class="cls-2" x1="56" y1="30" x2="51" y2="30"/><line class="cls-2" x1="56" y1="33" x2="51" y2="33"/><line class="cls-2" x1="56" y1="36" x2="51" y2="36"/><line class="cls-2" x1="56" y1="39" x2="51" y2="39"/><line class="cls-2" x1="56" y1="42" x2="51" y2="42"/><line class="cls-2" x1="56" y1="45" x2="51" y2="45"/><line class="cls-2" x1="56" y1="48" x2="51" y2="48"/><line class="cls-2" x1="56" y1="51" x2="51" y2="51"/><path class="cls-4" d="M11,8c-2.21,0-4,.9-4,2V53h8V10C15,8.9,13.21,8,11,8Z"/><ellipse class="cls-6" cx="11" cy="53" rx="4" ry="2"/><circle class="cls-3" cx="19" cy="23" r="1"/><circle class="cls-3" cx="23" cy="23" r="1"/><circle class="cls-3" cx="27" cy="23" r="1"/><circle class="cls-3" cx="31" cy="23" r="1"/><circle class="cls-3" cx="35" cy="23" r="1"/><circle class="cls-3" cx="39" cy="23" r="1"/><circle class="cls-3" cx="43" cy="23" r="1"/><circle class="cls-3" cx="47" cy="23" r="1"/><circle class="cls-3" cx="19" cy="50" r="1"/><circle class="cls-3" cx="23" cy="50" r="1"/><circle class="cls-3" cx="27" cy="50" r="1"/><circle class="cls-3" cx="31" cy="50" r="1"/><circle class="cls-3" cx="35" cy="50" r="1"/><circle class="cls-3" cx="39" cy="50" r="1"/><circle class="cls-3" cx="43" cy="50" r="1"/><circle class="cls-3" cx="47" cy="50" r="1"/><rect class="cls-7" x="20" y="34" width="4" height="4" transform="translate(-19.01 26.1) rotate(-45)"/><rect class="cls-8" x="29" y="34" width="4" height="4" transform="translate(-16.38 32.46) rotate(-45)"/><rect class="cls-9" x="38" y="34" width="4" height="4" transform="translate(-13.74 38.83) rotate(-45)"/></g></svg>