<?xml version="1.0" encoding="UTF-8" standalone="no"?> <svg width="512" height="512" viewBox="0 0 512 512" fill="none" xmlns="http://www.w3.org/2000/svg">
<path d="M80 248C93.2548 248 104 237.255 104 224C104 210.745 93.2548 200 80 200C66.7452 200 56 210.745 56 224C56 237.255 66.7452 248 80 248Z" fill="#FAA6B2"/>
<path d="M264.478 183.111L285.276 207.431L267.037 223.029C263.812 225.788 259.623 227.152 255.393 226.821C251.162 226.491 247.236 224.494 244.478 221.269C241.72 218.044 240.356 213.856 240.686 209.625C241.016 205.395 243.013 201.468 246.238 198.71L264.478 183.111Z" stroke="black" stroke-width="16" stroke-linecap="round" stroke-linejoin="round"/>
<path d="M202.384 152L192.484 160.47C190.887 161.836 189.575 163.502 188.622 165.375C187.67 167.248 187.095 169.29 186.932 171.385C186.768 173.48 187.019 175.586 187.67 177.584C188.32 179.582 189.358 181.432 190.724 183.029C192.09 184.626 193.756 185.938 195.629 186.891C197.502 187.844 199.544 188.418 201.639 188.582C203.734 188.745 205.84 188.495 207.838 187.844C209.836 187.193 211.686 186.156 213.283 184.79L219.362 179.59C217.765 180.956 216.453 182.623 215.5 184.495C214.548 186.368 213.973 188.41 213.81 190.505C213.646 192.6 213.897 194.706 214.548 196.704C215.198 198.702 216.236 200.552 217.602 202.149C218.968 203.746 220.634 205.058 222.507 206.011C224.38 206.964 226.422 207.538 228.517 207.702C230.612 207.865 232.718 207.615 234.716 206.964C236.714 206.313 238.564 205.276 240.161 203.91L264.48 183.11L285.28 207.43L333.919 165.83L359.999 122.473L378.238 106.873L321.036 40L284.557 71.2L259.336 57.978C250.911 53.5624 241.344 51.8054 231.9 52.939V52.939C222.681 54.0453 213.996 57.8561 206.94 63.891L187.362 80.634C188.272 84.2916 190.102 87.6558 192.677 90.4073C195.253 93.1588 198.49 95.2062 202.08 96.355C205.669 97.5038 209.493 97.7159 213.188 96.9712C216.882 96.2265 220.326 94.5497 223.19 92.1V92.1L202.08 110.153L165.601 141.353C164.004 142.719 162.692 144.386 161.739 146.258C160.787 148.131 160.212 150.173 160.049 152.268C159.719 156.499 161.083 160.688 163.841 163.913C166.6 167.137 170.526 169.135 174.757 169.464C178.988 169.794 183.176 168.43 186.401 165.672L202.384 152Z" fill="#F6BB92"/>
<path d="M320 80C298.188 84.8473 278.074 95.452 261.751 110.71C245.428 125.969 233.493 145.323 227.188 166.759V166.759C214.462 210.029 208.001 254.898 208 300V312H336V265.239C336 228.302 349.212 192.584 373.25 164.539L384 152L320 80Z" fill="#008DF6"/>
<path d="M304 256C301.878 256 299.843 256.843 298.343 258.343C296.843 259.843 296 261.878 296 264V296C296 298.122 296.843 300.157 298.343 301.657C299.843 303.157 301.878 304 304 304C306.122 304 308.157 303.157 309.657 301.657C311.157 300.157 312 298.122 312 296V264C312 261.878 311.157 259.843 309.657 258.343C308.157 256.843 306.122 256 304 256V256Z" fill="#0060C1"/>
<path d="M272 240C269.878 240 267.843 240.843 266.343 242.343C264.843 243.843 264 245.878 264 248V296C264 298.122 264.843 300.157 266.343 301.657C267.843 303.157 269.878 304 272 304C274.122 304 276.157 303.157 277.657 301.657C279.157 300.157 280 298.122 280 296V248C280 245.878 279.157 243.843 277.657 242.343C276.157 240.843 274.122 240 272 240Z" fill="#0060C1"/>
<path d="M240 224C237.878 224 235.843 224.843 234.343 226.343C232.843 227.843 232 229.878 232 232V296C232 298.122 232.843 300.157 234.343 301.657C235.843 303.157 237.878 304 240 304C242.122 304 244.157 303.157 245.657 301.657C247.157 300.157 248 298.122 248 296V232C248 229.878 247.157 227.843 245.657 226.343C244.157 224.843 242.122 224 240 224Z" fill="#0060C1"/>
<path d="M425.036 24L400.158 43.319C396.698 46.0057 392.538 47.6407 388.175 48.0289C383.811 48.4172 379.428 47.5425 375.548 45.509L363.336 39.109C355.011 34.7449 345.569 32.9758 336.229 34.0297C326.889 35.0837 318.079 38.9125 310.936 45.022L291.362 61.764C292.272 65.4216 294.101 68.7858 296.677 71.5374C299.253 74.2889 302.489 76.3363 306.079 77.4851C309.668 78.6339 313.492 78.846 317.187 78.1013C320.882 77.3566 324.325 75.6797 327.189 73.23L269.944 122.187C263.397 127.787 262.066 137.636 267.352 144.44C268.679 146.153 270.339 147.578 272.233 148.629C274.127 149.681 276.215 150.337 278.37 150.558C280.525 150.778 282.703 150.559 284.771 149.913C286.838 149.267 288.754 148.208 290.4 146.8L296.48 141.6C293.255 144.358 291.258 148.284 290.928 152.515C290.598 156.745 291.962 160.933 294.72 164.158C296.085 165.755 297.752 167.067 299.625 168.02C301.498 168.973 303.54 169.547 305.635 169.711C307.729 169.874 309.836 169.624 311.834 168.973C313.832 168.322 315.682 167.285 317.279 165.919L323.358 160.719C321.712 162.127 320.368 163.855 319.409 165.797C318.451 167.74 317.896 169.857 317.78 172.02C317.664 174.183 317.988 176.348 318.733 178.382C319.478 180.416 320.629 182.278 322.115 183.854C328.015 190.131 337.953 190.344 344.5 184.745L350.236 179.839C348.639 181.205 347.327 182.871 346.374 184.744C345.422 186.617 344.847 188.659 344.684 190.754C344.52 192.849 344.771 194.955 345.422 196.953C346.072 198.951 347.11 200.801 348.476 202.398V202.398C349.842 203.995 351.508 205.307 353.381 206.26C355.254 207.212 357.296 207.787 359.391 207.95C361.486 208.114 363.592 207.863 365.59 207.212C367.588 206.561 369.438 205.524 371.035 204.158L389.274 188.558L428.012 155.429C434.569 149.821 440.18 143.193 444.628 135.8L463.992 103.607L480 88.008L425.036 24Z" fill="#FDC9A6"/>
<path d="M160 320C159.999 311.435 162.746 303.095 167.839 296.209C172.932 289.322 180.101 284.252 188.291 281.745C196.481 279.238 205.26 279.426 213.335 282.281C221.41 285.137 228.355 290.509 233.149 297.607C236.578 294.106 240.765 291.439 245.387 289.813C250.01 288.187 254.944 287.644 259.81 288.227C264.676 288.81 269.342 290.503 273.45 293.175C277.557 295.847 280.996 299.427 283.501 303.639C287.247 295.285 293.744 288.469 301.91 284.329C310.075 280.188 319.413 278.974 328.366 280.889C337.318 282.804 345.343 287.731 351.1 294.849C356.858 301.967 359.999 310.845 360 320V328H160V320Z" fill="#FFD6DB"/>
<path d="M456 328H56C47.1634 328 40 335.163 40 344C40 352.837 47.1634 360 56 360H456C464.837 360 472 352.837 472 344C472 335.163 464.837 328 456 328Z" fill="#FBB540"/>
<path d="M356.081 488H155.919C134.958 488 114.718 480.345 99.0039 466.472C83.2897 452.6 73.1829 433.466 70.583 412.667L64 360H448L441.417 412.667C438.817 433.466 428.71 452.6 412.996 466.472C397.282 480.345 377.042 488 356.081 488V488Z" fill="#EA9D2D"/>
<path d="M128 400H112C109.878 400 107.843 399.157 106.343 397.657C104.843 396.157 104 394.122 104 392C104 389.878 104.843 387.843 106.343 386.343C107.843 384.843 109.878 384 112 384H128C130.122 384 132.157 384.843 133.657 386.343C135.157 387.843 136 389.878 136 392C136 394.122 135.157 396.157 133.657 397.657C132.157 399.157 130.122 400 128 400Z" fill="#FBB540"/>
<path d="M200 400H160C157.878 400 155.843 399.157 154.343 397.657C152.843 396.157 152 394.122 152 392C152 389.878 152.843 387.843 154.343 386.343C155.843 384.843 157.878 384 160 384H200C202.122 384 204.157 384.843 205.657 386.343C207.157 387.843 208 389.878 208 392C208 394.122 207.157 396.157 205.657 397.657C204.157 399.157 202.122 400 200 400Z" fill="#FBB540"/>
<path d="M108 280C123.464 280 136 267.464 136 252C136 236.536 123.464 224 108 224C92.536 224 80 236.536 80 252C80 267.464 92.536 280 108 280Z" fill="#FFD6DB"/>
<path d="M416 296C424.837 296 432 288.837 432 280C432 271.163 424.837 264 416 264C407.163 264 400 271.163 400 280C400 288.837 407.163 296 416 296Z" fill="#FAA6B2"/>
<path d="M464 248C477.255 248 488 237.255 488 224C488 210.745 477.255 200 464 200C450.745 200 440 210.745 440 224C440 237.255 450.745 248 464 248Z" fill="#FFD6DB"/>
<path d="M296 328V372C296 379.426 298.95 386.548 304.201 391.799C309.452 397.05 316.574 400 324 400C331.426 400 338.548 397.05 343.799 391.799C349.05 386.548 352 379.426 352 372V368C355.924 368.001 359.71 366.553 362.632 363.934C366.245 366.357 370.448 367.752 374.792 367.971C379.136 368.19 383.458 367.224 387.296 365.177C391.134 363.13 394.343 360.078 396.581 356.348C398.818 352.618 400 348.35 400 344V328H296Z" fill="#FAA6B2"/>
<path d="M56 368H56.938L62.646 413.659C65.5177 436.38 76.5732 457.276 93.7424 472.433C110.912 487.59 133.017 495.968 155.919 496H356.081C378.983 495.968 401.088 487.59 418.258 472.433C435.427 457.276 446.482 436.38 449.354 413.659L455.062 368H456C462.365 368 468.47 365.471 472.971 360.971C477.471 356.47 480 350.365 480 344C480 337.635 477.471 331.53 472.971 327.029C468.47 322.529 462.365 320 456 320H368C367.994 311.579 365.773 303.308 361.561 296.016C357.348 288.725 351.292 282.67 344 278.458V265.239C343.988 248.013 347.023 230.92 352.967 214.752C354.845 215.38 356.793 215.774 358.767 215.927C359.404 215.977 360.039 216.002 360.672 216.001C366.382 216.008 371.904 213.963 376.232 210.239L394.472 194.639H394.478L443.111 153.046C443.764 152.487 444.324 151.827 444.767 151.09L470.314 108.619L485.582 93.741C487.039 92.321 487.901 90.399 487.991 88.3662C488.081 86.3334 487.394 84.3426 486.068 82.799L431.105 18.788C429.767 17.2301 427.881 16.2465 425.838 16.0406C423.795 15.8347 421.751 16.4224 420.129 17.682L387.714 42.854L367.05 32.022C357.309 26.9168 346.262 24.8473 335.334 26.0804C324.406 27.3135 314.098 31.7926 305.74 38.94L286.162 55.684C285.313 56.4111 284.626 57.3081 284.145 58.317C283.664 59.326 283.399 60.4246 283.369 61.542L263.05 50.892C253.309 45.7867 242.262 43.7172 231.334 44.9505C220.406 46.1838 210.098 50.6632 201.74 57.811L182.162 74.555C181.033 75.5206 180.195 76.7816 179.743 78.1965C179.29 79.6114 179.24 81.1244 179.599 82.566C180.741 87.2285 182.989 91.5476 186.152 95.1581C189.316 98.7686 193.302 101.564 197.774 103.309L160.4 135.271C156.792 138.356 154.181 142.442 152.895 147.011C151.61 151.581 151.708 156.429 153.178 160.942C154.648 165.456 157.423 169.432 161.153 172.368C164.883 175.305 169.4 177.069 174.132 177.438C174.77 177.487 175.405 177.512 176.038 177.512C177.138 177.505 178.237 177.422 179.326 177.264C180.339 182.406 183.007 187.075 186.923 190.558C190.838 194.042 195.785 196.149 201.01 196.558C201.648 196.607 202.283 196.632 202.916 196.632C205.903 196.63 208.862 196.066 211.64 194.969C205.959 220.319 202.341 246.087 200.823 272.021C200.548 272.021 200.275 272 199.999 272C187.273 272.015 175.073 277.076 166.074 286.075C157.075 295.074 152.014 307.274 151.999 320H56C49.6348 320 43.5303 322.529 39.0294 327.029C34.5286 331.53 32 337.635 32 344C32 350.365 34.5286 356.47 39.0294 360.971C43.5303 365.471 49.6348 368 56 368V368ZM408 344V336H456C458.122 336 460.157 336.843 461.657 338.343C463.157 339.843 464 341.878 464 344C464 346.122 463.157 348.157 461.657 349.657C460.157 351.157 458.122 352 456 352H406.987C407.661 349.387 408.002 346.699 408 344V344ZM438.938 368L433.478 411.675C431.095 430.529 421.921 447.867 407.674 460.444C393.427 473.021 375.085 479.974 356.081 480H155.919C136.915 479.974 118.571 473.022 104.324 460.445C90.0766 447.868 80.9023 430.529 78.519 411.675L73.062 368H288V372C288.007 381.313 291.622 390.262 298.087 396.965C304.553 403.669 313.364 407.606 322.671 407.95C331.978 408.294 341.056 405.018 347.998 398.809C354.94 392.601 359.206 383.943 359.9 374.656C360.989 374.274 362.049 373.814 363.072 373.28C368.66 375.746 374.838 376.559 380.875 375.624C386.911 374.688 392.552 372.042 397.132 368H438.938ZM392 336V344C392 346.899 391.213 349.744 389.721 352.23C388.23 354.717 386.091 356.751 383.534 358.116C380.976 359.481 378.095 360.126 375.2 359.981C372.304 359.836 369.503 358.907 367.094 357.293C365.62 356.302 363.858 355.831 362.086 355.952C360.315 356.073 358.634 356.78 357.308 357.962C355.854 359.278 353.961 360.005 352 360C349.878 360 347.843 360.843 346.343 362.343C344.843 363.843 344 365.878 344 368V372C344 377.304 341.893 382.391 338.142 386.142C334.391 389.893 329.304 392 324 392C318.696 392 313.609 389.893 309.858 386.142C306.107 382.391 304 377.304 304 372V336H392ZM316.139 51.1C322.067 46.0306 329.377 42.8536 337.128 41.9788C344.879 41.104 352.713 42.5715 359.622 46.192L384.843 59.412C386.202 60.1245 387.738 60.431 389.266 60.295C390.795 60.159 392.252 59.5862 393.464 58.645L423.928 34.988L469.037 87.52L458.409 97.877C457.918 98.3557 457.491 98.8954 457.137 99.483L431.726 141.728L384.08 182.476H384.074L365.834 198.076C364.218 199.421 362.137 200.076 360.041 199.898C357.946 199.721 356.005 198.725 354.638 197.127C353.271 195.529 352.588 193.457 352.737 191.36C352.886 189.262 353.855 187.308 355.434 185.919L373.678 170.319C374.476 169.636 375.132 168.803 375.609 167.866C376.085 166.93 376.372 165.909 376.454 164.861C376.535 163.814 376.41 162.761 376.085 161.762C375.759 160.763 375.24 159.838 374.557 159.039C373.875 158.241 373.041 157.585 372.105 157.109C371.168 156.633 370.147 156.345 369.1 156.264C368.053 156.182 366.999 156.307 366 156.633C365.001 156.958 364.076 157.477 363.278 158.16L345.042 173.76L345.036 173.766L338.963 178.959C337.345 180.284 335.272 180.923 333.188 180.738C331.105 180.553 329.176 179.56 327.816 177.97C326.456 176.381 325.773 174.322 325.913 172.235C326.052 170.148 327.004 168.199 328.563 166.805V166.8L352.876 146C353.674 145.317 354.33 144.484 354.807 143.547C355.283 142.611 355.57 141.59 355.652 140.542C355.733 139.495 355.608 138.442 355.283 137.443C354.957 136.444 354.438 135.519 353.755 134.72C353.073 133.922 352.239 133.266 351.303 132.79C350.366 132.313 349.345 132.026 348.298 131.945C347.251 131.863 346.197 131.988 345.198 132.314C344.199 132.639 343.274 133.158 342.476 133.841L318.162 154.635L312.082 159.835C311.284 160.518 310.359 161.037 309.36 161.362C308.361 161.688 307.307 161.813 306.26 161.731C305.213 161.65 304.192 161.362 303.255 160.886C302.319 160.41 301.485 159.754 300.802 158.955C300.12 158.157 299.601 157.232 299.275 156.233C298.95 155.234 298.825 154.181 298.906 153.134C298.988 152.086 299.275 151.065 299.751 150.129C300.228 149.192 300.884 148.359 301.682 147.676V147.676L332.082 121.676C333.695 120.297 334.693 118.334 334.859 116.218C335.024 114.103 334.342 112.008 332.962 110.395C331.583 108.783 329.62 107.784 327.505 107.619C325.389 107.454 323.295 108.136 321.682 109.515L285.2 140.72C284.402 141.403 283.477 141.922 282.478 142.247C281.479 142.573 280.426 142.698 279.378 142.616C278.331 142.535 277.31 142.247 276.373 141.771C275.437 141.295 274.603 140.639 273.921 139.84C273.238 139.042 272.719 138.117 272.393 137.118C272.068 136.119 271.943 135.066 272.024 134.019C272.106 132.971 272.393 131.95 272.869 131.014C273.346 130.077 274.002 129.244 274.8 128.561L332.361 79.333L332.389 79.309C333.187 78.6261 333.843 77.7927 334.32 76.8562C334.796 75.9198 335.083 74.8988 335.165 73.8514C335.246 72.804 335.121 71.7508 334.796 70.7518C334.47 69.7529 333.951 68.8279 333.268 68.0295C332.586 67.2311 331.752 66.5751 330.816 66.0988C329.879 65.6225 328.858 65.3353 327.811 65.2537C326.764 65.172 325.71 65.2974 324.711 65.6228C323.712 65.9482 322.787 66.4671 321.989 67.15C320.457 68.4548 318.664 69.4182 316.731 69.9759C314.797 70.5336 312.767 70.6727 310.775 70.3841C308.783 70.0955 306.876 69.3858 305.18 68.3022C303.484 67.2186 302.039 65.7861 300.94 64.1L316.139 51.1ZM304 256C301.878 256 299.843 256.843 298.343 258.343C296.843 259.843 296 261.878 296 264V278.468C290.816 281.46 286.235 285.392 282.492 290.062C281.692 289.355 280.855 288.686 280 288.045V248C280 245.878 279.157 243.843 277.657 242.343C276.157 240.843 274.122 240 272 240C269.878 240 267.843 240.843 266.343 242.343C264.843 243.843 264 245.878 264 248V280.829C261.368 280.282 258.688 280.004 256 280C253.313 280.004 250.633 280.276 248 280.812V233C248 230.878 247.157 228.843 245.657 227.343C244.157 225.843 242.122 225 240 225C237.878 225 235.843 225.843 234.343 227.343C232.843 228.843 232 230.878 232 233V284.237C227.519 280.222 222.322 277.086 216.681 274.992C218.618 239.127 224.707 203.607 234.826 169.145C240.314 152.581 247.217 139.377 256.951 127.994C255.843 131.838 255.714 135.899 256.575 139.806C257.436 143.713 259.26 147.343 261.881 150.365C264.503 153.387 267.838 155.707 271.584 157.112C275.33 158.517 279.368 158.963 283.33 158.41C284.347 163.548 287.016 168.213 290.93 171.693C294.844 175.174 299.789 177.279 305.011 177.688C305.649 177.737 306.284 177.762 306.917 177.762C308.017 177.755 309.115 177.671 310.204 177.513C311.366 183.546 314.81 188.898 319.819 192.456C324.828 196.014 331.016 197.503 337.095 196.613C337.609 199.26 338.569 201.8 339.933 204.126C339.87 204.259 339.803 204.389 339.748 204.526C331.97 223.822 327.981 244.435 328 265.239V272.679C322.705 271.774 317.295 271.774 312 272.679V264C312 261.878 311.157 259.843 309.657 258.343C308.157 256.843 306.122 256 304 256V256ZM208.078 178.71C206.466 180.089 204.371 180.771 202.256 180.606C200.141 180.441 198.178 179.443 196.798 177.83C195.419 176.218 194.737 174.124 194.902 172.009C195.067 169.893 196.066 167.93 197.678 166.551L221.81 145.913C223.423 144.534 224.421 142.571 224.586 140.455C224.751 138.34 224.069 136.245 222.69 134.633C221.311 133.02 219.348 132.022 217.232 131.857C215.117 131.692 213.023 132.374 211.41 133.753L187.28 154.391L181.2 159.591C180.402 160.274 179.477 160.793 178.478 161.118C177.479 161.444 176.425 161.569 175.378 161.487C174.331 161.406 173.31 161.118 172.373 160.642C171.437 160.166 170.603 159.51 169.921 158.711C169.238 157.913 168.719 156.988 168.393 155.989C168.068 154.99 167.943 153.937 168.024 152.89C168.106 151.842 168.393 150.821 168.869 149.885C169.346 148.948 170.002 148.115 170.8 147.432L228.39 98.18C229.188 97.4971 229.845 96.6637 230.321 95.7272C230.797 94.7908 231.084 93.7697 231.166 92.7222C231.248 91.6748 231.122 90.6215 230.797 89.6225C230.472 88.6235 229.953 87.6984 229.27 86.9C228.587 86.1015 227.754 85.4454 226.817 84.9691C225.881 84.4928 224.86 84.2055 223.812 84.1238C222.765 84.0421 221.712 84.1675 220.713 84.4928C219.714 84.8182 218.788 85.3371 217.99 86.02C216.458 87.325 214.665 88.2884 212.731 88.8461C210.797 89.4038 208.767 89.5429 206.775 89.2542C204.783 88.9656 202.876 88.2557 201.18 87.1719C199.484 86.0881 198.039 84.6553 196.94 82.969L212.14 69.969C218.068 64.9 225.379 61.7233 233.129 60.8487C240.88 59.9741 248.714 61.4416 255.623 65.062L280.843 78.282C282.404 79.0996 284.192 79.3782 285.928 79.0746C287.665 78.7709 289.252 77.902 290.443 76.603C291.72 78.017 293.13 79.3052 294.653 80.45C253.153 101.894 232.532 125.101 219.593 164.25C219.565 164.334 219.539 164.418 219.514 164.503C218.939 166.458 218.384 168.418 217.834 170.38C217.783 170.422 217.734 170.457 217.679 170.5L208.078 178.71ZM200 288C205.236 287.999 210.393 289.284 215.017 291.741C219.642 294.197 223.592 297.751 226.523 302.091C227.188 303.073 228.062 303.895 229.083 304.497C230.105 305.1 231.247 305.468 232.428 305.575C233.609 305.682 234.799 305.525 235.911 305.115C237.024 304.706 238.032 304.054 238.862 303.207C241.434 300.58 244.574 298.58 248.042 297.36C251.51 296.14 255.211 295.733 258.861 296.171C262.511 296.609 266.011 297.879 269.092 299.884C272.172 301.889 274.751 304.576 276.629 307.736C277.379 308.993 278.459 310.021 279.752 310.707C281.045 311.393 282.502 311.711 283.963 311.626C285.424 311.542 286.834 311.058 288.04 310.227C289.245 309.397 290.2 308.251 290.799 306.916C293.795 300.232 298.992 294.779 305.525 291.465C312.057 288.152 319.528 287.18 326.69 288.711C333.852 290.243 340.273 294.184 344.879 299.879C349.486 305.573 351.999 312.676 352 320H168C168.01 311.516 171.384 303.382 177.383 297.383C183.382 291.384 191.516 288.009 200 288V288ZM56 336H288V352H56C53.8783 352 51.8434 351.157 50.3431 349.657C48.8429 348.157 48 346.122 48 344C48 341.878 48.8429 339.843 50.3431 338.343C51.8434 336.843 53.8783 336 56 336Z" fill="black"/>
<path d="M128 384H112C109.878 384 107.843 384.843 106.343 386.343C104.843 387.843 104 389.878 104 392C104 394.122 104.843 396.157 106.343 397.657C107.843 399.157 109.878 400 112 400H128C130.122 400 132.157 399.157 133.657 397.657C135.157 396.157 136 394.122 136 392C136 389.878 135.157 387.843 133.657 386.343C132.157 384.843 130.122 384 128 384Z" fill="black"/>
<path d="M200 384H160C157.878 384 155.843 384.843 154.343 386.343C152.843 387.843 152 389.878 152 392C152 394.122 152.843 396.157 154.343 397.657C155.843 399.157 157.878 400 160 400H200C202.122 400 204.157 399.157 205.657 397.657C207.157 396.157 208 394.122 208 392C208 389.878 207.157 387.843 205.657 386.343C204.157 384.843 202.122 384 200 384Z" fill="black"/>
<path d="M72.1359 255.02C72.7098 261.86 75.227 268.393 79.3908 273.849C83.5546 279.305 89.1915 283.458 95.637 285.817C102.083 288.176 109.068 288.643 115.77 287.163C122.473 285.684 128.612 282.319 133.466 277.466C138.319 272.612 141.684 266.473 143.163 259.77C144.643 253.068 144.176 246.083 141.817 239.637C139.458 233.191 135.305 227.555 129.849 223.391C124.393 219.227 117.86 216.71 111.02 216.136C109.63 210.656 106.813 205.642 102.856 201.604C98.899 197.566 93.9426 194.648 88.4916 193.148C83.0405 191.649 77.2894 191.62 71.8235 193.064C66.3576 194.509 61.372 197.377 57.3743 201.374C53.3766 205.372 50.5093 210.358 49.0644 215.823C47.6195 221.289 47.6485 227.041 49.1485 232.492C50.6484 237.943 53.5658 242.899 57.6037 246.856C61.6415 250.813 66.6557 253.63 72.1359 255.02V255.02ZM108 232C111.956 232 115.822 233.173 119.111 235.371C122.4 237.568 124.964 240.692 126.478 244.346C127.991 248.001 128.387 252.022 127.616 255.902C126.844 259.781 124.939 263.345 122.142 266.142C119.345 268.939 115.781 270.844 111.902 271.616C108.022 272.387 104.001 271.991 100.346 270.478C96.6917 268.964 93.5682 266.4 91.3705 263.111C89.1729 259.822 87.9999 255.956 87.9999 252C88.006 246.697 90.1151 241.614 93.8645 237.865C97.6139 234.115 102.697 232.006 108 232V232ZM79.9999 208C83.2646 208.006 86.4496 209.009 89.1279 210.876C91.8062 212.743 93.8499 215.384 94.9849 218.445C90.3277 220.263 86.0981 223.028 82.5628 226.563C79.0275 230.098 76.2634 234.328 74.4449 238.985C70.9243 237.684 67.9735 235.186 66.1094 231.928C64.2453 228.671 63.5868 224.861 64.2491 221.167C64.9115 217.472 66.8524 214.129 69.7321 211.721C72.6118 209.314 76.2466 207.997 79.9999 208V208Z" fill="black"/>
<path d="M416 304C420.747 304 425.387 302.592 429.334 299.955C433.28 297.318 436.357 293.57 438.173 289.184C439.99 284.799 440.465 279.973 439.539 275.318C438.613 270.662 436.327 266.386 432.971 263.029C429.614 259.673 425.338 257.387 420.682 256.461C416.027 255.535 411.201 256.01 406.816 257.827C402.43 259.643 398.682 262.72 396.045 266.666C393.408 270.613 392 275.253 392 280C392.007 286.363 394.538 292.463 399.037 296.963C403.537 301.462 409.637 303.993 416 304V304ZM416 272C417.582 272 419.129 272.469 420.445 273.348C421.76 274.227 422.786 275.477 423.391 276.939C423.997 278.4 424.155 280.009 423.846 281.561C423.538 283.113 422.776 284.538 421.657 285.657C420.538 286.776 419.113 287.538 417.561 287.846C416.009 288.155 414.4 287.997 412.939 287.391C411.477 286.786 410.227 285.76 409.348 284.445C408.469 283.129 408 281.582 408 280C408.002 277.879 408.846 275.846 410.346 274.346C411.846 272.846 413.879 272.002 416 272Z" fill="black"/>
<path d="M464 192C457.671 192 451.484 193.877 446.222 197.393C440.959 200.909 436.858 205.907 434.436 211.754C432.014 217.601 431.38 224.035 432.615 230.243C433.85 236.45 436.897 242.152 441.373 246.627C445.848 251.103 451.55 254.15 457.757 255.385C463.965 256.62 470.399 255.986 476.246 253.564C482.093 251.142 487.091 247.041 490.607 241.778C494.123 236.516 496 230.329 496 224C495.99 215.516 492.616 207.382 486.617 201.383C480.618 195.384 472.484 192.01 464 192V192ZM464 240C460.836 240 457.742 239.062 455.111 237.304C452.48 235.545 450.429 233.047 449.218 230.123C448.007 227.199 447.69 223.982 448.307 220.879C448.925 217.775 450.449 214.924 452.686 212.686C454.924 210.449 457.775 208.925 460.879 208.307C463.982 207.69 467.199 208.007 470.123 209.218C473.047 210.429 475.545 212.48 477.304 215.111C479.062 217.742 480 220.835 480 224C479.995 228.242 478.308 232.309 475.308 235.308C472.309 238.308 468.242 239.995 464 240Z" fill="black"/>
</svg>
