<?xml version="1.0" encoding="iso-8859-1"?>
<!-- Uploaded to: SVG Repo, www.svgrepo.com, Generator: SVG Repo Mixer Tools -->
<svg height="800px" width="800px" version="1.1" id="Layer_1" xmlns="http://www.w3.org/2000/svg" xmlns:xlink="http://www.w3.org/1999/xlink" 
	 viewBox="0 0 512.132 512.132" xml:space="preserve">
<g>
	<path style="fill:#FFE100;" d="M315.865,490.733c-5.12,0-8.533-3.413-8.533-8.533v-25.6c0-5.12,3.413-8.533,8.533-8.533
		s8.533,3.413,8.533,8.533v25.6C324.399,487.319,320.985,490.733,315.865,490.733z"/>
	<path style="fill:#FFE100;" d="M349.999,490.733c-5.12,0-8.533-3.413-8.533-8.533v-25.6c0-5.12,3.413-8.533,8.533-8.533
		c5.12,0,8.533,3.413,8.533,8.533v25.6C358.532,487.319,355.119,490.733,349.999,490.733z"/>
	<path style="fill:#FFE100;" d="M503.599,422.466c-5.12,0-8.533-3.413-8.533-8.533V302.999c0-28.16-23.04-51.2-51.2-51.2
		c-5.12,0-8.533-3.413-8.533-8.533c0-5.12,3.413-8.533,8.533-8.533c37.547,0,68.267,30.72,68.267,68.267v110.933
		C512.132,419.053,508.719,422.466,503.599,422.466z"/>
	<path style="fill:#FFE100;" d="M460.932,465.133c-28.16,0-51.2-23.04-51.2-51.2c0-5.12,3.413-8.533,8.533-8.533
		c5.12,0,8.533,3.413,8.533,8.533c0,18.773,15.36,34.133,34.133,34.133s34.133-15.36,34.133-34.133c0-5.12,3.413-8.533,8.533-8.533
		c5.12,0,8.533,3.413,8.533,8.533C512.132,442.093,489.092,465.133,460.932,465.133z"/>
	<path style="fill:#FFE100;" d="M418.265,422.466c-5.12,0-8.533-3.413-8.533-8.533c0-18.773-15.36-34.133-34.133-34.133
		s-34.133,15.36-34.133,34.133c0,5.12-3.413,8.533-8.533,8.533c-5.12,0-8.533-3.413-8.533-8.533c0-28.16,23.04-51.2,51.2-51.2
		s51.2,23.04,51.2,51.2C426.799,419.053,423.385,422.466,418.265,422.466z"/>
	<path style="fill:#FFE100;" d="M298.799,456.599h51.2v-42.667h-51.2V456.599z"/>
</g>
<path style="fill:#FECC00;" d="M418.265,328.599H83.759c-14.507,0-28.16-8.533-34.133-21.333l-6.827-12.8h375.467V328.599z"/>
<path style="fill:#FFFFFF;" d="M51.332,307.266l-6.827-12.8H10.372l6.827,12.8c5.973,12.8,19.627,21.333,34.133,21.333h34.133
	C70.959,328.599,57.305,320.066,51.332,307.266"/>
<path style="fill:#63D3FD;" d="M170.799,111.853V80.279c0-4.267-3.413-7.68-7.68-7.68h-35.84c-4.267,0-7.68,3.413-7.68,7.68v68.267
	C135.812,134.893,153.732,122.946,170.799,111.853"/>
<path style="fill:#FFFFFF;" d="M136.665,80.279c0-4.267,3.413-7.68,7.68-7.68h-17.067c-4.267,0-7.68,3.413-7.68,7.68v68.267
	c5.973-4.267,11.093-9.387,17.067-13.653V80.279z"/>
<g>
	<path style="fill:#FFE100;" d="M8.665,294.466c114.347-257.707,418.133-256,418.133-256l51.2,187.733
		c0,0-59.733-10.24-59.733,68.267H8.665z"/>
	<path style="fill:#FFE100;" d="M452.399,38.466c0,0-303.787-1.707-418.133,256h34.133l6.827,12.8
		c6.827,12.8,19.627,21.333,34.133,21.333h320.853c7.68,0,14.507-5.973,14.507-14.507v-19.627c0-48.64,23.04-63.147,40.107-67.413
		c10.24-2.56,16.213-12.8,13.653-23.04L452.399,38.466z"/>
</g>
<path style="fill:#FFFFFF;" d="M426.799,39.319v-0.853c0,0-303.787-1.707-418.133,256h25.6
	C128.132,81.133,351.705,45.293,426.799,39.319"/>
<path style="fill:#FFA800;" d="M413.999,38.466c8.533,0,12.8,0,12.8,0l49.493,181.76c11.093-2.56,18.773-2.56,18.773-2.56
	l-51.2-187.733c0,0-11.093,0-29.867,2.56"/>
<path style="fill:#FFE100;" d="M431.065,36.759c7.68,0,12.8,0,12.8,0l49.493,180.907c3.413-0.853,5.973-0.853,8.533-1.707
	c5.12-0.853,9.387-5.973,7.68-11.093l-46.08-167.253c-1.707-5.973-6.827-9.387-12.8-9.387c-5.12,0-11.093,0.853-19.627,1.707"/>
<path style="fill:#00DA6C;" d="M409.732,140.866c0,18.773-15.36,34.133-34.133,34.133s-8.533-15.36-8.533-34.133
	s-10.24-34.133,8.533-34.133S409.732,122.093,409.732,140.866"/>
<path style="fill:#00AD55;" d="M392.665,106.733c-2.56,0-5.973,0.853-8.533,0.853c14.507,3.413,25.6,17.067,25.6,33.28
	s-11.093,29.013-25.6,33.28c2.56,0.853,5.973,0.853,8.533,0.853c18.773,0,34.133-15.36,34.133-34.133
	S411.439,106.733,392.665,106.733"/>
<path style="fill:#63D3FD;" d="M281.732,106.733c0,0-104.96,19.627-153.6,102.4h170.667L281.732,106.733z"/>
<path style="fill:#3DB9F9;" d="M307.332,106.733c0,0-9.387,1.707-24.747,5.12l16.213,97.28h25.6L307.332,106.733z"/>
<path d="M418.265,302.999H8.665c-2.56,0-5.973-1.707-6.827-4.267s-1.707-5.12-0.853-8.533c115.2-259.413,439.467-268.8,442.88-268.8
	l0,0c4.267,0,6.827,2.56,8.533,5.973l51.2,187.733c0.853,2.56,0,5.12-1.707,7.68c-1.707,2.56-4.267,3.413-6.827,3.413
	c0,0-30.72-0.853-50.347,18.773c-11.947,11.947-17.92,28.16-17.92,49.493C426.799,299.586,423.385,302.999,418.265,302.999z
	 M22.319,285.933h387.413c1.707-22.187,9.387-40.107,23.04-52.907c17.067-16.213,38.4-21.333,51.2-23.04l-46.933-171.52
	C391.812,41.879,127.279,67.479,22.319,285.933z"/>
<path d="M324.399,217.666H128.132c-3.413,0-5.973-1.707-7.68-4.267s-1.707-5.973,0-8.533
	c50.347-85.333,180.053-105.813,185.173-106.667c4.267-0.853,8.533,2.56,9.387,6.827l17.067,102.4c0,2.56,0,5.12-1.707,6.827
	C329.519,216.813,326.959,217.666,324.399,217.666z M144.345,200.599h169.813l-13.653-83.627
	C273.199,122.093,187.012,144.279,144.345,200.599z"/>
<path d="M111.065,166.466V80.279c0-8.533,7.68-16.213,16.213-16.213h35.84c8.533,0,16.213,7.68,16.213,16.213v36.693l-4.267,2.56
	c-17.92,11.093-34.987,23.04-50.347,35.84L111.065,166.466z M128.132,81.133v49.493c11.093-8.533,22.187-16.213,34.133-23.893v-25.6
	H128.132z"/>
<path d="M392.665,183.533c-23.893,0-42.667-18.773-42.667-42.667s18.773-42.667,42.667-42.667c23.893,0,42.667,18.773,42.667,42.667
	S416.559,183.533,392.665,183.533z M392.665,115.266c-14.507,0-25.6,11.093-25.6,25.6s11.093,25.6,25.6,25.6
	c14.507,0,25.6-11.093,25.6-25.6S407.172,115.266,392.665,115.266z"/>
<path d="M418.265,337.133H49.625c-17.92,0-34.133-10.24-41.813-25.6l-6.827-12.8c-1.707-2.56-0.853-5.973,0-8.533
	c0.853-2.56,5.12-4.267,7.68-4.267h409.6c5.12,0,8.533,3.413,8.533,8.533v34.133C426.799,333.719,423.385,337.133,418.265,337.133z
	 M22.319,302.999L22.319,302.999c5.12,11.093,15.36,17.067,27.307,17.067h360.107v-17.067H22.319z"/>
<path d="M495.065,422.466c-5.12,0-8.533-3.413-8.533-8.533V302.999c0-28.16-23.04-51.2-51.2-51.2c-5.12,0-8.533-3.413-8.533-8.533
	c0-5.12,3.413-8.533,8.533-8.533c37.547,0,68.267,30.72,68.267,68.267v110.933C503.599,419.053,500.185,422.466,495.065,422.466z"/>
<path d="M452.399,465.133c-28.16,0-51.2-23.04-51.2-51.2c0-5.12,3.413-8.533,8.533-8.533s8.533,3.413,8.533,8.533
	c0,18.773,15.36,34.133,34.133,34.133c18.773,0,34.133-15.36,34.133-34.133c0-5.12,3.413-8.533,8.533-8.533s8.533,3.413,8.533,8.533
	C503.599,442.093,480.559,465.133,452.399,465.133z"/>
<path d="M409.732,422.466c-5.12,0-8.533-3.413-8.533-8.533c0-18.773-15.36-34.133-34.133-34.133s-34.133,15.36-34.133,34.133
	c0,5.12-3.413,8.533-8.533,8.533c-5.12,0-8.533-3.413-8.533-8.533c0-28.16,23.04-51.2,51.2-51.2s51.2,23.04,51.2,51.2
	C418.265,419.053,414.852,422.466,409.732,422.466z"/>
<path d="M349.999,465.133h-51.2c-5.12,0-8.533-3.413-8.533-8.533v-42.667c0-5.12,3.413-8.533,8.533-8.533h51.2
	c5.12,0,8.533,3.413,8.533,8.533v42.667C358.532,461.719,355.119,465.133,349.999,465.133z M307.332,448.066h34.133v-25.6h-34.133
	V448.066z"/>
<path d="M307.332,490.733c-5.12,0-8.533-3.413-8.533-8.533v-25.6c0-5.12,3.413-8.533,8.533-8.533s8.533,3.413,8.533,8.533v25.6
	C315.865,487.319,312.452,490.733,307.332,490.733z"/>
<path d="M341.465,490.733c-5.12,0-8.533-3.413-8.533-8.533v-25.6c0-5.12,3.413-8.533,8.533-8.533s8.533,3.413,8.533,8.533v25.6
	C349.999,487.319,346.585,490.733,341.465,490.733z"/>
<path d="M315.865,260.333H145.199c-5.12,0-8.533-3.413-8.533-8.533s3.413-8.533,8.533-8.533h170.667c5.12,0,8.533,3.413,8.533,8.533
	S320.985,260.333,315.865,260.333z"/>
<path d="M401.199,140.866c0,5.12-3.413,8.533-8.533,8.533c-5.12,0-8.533-3.413-8.533-8.533s3.413-8.533,8.533-8.533
	C397.785,132.333,401.199,135.746,401.199,140.866"/>
</svg>