<?xml version="1.0" encoding="UTF-8" standalone="no"?> <svg width="64" height="64" viewBox="0 0 64 64" fill="none" xmlns="http://www.w3.org/2000/svg">
<path d="M57 9H7C4.79086 9 3 10.7909 3 13V43C3 45.2091 4.79086 47 7 47H57C59.2091 47 61 45.2091 61 43V13C61 10.7909 59.2091 9 57 9Z" fill="#48CAE4"/>
<path d="M7 9C6.66203 9.00431 6.32599 9.0517 6 9.141V42H14V44H25V42H54V9H7Z" fill="#00B4D8"/>
<path d="M12 57H52C53.0609 57 54.0783 57.4214 54.8284 58.1716C55.5786 58.9217 56 59.9391 56 61H8C8 59.9391 8.42143 58.9217 9.17157 58.1716C9.92172 57.4214 10.9391 57 12 57V57Z" fill="#E9F1F2"/>
<path d="M41 47H23C22.9999 48.53 22.6107 50.0349 21.869 51.3732C21.1273 52.7114 20.0574 53.839 18.76 54.65L15 57H49L45.24 54.65C43.9426 53.839 42.8727 52.7114 42.131 51.3732C41.3893 50.0349 41.0001 48.53 41 47Z" fill="#D0D8DA"/>
<path d="M41 47H23C22.9999 48.53 22.6107 50.0349 21.869 51.3732C21.1273 52.7114 20.0574 53.839 18.76 54.65L15 57L41 47Z" fill="#B8BEBF"/>
<path d="M56 61H8C8 59.9391 8.42143 58.9217 9.17157 58.1716C9.92172 57.4214 10.9391 57 12 57C12.0016 57.5299 12.2128 58.0377 12.5875 58.4125C12.9623 58.7872 13.4701 58.9984 14 59H55.46C55.813 59.6075 55.9993 60.2974 56 61V61Z" fill="#D0D8DA"/>
<path d="M60 44H10C8.93913 44 7.92172 43.5785 7.17157 42.8284C6.42143 42.0783 6 41.0608 6 40V9.99997C6.00216 9.69951 6.03839 9.40027 6.108 9.10797C5.22619 9.30969 4.4388 9.80435 3.87433 10.5112C3.30986 11.2181 3.00165 12.0954 3 13V43C3 44.0608 3.42143 45.0783 4.17157 45.8284C4.92172 46.5785 5.93913 47 7 47H57C57.9046 46.9983 58.7819 46.6901 59.4888 46.1256C60.1956 45.5612 60.6903 44.7738 60.892 43.892C60.5997 43.9616 60.3005 43.9978 60 44V44Z" fill="#00B4D8"/>
<path d="M56 3H8V41H56V3Z" fill="#E9F1F2"/>
<path d="M36 32C31.2261 32 26.6477 30.1036 23.2721 26.7279C19.8964 23.3523 18 18.7739 18 14V3H8V41H56V32H36Z" fill="#D0D8DA"/>
<path d="M18 24C19.6569 24 21 22.6569 21 21C21 19.3431 19.6569 18 18 18C16.3431 18 15 19.3431 15 21C15 22.6569 16.3431 24 18 24Z" fill="#D0D8DA"/>
<path d="M24 3H8V11H24V3Z" fill="#FF7373"/>
<path d="M56 3H24V11H56V3Z" fill="#48CAE4"/>
<path d="M34 16H29V20H34V16Z" fill="#FF7373"/>
<path d="M51 16H34V20H51V16Z" fill="#48CAE4"/>
<path d="M24 21C24.0011 19.8998 23.6996 18.8204 23.1285 17.88C22.5575 16.9395 21.7388 16.1742 20.7621 15.6677C19.7854 15.1612 18.6882 14.933 17.5905 15.0081C16.4928 15.0832 15.4369 15.4587 14.5383 16.0935C13.6396 16.7283 12.9328 17.5979 12.4952 18.6074C12.0575 19.6168 11.9058 20.7272 12.0567 21.817C12.2076 22.9068 12.6552 23.9342 13.3507 24.7868C14.0462 25.6393 14.9627 26.2842 16 26.651V43H20V26.651C21.1689 26.2377 22.181 25.4726 22.8973 24.4606C23.6136 23.4487 23.9988 22.2398 24 21V21ZM18 23C17.6044 23 17.2178 22.8827 16.8889 22.6629C16.56 22.4432 16.3036 22.1308 16.1522 21.7654C16.0009 21.3999 15.9613 20.9978 16.0384 20.6098C16.1156 20.2219 16.3061 19.8655 16.5858 19.5858C16.8655 19.3061 17.2219 19.1156 17.6098 19.0384C17.9978 18.9613 18.3999 19.0009 18.7654 19.1522C19.1308 19.3036 19.4432 19.56 19.6629 19.8889C19.8827 20.2178 20 20.6044 20 21C20 21.5304 19.7893 22.0391 19.4142 22.4142C19.0391 22.7893 18.5304 23 18 23Z" fill="#F9DBAF"/>
<path d="M26 35V32H20V43H27V39H24V36L26 35Z" fill="#F9DBAF"/>
<path d="M27 41V43H20V32H22V38C22 38.7956 22.3161 39.5587 22.8787 40.1213C23.4413 40.6839 24.2044 41 25 41H27Z" fill="#EDB88E"/>
<path d="M20 25C18.9346 25.0013 17.8881 24.7186 16.9684 24.181C16.0486 23.6433 15.2888 22.8701 14.7673 21.9411C14.2458 21.0121 13.9814 19.9608 14.0014 18.8956C14.0214 17.8304 14.325 16.7898 14.881 15.881C13.9114 16.4697 13.1289 17.3216 12.6245 18.3376C12.1201 19.3536 11.9146 20.4919 12.0318 21.6201C12.149 22.7484 12.5842 23.8201 13.2867 24.7107C13.9892 25.6014 14.9301 26.2742 16 26.651V43H18V29C18 28.4695 18.2107 27.9608 18.5858 27.5858C18.9609 27.2107 19.4696 27 20 27V26.651C21.29 26.1893 22.3837 25.301 23.1 24.133C22.1657 24.7008 21.0933 25.0008 20 25Z" fill="#EDB88E"/>
<path d="M51 5H29C27.8954 5 27 5.89543 27 7C27 8.10457 27.8954 9 29 9H51C52.1046 9 53 8.10457 53 7C53 5.89543 52.1046 5 51 5Z" fill="#00B4D8"/>
<path d="M18 3H8V11H18V3Z" fill="#EF5350"/>
<path d="M61 27C61.2652 27 61.5196 26.8946 61.7071 26.7071C61.8946 26.5196 62 26.2652 62 26V13C61.9984 11.6744 61.4711 10.4036 60.5338 9.46622C59.5964 8.52888 58.3256 8.00159 57 8V3C57 2.73478 56.8946 2.48043 56.7071 2.29289C56.5196 2.10536 56.2652 2 56 2H8C7.73478 2 7.48043 2.10536 7.29289 2.29289C7.10536 2.48043 7 2.73478 7 3V8C5.6744 8.00159 4.40356 8.52888 3.46622 9.46622C2.52888 10.4036 2.00159 11.6744 2 13V43C2.00159 44.3256 2.52888 45.5964 3.46622 46.5338C4.40356 47.4711 5.6744 47.9984 7 48H21.937C21.7919 49.1824 21.3836 50.3172 20.742 51.3209C20.1005 52.3246 19.2421 53.1718 18.23 53.8L14.714 56H12C10.6744 56.0016 9.40356 56.5289 8.46622 57.4662C7.52888 58.4036 7.00159 59.6744 7 61C7 61.2652 7.10536 61.5196 7.29289 61.7071C7.48043 61.8946 7.73478 62 8 62H32C32.2652 62 32.5196 61.8946 32.7071 61.7071C32.8946 61.5196 33 61.2652 33 61C33 60.7348 32.8946 60.4804 32.7071 60.2929C32.5196 60.1054 32.2652 60 32 60H9.171C9.37858 59.4155 9.7619 58.9095 10.2684 58.5514C10.7749 58.1934 11.3797 58.0008 12 58H52C52.6203 58.0008 53.2251 58.1934 53.7316 58.5514C54.2381 58.9095 54.6214 59.4155 54.829 60H36C35.7348 60 35.4804 60.1054 35.2929 60.2929C35.1054 60.4804 35 60.7348 35 61C35 61.2652 35.1054 61.5196 35.2929 61.7071C35.4804 61.8946 35.7348 62 36 62H56C56.2652 62 56.5196 61.8946 56.7071 61.7071C56.8946 61.5196 57 61.2652 57 61C56.9984 59.6744 56.4711 58.4036 55.5338 57.4662C54.5964 56.5289 53.3256 56.0016 52 56H49.286L45.77 53.8C44.7579 53.1718 43.8995 52.3246 43.258 51.3209C42.6164 50.3172 42.2081 49.1824 42.063 48H57C58.3256 47.9984 59.5964 47.4711 60.5338 46.5338C61.4711 45.5964 61.9984 44.3256 62 43V30C62 29.7348 61.8946 29.4804 61.7071 29.2929C61.5196 29.1054 61.2652 29 61 29C60.7348 29 60.4804 29.1054 60.2929 29.2929C60.1054 29.4804 60 29.7348 60 30V43C60 43.7956 59.6839 44.5587 59.1213 45.1213C58.5587 45.6839 57.7956 46 57 46H7C6.20435 46 5.44129 45.6839 4.87868 45.1213C4.31607 44.5587 4 43.7956 4 43V13C4 12.2044 4.31607 11.4413 4.87868 10.8787C5.44129 10.3161 6.20435 10 7 10V41C7 41.2652 7.10536 41.5196 7.29289 41.7071C7.48043 41.8946 7.73478 42 8 42H12C12.2652 42 12.5196 41.8946 12.7071 41.7071C12.8946 41.5196 13 41.2652 13 41C13 40.7348 12.8946 40.4804 12.7071 40.2929C12.5196 40.1054 12.2652 40 12 40H9V12H52C52.2652 12 52.5196 11.8946 52.7071 11.7071C52.8946 11.5196 53 11.2652 53 11C53 10.7348 52.8946 10.4804 52.7071 10.2929C52.5196 10.1054 52.2652 10 52 10H25V4H55V40H31C30.7348 40 30.4804 40.1054 30.2929 40.2929C30.1054 40.4804 30 40.7348 30 41C30 41.2652 30.1054 41.5196 30.2929 41.7071C30.4804 41.8946 30.7348 42 31 42H56C56.2652 42 56.5196 41.8946 56.7071 41.7071C56.8946 41.5196 57 41.2652 57 41V10C57.7956 10 58.5587 10.3161 59.1213 10.8787C59.6839 11.4413 60 12.2044 60 13V26C60 26.2652 60.1054 26.5196 60.2929 26.7071C60.4804 26.8946 60.7348 27 61 27ZM40.049 48C40.1967 49.5244 40.6941 50.9942 41.5025 52.295C42.3109 53.5958 43.4086 54.6926 44.71 55.5L45.51 56H18.487L19.287 55.5C20.5882 54.6924 21.6855 53.5955 22.4937 52.2947C23.3019 50.994 23.7993 49.5243 23.947 48H40.049ZM9 4H23V10H9V4Z" fill="#323232"/>
<path d="M16 8C16.5523 8 17 7.55228 17 7C17 6.44772 16.5523 6 16 6C15.4477 6 15 6.44772 15 7C15 7.55228 15.4477 8 16 8Z" fill="#323232"/>
<path d="M20 8C20.5523 8 21 7.55228 21 7C21 6.44772 20.5523 6 20 6C19.4477 6 19 6.44772 19 7C19 7.55228 19.4477 8 20 8Z" fill="#323232"/>
<path d="M30 6C29.7348 6 29.4804 6.10536 29.2929 6.29289C29.1054 6.48043 29 6.73478 29 7C29 7.26522 29.1054 7.51957 29.2929 7.70711C29.4804 7.89464 29.7348 8 30 8H51C51.2652 8 51.5196 7.89464 51.7071 7.70711C51.8946 7.51957 52 7.26522 52 7C52 6.73478 51.8946 6.48043 51.7071 6.29289C51.5196 6.10536 51.2652 6 51 6H30Z" fill="#323232"/>
<path d="M12 8C12.5523 8 13 7.55228 13 7C13 6.44772 12.5523 6 12 6C11.4477 6 11 6.44772 11 7C11 7.55228 11.4477 8 12 8Z" fill="#323232"/>
<path d="M52 16C52 15.7348 51.8946 15.4804 51.7071 15.2929C51.5196 15.1054 51.2652 15 51 15H29C28.7348 15 28.4804 15.1054 28.2929 15.2929C28.1054 15.4804 28 15.7348 28 16V20C28 20.2652 28.1054 20.5196 28.2929 20.7071C28.4804 20.8946 28.7348 21 29 21H51C51.2652 21 51.5196 20.8946 51.7071 20.7071C51.8946 20.5196 52 20.2652 52 20V16ZM30 17H33V19H30V17ZM50 19H35V17H50V19Z" fill="#323232"/>
<path d="M16 44H27C27.2652 44 27.5196 43.8946 27.7071 43.7071C27.8946 43.5196 28 43.2652 28 43V39C28 38.7348 27.8946 38.4804 27.7071 38.2929C27.5196 38.1054 27.2652 38 27 38H25V36.618L26.447 35.895C26.6132 35.8119 26.753 35.6842 26.8507 35.5261C26.9484 35.368 27.0001 35.1858 27 35V32C27 31.7348 26.8946 31.4804 26.7071 31.2929C26.5196 31.1054 26.2652 31 26 31H21V27.315C22.1954 26.748 23.2056 25.8538 23.9135 24.7361C24.6215 23.6185 24.9982 22.323 25 21C25.0004 19.9567 24.7652 18.9267 24.312 17.987C24.2611 17.86 24.1846 17.7449 24.0874 17.6486C23.9902 17.5524 23.8742 17.4771 23.7468 17.4274C23.6193 17.3778 23.483 17.3548 23.3463 17.36C23.2095 17.3651 23.0753 17.3983 22.952 17.4574C22.8286 17.5165 22.7186 17.6002 22.6289 17.7035C22.5392 17.8068 22.4716 17.9274 22.4304 18.0578C22.3892 18.1883 22.3751 18.3258 22.3892 18.4619C22.4032 18.598 22.445 18.7297 22.512 18.849C23.0239 19.9169 23.1416 21.1314 22.8443 22.2777C22.5469 23.4241 21.8538 24.4283 20.8874 25.1128C19.9211 25.7973 18.7437 26.118 17.5637 26.0181C16.3837 25.9182 15.277 25.4042 14.4395 24.567C13.6019 23.7298 13.0874 22.6233 12.987 21.4433C12.8866 20.2634 13.2068 19.0859 13.8909 18.1192C14.575 17.1526 15.5789 16.459 16.7251 16.1612C17.8713 15.8634 19.0859 15.9806 20.154 16.492C20.2732 16.5585 20.4048 16.5999 20.5406 16.6136C20.6765 16.6273 20.8137 16.6131 20.9438 16.5718C21.0739 16.5305 21.1942 16.463 21.2972 16.3734C21.4002 16.2838 21.4838 16.1741 21.5429 16.051C21.6019 15.9279 21.6351 15.794 21.6404 15.6576C21.6457 15.5212 21.623 15.3851 21.5738 15.2578C21.5245 15.1305 21.4497 15.0146 21.3539 14.9173C21.2582 14.82 21.1435 14.7433 21.017 14.692C20.0764 14.2368 19.045 14.0002 18 14C16.4111 13.9985 14.869 14.5381 13.6277 15.5299C12.3864 16.5217 11.5198 17.9067 11.1705 19.4567C10.8213 21.0068 11.0102 22.6295 11.7063 24.0579C12.4023 25.4862 13.564 26.6349 15 27.315V43C15 43.2652 15.1054 43.5196 15.2929 43.7071C15.4804 43.8946 15.7348 44 16 44ZM25 33V34.382L23.553 35.105C23.3868 35.1881 23.247 35.3158 23.1493 35.4739C23.0516 35.632 22.9999 35.8142 23 36V39C23 39.2652 23.1054 39.5196 23.2929 39.7071C23.4804 39.8946 23.7348 40 24 40H26V42H21V33H25ZM19 27.92V42H17V27.92C17.6624 28.0267 18.3376 28.0267 19 27.92V27.92Z" fill="#323232"/>
<path d="M18 18C17.4067 18 16.8266 18.1759 16.3333 18.5056C15.8399 18.8352 15.4554 19.3038 15.2284 19.8519C15.0013 20.4001 14.9419 21.0033 15.0576 21.5853C15.1734 22.1672 15.4591 22.7018 15.8787 23.1213C16.2982 23.5409 16.8328 23.8266 17.4147 23.9424C17.9967 24.0581 18.5999 23.9987 19.1481 23.7716C19.6962 23.5446 20.1648 23.1601 20.4944 22.6667C20.8241 22.1734 21 21.5933 21 21C21 20.2044 20.6839 19.4413 20.1213 18.8787C19.5587 18.3161 18.7957 18 18 18ZM18 22C17.8022 22 17.6089 21.9414 17.4444 21.8315C17.28 21.7216 17.1518 21.5654 17.0761 21.3827C17.0004 21.2 16.9806 20.9989 17.0192 20.8049C17.0578 20.6109 17.153 20.4327 17.2929 20.2929C17.4327 20.153 17.6109 20.0578 17.8049 20.0192C17.9989 19.9806 18.2 20.0004 18.3827 20.0761C18.5654 20.1518 18.7216 20.28 18.8315 20.4444C18.9414 20.6089 19 20.8022 19 21C19 21.2652 18.8946 21.5196 18.7071 21.7071C18.5196 21.8946 18.2652 22 18 22Z" fill="#323232"/>
<path d="M35 25C35.2652 25 35.5196 24.8946 35.7071 24.7071C35.8946 24.5196 36 24.2652 36 24C36 23.7348 35.8946 23.4804 35.7071 23.2929C35.5196 23.1054 35.2652 23 35 23H32C31.7348 23 31.4804 23.1054 31.2929 23.2929C31.1054 23.4804 31 23.7348 31 24C31 24.2652 31.1054 24.5196 31.2929 24.7071C31.4804 24.8946 31.7348 25 32 25H35Z" fill="#323232"/>
<path d="M39 25H43C43.2652 25 43.5196 24.8946 43.7071 24.7071C43.8946 24.5196 44 24.2652 44 24C44 23.7348 43.8946 23.4804 43.7071 23.2929C43.5196 23.1054 43.2652 23 43 23H39C38.7348 23 38.4804 23.1054 38.2929 23.2929C38.1054 23.4804 38 23.7348 38 24C38 24.2652 38.1054 24.5196 38.2929 24.7071C38.4804 24.8946 38.7348 25 39 25Z" fill="#323232"/>
<path d="M51 23H47C46.7348 23 46.4804 23.1054 46.2929 23.2929C46.1054 23.4804 46 23.7348 46 24C46 24.2652 46.1054 24.5196 46.2929 24.7071C46.4804 24.8946 46.7348 25 47 25H51C51.2652 25 51.5196 24.8946 51.7071 24.7071C51.8946 24.5196 52 24.2652 52 24C52 23.7348 51.8946 23.4804 51.7071 23.2929C51.5196 23.1054 51.2652 23 51 23Z" fill="#323232"/>
<path d="M35 27H31C30.7348 27 30.4804 27.1054 30.2929 27.2929C30.1054 27.4804 30 27.7348 30 28C30 28.2652 30.1054 28.5196 30.2929 28.7071C30.4804 28.8946 30.7348 29 31 29H35C35.2652 29 35.5196 28.8946 35.7071 28.7071C35.8946 28.5196 36 28.2652 36 28C36 27.7348 35.8946 27.4804 35.7071 27.2929C35.5196 27.1054 35.2652 27 35 27Z" fill="#323232"/>
<path d="M39 29H42C42.2652 29 42.5196 28.8946 42.7071 28.7071C42.8946 28.5196 43 28.2652 43 28C43 27.7348 42.8946 27.4804 42.7071 27.2929C42.5196 27.1054 42.2652 27 42 27H39C38.7348 27 38.4804 27.1054 38.2929 27.2929C38.1054 27.4804 38 27.7348 38 28C38 28.2652 38.1054 28.5196 38.2929 28.7071C38.4804 28.8946 38.7348 29 39 29Z" fill="#323232"/>
<path d="M48 29C48.2652 29 48.5196 28.8946 48.7071 28.7071C48.8946 28.5196 49 28.2652 49 28C49 27.7348 48.8946 27.4804 48.7071 27.2929C48.5196 27.1054 48.2652 27 48 27H46C45.7348 27 45.4804 27.1054 45.2929 27.2929C45.1054 27.4804 45 27.7348 45 28C45 28.2652 45.1054 28.5196 45.2929 28.7071C45.4804 28.8946 45.7348 29 46 29H48Z" fill="#323232"/>
<path d="M31 33H33C33.2652 33 33.5196 32.8946 33.7071 32.7071C33.8946 32.5196 34 32.2652 34 32C34 31.7348 33.8946 31.4804 33.7071 31.2929C33.5196 31.1054 33.2652 31 33 31H31C30.7348 31 30.4804 31.1054 30.2929 31.2929C30.1054 31.4804 30 31.7348 30 32C30 32.2652 30.1054 32.5196 30.2929 32.7071C30.4804 32.8946 30.7348 33 31 33Z" fill="#323232"/>
<path d="M37 33H39C39.2652 33 39.5196 32.8946 39.7071 32.7071C39.8946 32.5196 40 32.2652 40 32C40 31.7348 39.8946 31.4804 39.7071 31.2929C39.5196 31.1054 39.2652 31 39 31H37C36.7348 31 36.4804 31.1054 36.2929 31.2929C36.1054 31.4804 36 31.7348 36 32C36 32.2652 36.1054 32.5196 36.2929 32.7071C36.4804 32.8946 36.7348 33 37 33Z" fill="#323232"/>
<path d="M45 33C45.2652 33 45.5196 32.8946 45.7071 32.7071C45.8946 32.5196 46 32.2652 46 32C46 31.7348 45.8946 31.4804 45.7071 31.2929C45.5196 31.1054 45.2652 31 45 31H43C42.7348 31 42.4804 31.1054 42.2929 31.2929C42.1054 31.4804 42 31.7348 42 32C42 32.2652 42.1054 32.5196 42.2929 32.7071C42.4804 32.8946 42.7348 33 43 33H45Z" fill="#323232"/>
<path d="M52 32C52 31.7348 51.8946 31.4804 51.7071 31.2929C51.5196 31.1054 51.2652 31 51 31H49C48.7348 31 48.4804 31.1054 48.2929 31.2929C48.1054 31.4804 48 31.7348 48 32C48 32.2652 48.1054 32.5196 48.2929 32.7071C48.4804 32.8946 48.7348 33 49 33H51C51.2652 33 51.5196 32.8946 51.7071 32.7071C51.8946 32.5196 52 32.2652 52 32Z" fill="#323232"/>
<path d="M31 37H35C35.2652 37 35.5196 36.8946 35.7071 36.7071C35.8946 36.5196 36 36.2652 36 36C36 35.7348 35.8946 35.4804 35.7071 35.2929C35.5196 35.1054 35.2652 35 35 35H31C30.7348 35 30.4804 35.1054 30.2929 35.2929C30.1054 35.4804 30 35.7348 30 36C30 36.2652 30.1054 36.5196 30.2929 36.7071C30.4804 36.8946 30.7348 37 31 37Z" fill="#323232"/>
<path d="M39 37H42C42.2652 37 42.5196 36.8946 42.7071 36.7071C42.8946 36.5196 43 36.2652 43 36C43 35.7348 42.8946 35.4804 42.7071 35.2929C42.5196 35.1054 42.2652 35 42 35H39C38.7348 35 38.4804 35.1054 38.2929 35.2929C38.1054 35.4804 38 35.7348 38 36C38 36.2652 38.1054 36.5196 38.2929 36.7071C38.4804 36.8946 38.7348 37 39 37Z" fill="#323232"/>
<path d="M45 37H50C50.2652 37 50.5196 36.8946 50.7071 36.7071C50.8946 36.5196 51 36.2652 51 36C51 35.7348 50.8946 35.4804 50.7071 35.2929C50.5196 35.1054 50.2652 35 50 35H45C44.7348 35 44.4804 35.1054 44.2929 35.2929C44.1054 35.4804 44 35.7348 44 36C44 36.2652 44.1054 36.5196 44.2929 36.7071C44.4804 36.8946 44.7348 37 45 37Z" fill="#323232"/>
</svg>
