<?xml version="1.0" encoding="UTF-8" standalone="no"?> <svg xmlns="http://www.w3.org/2000/svg" width="501.286" height="512.001" viewBox="0 0 501.286 512.001">
  <g id="Layer_x0020_1" transform="translate(-99.356 -93.999)">
    <path id="Path_219" data-name="Path 219" d="M147.5,205.8H291.092v47.526H147.5a23.7,23.7,0,0,1-16.787-6.974v-.024a23.671,23.671,0,0,1-6.976-16.765h0A23.814,23.814,0,0,1,147.5,205.8Z" fill="#b2db4f"/>
    <path id="Path_220" data-name="Path 220" d="M147.5,246.251H291.092v47.526H147.5a23.7,23.7,0,0,1-16.787-6.974v-.024a23.671,23.671,0,0,1-6.976-16.765h0A23.814,23.814,0,0,1,147.5,246.251Z" fill="#f6513b"/>
    <path id="Path_221" data-name="Path 221" d="M212.825,315.064,349.956,448.932,484.229,315.111l8.467,8.514L358.55,457.319,500.543,595.932l-8.372,8.606L350.044,465.8,209.366,606l-8.466-8.515L341.451,457.407l-137-133.736Z" fill="#c8c8c8"/>
    <path id="Path_222" data-name="Path 222" d="M212.825,315.064l15.7,15.324H211.335l-6.881-6.717,8.372-8.607ZM468.9,330.388l15.328-15.276,8.467,8.513-6.785,6.763Z" fill="#b4b4b4"/>
    <path id="Path_223" data-name="Path 223" d="M455.3,210.081h12.854a18.331,18.331,0,0,1,10.723,3.354,12.464,12.464,0,0,1,5.452,10.084v20.653a12.463,12.463,0,0,1-5.452,10.084h-.022a18.3,18.3,0,0,1-10.7,3.353H455.3V210.081Z" fill="#ffc940"/>
    <path id="Path_224" data-name="Path 224" d="M522.746,242.388c-.048-.2-16.8-71.078-42.353-104.587-20.556-26.955-51.057-32.094-64.01-33.033.006.141.008.281.008.423V273.56a11.168,11.168,0,0,1-3.282,7.909l-.126.124,6.789,7.363H522.935V243.8l-.189-1.411ZM460.14,172.324Zm7.123-3.8a7.629,7.629,0,0,1,4.833,1.7c16.409,12.911,27.3,39.958,32.042,63.755a127.2,127.2,0,0,1,2.709,27.943c-.3,9.077-2.375,16.1-6.33,19.4H500.5a9.919,9.919,0,0,1-6.514,2.409h-25.6a10.988,10.988,0,0,1-7.71-3.171,10.819,10.819,0,0,1-3.267-7.723V179.825a12.86,12.86,0,0,1,2.748-7.492,10.813,10.813,0,0,1,2.588-2.4,8.275,8.275,0,0,1,4.524-1.4Zm-17.111-22.863a15.195,15.195,0,1,1-4.45-10.743A15.148,15.148,0,0,1,450.153,145.663Z" fill="#fd5834" fill-rule="evenodd"/>
    <path id="Path_225" data-name="Path 225" d="M394.894,94H405.2a11.146,11.146,0,0,1,7.886,3.282l.024.024a11.144,11.144,0,0,1,3.282,7.886V273.56A11.206,11.206,0,0,1,405.2,284.751H394.894a11.166,11.166,0,0,1-7.884-3.282l-.012-.012-.013-.012a11.174,11.174,0,0,1-3.282-7.885V105.191A11.206,11.206,0,0,1,394.894,94Z" fill="#ddedff"/>
    <path id="Path_226" data-name="Path 226" d="M469.445,179.836l.041-.033c-.025-.006-.041-.014-.041.022v.011Z" fill="#250e1e"/>
    <path id="Path_227" data-name="Path 227" d="M112.345,288.956H587.654a13.009,13.009,0,0,1,12.989,12.989V312.4a12.951,12.951,0,0,1-3.81,9.178h-.024a12.934,12.934,0,0,1-9.155,3.81H112.345a12.934,12.934,0,0,1-9.155-3.81h-.024a12.95,12.95,0,0,1-3.81-9.178V301.945a13.009,13.009,0,0,1,12.989-12.989Z" fill="#ffb236"/>
    <path id="Path_228" data-name="Path 228" d="M434.958,130.469a15.195,15.195,0,1,1-10.743,4.45A15.149,15.149,0,0,1,434.958,130.469Z" fill="#ddedff"/>
  </g>
</svg>
