<?xml version="1.0" encoding="utf-8"?>
<!-- Generator: Adobe Illustrator 26.0.2, SVG Export Plug-In . SVG Version: 6.00 Build 0)  -->
<svg version="1.1" id="Layer_3" xmlns="http://www.w3.org/2000/svg" xmlns:xlink="http://www.w3.org/1999/xlink" x="0px" y="0px"
	 viewBox="0 0 64 64" style="enable-background:new 0 0 64 64;" xml:space="preserve">
<g>
	<path style="fill:#4E71AD;" d="M34.068,11v48l1.106-0.553C35.761,58.153,36.41,58,37.068,58s1.306,0.153,1.894,0.447L40.068,59
		l1.106-0.553C41.761,58.153,42.41,58,43.068,58s1.306,0.153,1.894,0.447L46.068,59l1.106-0.553C47.761,58.153,48.41,58,49.068,58
		s1.306,0.153,1.894,0.447L52.068,59l1.106-0.553C53.761,58.153,54.41,58,55.068,58s1.306,0.153,1.894,0.447L58.068,59V11H34.068z"
		/>
	<path style="fill:#344C80;" d="M52.068,11v48l1.106-0.553C53.761,58.153,54.41,58,55.068,58s1.306,0.153,1.894,0.447L58.068,59V11
		H52.068z"/>
	<rect x="52.068" y="11" style="fill:#CCCCCC;" width="6" height="8"/>
	<path style="fill:#344C80;" d="M40.068,11v48l1.106-0.553C41.761,58.153,42.41,58,43.068,58s1.306,0.153,1.894,0.447L46.068,59V11
		H40.068z"/>
	<rect x="34.068" y="11" style="fill:#F2F2F2;" width="6" height="8"/>
	<rect x="40.068" y="11" style="fill:#CCCCCC;" width="6" height="8"/>
	<rect x="46.068" y="11" style="fill:#F2F2F2;" width="6" height="8"/>
	<path style="fill:#4E71AD;" d="M30.068,11v48l-1.106-0.553C28.374,58.153,27.725,58,27.068,58s-1.306,0.153-1.894,0.447L24.068,59
		l-1.106-0.553C22.374,58.153,21.725,58,21.068,58s-1.306,0.153-1.894,0.447L18.068,59l-1.106-0.553
		C16.374,58.153,15.725,58,15.068,58s-1.306,0.153-1.894,0.447L12.068,59l-1.106-0.553C10.374,58.153,9.725,58,9.068,58
		s-1.306,0.153-1.894,0.447L6.068,59V11H30.068z"/>
	<path style="fill:#344C80;" d="M12.068,11v48l-1.106-0.553C10.374,58.153,9.725,58,9.068,58s-1.306,0.153-1.894,0.447L6.068,59V11
		H12.068z"/>
	
		<rect x="6.068" y="11" transform="matrix(-1 4.501987e-11 -4.501987e-11 -1 18.1352 30)" style="fill:#CCCCCC;" width="6" height="8"/>
	<path style="fill:#344C80;" d="M24.068,11v48l-1.106-0.553C22.374,58.153,21.725,58,21.068,58s-1.306,0.153-1.894,0.447L18.068,59
		V11H24.068z"/>
	
		<rect x="24.068" y="11" transform="matrix(-1 4.486843e-11 -4.486843e-11 -1 54.1352 30)" style="fill:#F2F2F2;" width="6" height="8"/>
	
		<rect x="18.068" y="11" transform="matrix(-1 4.501987e-11 -4.501987e-11 -1 42.1352 30)" style="fill:#CCCCCC;" width="6" height="8"/>
	
		<rect x="12.068" y="11" transform="matrix(-1 4.486843e-11 -4.486843e-11 -1 30.1352 30)" style="fill:#F2F2F2;" width="6" height="8"/>
	<circle style="fill:#ECBB65;" cx="6.068" cy="9" r="4"/>
	<path style="fill:#92969C;" d="M9.513,7c0.344,0.59,0.555,1.268,0.555,2c0,0.732-0.211,1.41-0.555,2h45.11
		c-0.344-0.59-0.555-1.268-0.555-2c0-0.732,0.211-1.41,0.555-2H9.513z"/>
	<path style="fill:#F4D294;" d="M6.068,5c-2.209,0-4,1.791-4,4c0,0.732,0.211,1.41,0.555,2h2.445c1.657,0,3-1.343,3-3V5.555
		C7.477,5.211,6.8,5,6.068,5z"/>
	<circle style="fill:#ECBB65;" cx="58.068" cy="9" r="4"/>
	<path style="fill:#F4D294;" d="M58.068,5c-2.209,0-4,1.791-4,4c0,0.732,0.211,1.41,0.555,2h2.445c1.657,0,3-1.343,3-3V5.555
		C59.477,5.211,58.8,5,58.068,5z"/>
	<path style="fill:#C2C8D0;" d="M14.068,9h36.595c1.105,0,2-0.895,2-2H12.068C12.068,8.105,12.963,9,14.068,9z"/>
	<g>
		<path d="M63,9c0-2.757-2.243-5-5-5c-1.627,0-3.061,0.793-3.974,2H9.974C9.061,4.793,7.627,4,6,4C3.243,4,1,6.243,1,9
			c0,2.414,1.721,4.434,4,4.899V59c0,0.347,0.18,0.668,0.474,0.851c0.295,0.183,0.663,0.198,0.973,0.044l1.105-0.553
			c0.896-0.447,2-0.447,2.895,0l1.105,0.553c0.281,0.141,0.613,0.141,0.895,0l1.105-0.553c0.896-0.447,2-0.447,2.895,0l1.105,0.553
			c0.281,0.141,0.613,0.141,0.895,0l1.105-0.553c0.896-0.447,2-0.447,2.895,0l1.105,0.553c0.281,0.141,0.613,0.141,0.895,0
			l1.105-0.553c0.896-0.447,2-0.447,2.895,0l1.105,0.553C29.694,59.965,29.847,60,30,60c0.183,0,0.365-0.05,0.526-0.149
			C30.82,59.668,31,59.347,31,59V12h2v47c0,0.347,0.18,0.668,0.474,0.851s0.663,0.198,0.973,0.044l1.105-0.553
			c0.896-0.447,2-0.447,2.895,0l1.105,0.553c0.281,0.141,0.613,0.141,0.895,0l1.105-0.553c0.896-0.447,2-0.447,2.895,0l1.105,0.553
			c0.281,0.141,0.613,0.141,0.895,0l1.105-0.553c0.896-0.447,2-0.447,2.895,0l1.105,0.553c0.281,0.141,0.613,0.141,0.895,0
			l1.105-0.553c0.896-0.447,2-0.447,2.895,0l1.105,0.553C57.694,59.965,57.847,60,58,60c0.183,0,0.365-0.05,0.526-0.149
			C58.82,59.668,59,59.347,59,59V13.899C61.279,13.434,63,11.414,63,9z M45,12v6h-4v-6H45z M47,12h4v6h-4V12z M53,12h1.026
			c0.721,0.953,1.762,1.652,2.974,1.899V18h-4V12z M53.101,8C53.035,8.323,53,8.658,53,9s0.035,0.677,0.101,1H10.899
			C10.965,9.677,11,9.342,11,9s-0.035-0.677-0.101-1H53.101z M9.974,12H11v6H7v-4.101C8.213,13.652,9.253,12.953,9.974,12z M13,12h4
			v6h-4V12z M19,12h4v6h-4V12z M3,9c0-1.654,1.346-3,3-3s3,1.346,3,3s-1.346,3-3,3S3,10.654,3,9z M7,57.397V20h4v37.406
			C9.734,56.887,8.266,56.875,7,57.397z M13,57.407V20h4v37.408C15.734,56.889,14.267,56.889,13,57.407z M19,57.407V20h4v37.408
			C21.734,56.889,20.267,56.889,19,57.407z M25,57.405V20h4v37.397C27.735,56.875,26.266,56.887,25,57.405z M29,18h-4v-6h4V18z
			 M39,12v6h-4v-6H39z M35,57.397V20h4v37.405C37.735,56.887,36.267,56.875,35,57.397z M41,57.407V20h4v37.408
			C43.734,56.889,42.267,56.889,41,57.407z M47,57.407V20h4v37.408C49.734,56.889,48.267,56.889,47,57.407z M53,57.405V20h4v37.397
			C55.734,56.875,54.266,56.887,53,57.405z M58,12c-1.654,0-3-1.346-3-3s1.346-3,3-3s3,1.346,3,3S59.654,12,58,12z"/>
	</g>
</g>
</svg>
