<?xml version="1.0" encoding="UTF-8" standalone="no"?> <svg width="64" height="64" viewBox="0 0 64 64" fill="none" xmlns="http://www.w3.org/2000/svg">
<path d="M50 61L48 45C48 45 44 26 43 25C42 24 23 37 23 38C23 39 29 50 29 50V61H50Z" fill="#FCBC04"/>
<path d="M35.056 45.187C35.2256 43.9416 35.6827 42.7527 36.3912 41.7144C37.0997 40.6761 38.0401 39.817 39.138 39.205L45.863 35.323C44.741 30.464 43.5 25.5 43 25C42 24 23 37 23 38C23 39 29 50 29 50V61H50L49.9 60.212C49.6858 58.4971 48.8527 56.9195 47.5572 55.7757C46.2618 54.6318 44.5932 54.0003 42.865 54V54C41.7521 53.9999 40.6519 53.7636 39.6371 53.3069C38.6223 52.8501 37.7159 52.1832 36.9778 51.3503C36.2398 50.5174 35.6869 49.5373 35.3556 48.4749C35.0243 47.4124 34.9222 46.2918 35.056 45.187V45.187Z" fill="#E59730"/>
<path d="M25 42C25.0185 41.4255 24.9091 40.8541 24.6796 40.3271C24.4502 39.8001 24.1064 39.3308 23.6732 38.953C23.24 38.5752 22.7282 38.2985 22.1749 38.1428C21.6216 37.9872 21.0406 37.9565 20.474 38.053C20.1302 37.4325 19.6269 36.9151 19.0162 36.5541C18.4054 36.1932 17.7094 36.0019 17 36C17 34.9391 16.5786 33.9217 15.8284 33.1716C15.0783 32.4214 14.0609 32 13 32C12.884 32 12.775 32.024 12.662 32.034C11.8859 31.3412 10.8701 30.9787 9.83077 31.0238C8.79144 31.0688 7.81075 31.5177 7.0975 32.2751C6.38426 33.0324 5.99481 34.0382 6.01209 35.0783C6.02936 36.1185 6.452 37.1108 7.19001 37.844C6.97637 38.4977 6.94199 39.1968 7.09044 39.8683C7.23888 40.5398 7.56473 41.1592 8.03401 41.662C8.01605 41.7739 8.00469 41.8868 8.00001 42C8.00001 42.7957 8.31608 43.5587 8.87868 44.1213C9.44129 44.6839 10.2044 45 11 45C11.3482 44.9969 11.6931 44.9326 12.019 44.81C12.019 44.874 12 44.935 12 45C12.0026 45.6481 12.2151 46.278 12.6056 46.7953C12.9961 47.3126 13.5436 47.6895 14.1662 47.8697C14.7888 48.0498 15.453 48.0235 16.0594 47.7946C16.6658 47.5657 17.1817 47.1466 17.53 46.6C18.1241 46.9462 18.8207 47.0733 19.4989 46.9593C20.177 46.8453 20.7937 46.4974 21.242 45.976C22.2571 45.9169 23.2113 45.4725 23.9097 44.7335C24.6082 43.9945 24.9982 43.0168 25 42V42Z" fill="#57B7EB"/>
<path d="M21 38C20.8237 38.0059 20.648 38.0236 20.474 38.053C20.1302 37.4325 19.6269 36.915 19.0161 36.5541C18.4054 36.1932 17.7094 36.0019 17 36C17 34.9391 16.5786 33.9217 15.8284 33.1715C15.0783 32.4214 14.0609 32 13 32C12.884 32 12.775 32.024 12.662 32.034C11.9548 31.3876 11.0381 31.0181 10.0803 30.9934C9.12251 30.9687 8.18797 31.2904 7.44834 31.8994C6.70871 32.5084 6.21367 33.3638 6.05414 34.3086C5.89462 35.2533 6.08134 36.2239 6.57999 37.042C6.71919 37.0209 6.85937 37.0068 6.99999 37C8.06086 37 9.07827 37.4214 9.82842 38.1715C10.5786 38.9217 11 39.9391 11 41C11 41.034 10.991 41.066 10.99 41.1C11.8191 41.2695 12.5915 41.6472 13.2345 42.1973C13.8776 42.7475 14.3701 43.4521 14.666 44.245C15.1754 44.0561 15.7185 43.9748 16.2609 44.0063C16.8033 44.0378 17.3333 44.1815 17.8174 44.4281C18.3015 44.6748 18.7292 45.0191 19.0736 45.4394C19.4179 45.8597 19.6714 46.3468 19.818 46.87C20.3678 46.7129 20.8616 46.4029 21.242 45.976C22.2822 45.9192 23.259 45.458 23.9638 44.6908C24.6686 43.9235 25.0454 42.9112 25.0138 41.8699C24.9822 40.8286 24.5447 39.8409 23.7947 39.1178C23.0447 38.3947 22.0418 37.9935 21 38V38Z" fill="#4891D3"/>
<path d="M37.9907 3.53662L12.0099 18.5366C10.0967 19.6412 9.44124 22.0876 10.5458 24.0007L20.5458 41.3212C21.6504 43.2344 24.0967 43.8899 26.0099 42.7853L51.9907 27.7853C53.9038 26.6808 54.5593 24.2344 53.4548 22.3212L43.4548 5.00072C42.3502 3.08755 39.9038 2.43205 37.9907 3.53662Z" fill="#F0F0F0"/>
<path d="M51.263 18.526L44.653 7.07597C44.156 6.95911 43.6372 6.97225 43.1468 7.11414C42.6563 7.25603 42.2107 7.52188 41.8528 7.88606C41.495 8.25023 41.237 8.70046 41.1037 9.19333C40.9705 9.6862 40.9664 10.2051 41.092 10.7C40.7551 10.9742 40.4826 11.3192 40.2939 11.7104C40.1052 12.1017 40.0048 12.5297 40 12.964C39.9951 13.3984 40.0858 13.8285 40.2657 14.2239C40.4456 14.6193 40.7103 14.9703 41.041 15.252C40.7909 15.3881 40.5728 15.5762 40.4014 15.8036C40.23 16.0311 40.1094 16.2926 40.0474 16.5705C39.9855 16.8485 39.9838 17.1365 40.0425 17.4151C40.1011 17.6938 40.2188 17.9567 40.3875 18.1861C40.5562 18.4155 40.772 18.6061 41.0205 18.7452C41.269 18.8843 41.5444 18.9685 41.8282 18.9923C42.112 19.016 42.3976 18.9788 42.6657 18.883C42.9339 18.7872 43.1785 18.6351 43.383 18.437C43.7187 19.0685 44.2731 19.5561 44.9424 19.8082C45.6117 20.0604 46.35 20.06 47.019 19.807C47.013 19.871 47 19.932 47 19.997C47 20.3097 47.0733 20.6181 47.2141 20.8974C47.355 21.1766 47.5593 21.419 47.8107 21.605C48.0622 21.7909 48.3538 21.9153 48.662 21.9682C48.9703 22.021 49.2866 22.0009 49.5857 21.9093C49.8847 21.8177 50.1581 21.6573 50.3839 21.4408C50.6097 21.2244 50.7816 20.9581 50.8858 20.6632C50.9899 20.3683 51.0235 20.0531 50.9838 19.7429C50.9441 19.4327 50.8321 19.1361 50.657 18.877C50.8782 18.7967 51.0833 18.6779 51.263 18.526V18.526Z" fill="#D0D8DA"/>
<path d="M46.33 27.7849C46.262 27.8249 46.192 27.8589 46.123 27.8979C45.6918 27.4552 45.2205 27.0535 44.715 26.6979L40.583 23.8049C39.8759 23.3095 39.0052 23.1051 38.1515 23.2342C37.2978 23.3632 36.5264 23.8157 35.9973 24.498C35.4681 25.1802 35.2218 26.0399 35.3092 26.8989C35.3967 27.7579 35.8112 28.5503 36.467 29.1119L38.288 30.6719C33.4659 31.4772 28.5128 30.7911 24.0912 28.7053C19.6696 26.6195 15.9902 23.2334 13.545 18.9999C13.3517 18.6524 13.2115 18.2779 13.129 17.8889L12.01 18.5359C11.555 18.7985 11.1562 19.1481 10.8364 19.5648C10.5165 19.9815 10.2819 20.4571 10.1458 20.9645C10.0098 21.4719 9.97502 22.0011 10.0435 22.5219C10.112 23.0427 10.2824 23.545 10.545 23.9999L20.545 41.3199C20.8077 41.7749 21.1574 42.1738 21.5742 42.4936C21.991 42.8134 22.4667 43.048 22.9742 43.184C23.4817 43.3199 24.011 43.3546 24.5319 43.2859C25.0528 43.2173 25.5551 43.0467 26.01 42.7839L51.99 27.7839C52.7286 27.3555 53.3101 26.7011 53.6488 25.9172C53.9874 25.1333 54.0653 24.2614 53.871 23.4299L46.33 27.7849Z" fill="#D0D8DA"/>
<path d="M24.005 39.32L15.005 23.733C14.8737 23.5053 14.7886 23.2539 14.7545 22.9932C14.7204 22.7326 14.7381 22.4678 14.8064 22.2139C14.8748 21.9601 14.9925 21.7222 15.1529 21.5139C15.3132 21.3056 15.5131 21.131 15.741 21L38.258 8C38.7173 7.7348 39.2632 7.66293 39.7756 7.8002C40.2879 7.93748 40.7248 8.27265 40.99 8.732L48.99 22.588C49.2552 23.0474 49.3271 23.5933 49.1898 24.1056C49.0525 24.6179 48.7173 25.0548 48.258 25.32L24.01 39.32H24.005Z" fill="#D0D8DA"/>
<path d="M48.99 22.589L40.99 8.73299C40.8588 8.50546 40.684 8.30601 40.4757 8.14604C40.2673 7.98606 40.0295 7.86869 39.7758 7.80062C39.5221 7.73255 39.2575 7.71513 38.9971 7.74933C38.7367 7.78354 38.4855 7.86872 38.258 7.99999L15.741 21C15.2817 21.2652 14.9465 21.702 14.8092 22.2144C14.6719 22.7267 14.7438 23.2726 15.009 23.732L15.058 23.817L15.175 23.75L15.242 23.866C15.439 24.2074 15.7013 24.5067 16.0139 24.7468C16.3266 24.9869 16.6835 25.163 17.0642 25.2651C17.4449 25.3673 17.842 25.3934 18.2328 25.3421C18.6237 25.2908 19.0006 25.163 19.342 24.966C19.6834 24.769 19.9827 24.5067 20.2228 24.1941C20.4629 23.8814 20.639 23.5245 20.7411 23.1438C20.8433 22.7631 20.8694 22.366 20.8181 21.9751C20.7668 21.5843 20.639 21.2074 20.442 20.866C20.639 21.2074 20.9013 21.5067 21.2139 21.7468C21.5266 21.9869 21.8835 22.163 22.2642 22.2651C22.6449 22.3673 23.042 22.3934 23.4328 22.3421C23.8237 22.2908 24.2006 22.163 24.542 21.966C24.8834 21.769 25.1827 21.5067 25.4228 21.1941C25.6629 20.8814 25.839 20.5245 25.9411 20.1438C26.0433 19.7631 26.0694 19.366 26.0181 18.9751C25.9668 18.5843 25.839 18.2074 25.642 17.866C26.0398 18.5556 26.6953 19.0588 27.4642 19.2651C28.2331 19.4714 29.0524 19.3638 29.742 18.966C30.4316 18.5682 30.9349 17.9127 31.1411 17.1438C31.3474 16.3749 31.2398 15.5556 30.842 14.866C31.2398 15.5556 31.8953 16.0588 32.6642 16.2651C33.4331 16.4714 34.2524 16.3638 34.942 15.966C35.6316 15.5682 36.1349 14.9127 36.3411 14.1438C36.5474 13.3749 36.4398 12.5556 36.042 11.866L35.975 11.75L37.275 11C37.7344 10.7348 38.2803 10.6629 38.7926 10.8002C39.3049 10.9375 39.7418 11.2726 40.007 11.732L47.941 25.5L48.258 25.317C48.7163 25.0518 49.0507 24.6157 49.1879 24.1043C49.3251 23.5929 49.2539 23.048 48.99 22.589V22.589Z" fill="#93999A"/>
<path d="M40 16.9999C40.0009 17.3914 40.1167 17.7739 40.333 18.1002C40.5492 18.4265 40.8565 18.6821 41.2167 18.8354C41.5768 18.9887 41.9741 19.033 42.3592 18.9627C42.7442 18.8924 43.1002 18.7106 43.383 18.4399C43.7187 19.0715 44.2731 19.559 44.9424 19.8112C45.6117 20.0634 46.35 20.0629 47.019 19.8099C47.013 19.8739 47 19.9349 47 19.9999C47.0005 20.4655 47.1633 20.9163 47.4605 21.2746C47.7577 21.6329 48.1706 21.8764 48.628 21.9629L41.17 9.04395C40.974 9.57577 40.9468 10.1551 41.092 10.7029C40.7551 10.9772 40.4826 11.3221 40.2939 11.7134C40.1052 12.1046 40.0048 12.5326 40 12.967C39.9951 13.4014 40.0858 13.8315 40.2657 14.2269C40.4456 14.6223 40.7103 14.9732 41.041 15.2549C40.7268 15.4256 40.4644 15.6777 40.2813 15.9847C40.0981 16.2918 40.0009 16.6424 40 16.9999V16.9999Z" fill="#93999A"/>
<path d="M24.01 39.3209L24.013 39.3219L24.01 39.3209Z" fill="#93999A"/>
<path d="M44.715 26.6999L40.583 23.8069C39.8758 23.3115 39.0052 23.1071 38.1515 23.2362C37.2978 23.3652 36.5264 23.8177 35.9973 24.5C35.4681 25.1822 35.2217 26.0419 35.3092 26.9009C35.3966 27.7599 35.8112 28.5523 36.467 29.1139L38.288 30.6739C33.9658 31.3916 29.5297 30.913 25.46 29.2901C21.3904 27.6672 17.8423 24.9618 15.2 21.4669C14.9418 21.7805 14.7852 22.1653 14.7511 22.5701C14.717 22.9749 14.8069 23.3805 15.009 23.7329L24.009 39.3199H24.014L45.214 27.0809C45.046 26.9529 44.886 26.8199 44.715 26.6999Z" fill="#93999A"/>
<path d="M27 33C28.1046 33 29 32.1046 29 31C29 29.8954 28.1046 29 27 29C25.8954 29 25 29.8954 25 31C25 32.1046 25.8954 33 27 33Z" fill="#84D2F4"/>
<path d="M24 53C24 53.5304 23.7893 54.0391 23.4142 54.4142C23.0391 54.7893 22.5304 55 22 55C21.4696 55 20.9609 54.7893 20.5858 54.4142C20.2107 54.0391 20 53.5304 20 53C20 51.9 20.895 50 22 50C23.105 50 24 51.9 24 53Z" fill="#84D2F4"/>
<path d="M30 26C31.1046 26 32 25.1046 32 24C32 22.8954 31.1046 22 30 22C28.8954 22 28 22.8954 28 24C28 25.1046 28.8954 26 30 26Z" fill="#84D2F4"/>
<path d="M20.383 34.7999C20.6843 34.4088 20.8835 33.9488 20.9626 33.4615C21.0417 32.9741 20.9982 32.4747 20.8361 32.0084C20.674 31.542 20.3983 31.1234 20.0339 30.7902C19.6695 30.457 19.228 30.2198 18.749 30.0999C18.73 30.0829 18.709 30.0689 18.691 30.0519C18.8517 29.7976 18.9528 29.5101 18.9866 29.2112C19.0204 28.9122 18.9862 28.6094 18.8864 28.3256C18.7866 28.0417 18.6238 27.7841 18.4104 27.5721C18.1969 27.3601 17.9382 27.1991 17.6536 27.1013C17.3691 27.0034 17.0661 26.9713 16.7674 27.0072C16.4687 27.043 16.1819 27.1461 15.9287 27.3085C15.6754 27.471 15.4622 27.6886 15.305 27.9452C15.1478 28.2017 15.0507 28.4905 15.021 28.7899C14.4705 28.282 13.749 27.9999 13 27.9999C12.935 27.9999 12.874 28.0149 12.81 28.0189C12.9326 27.693 12.9969 27.3481 13 26.9999C13.0028 26.4965 12.879 26.0004 12.6398 25.5575C12.4005 25.1145 12.0537 24.7388 11.6312 24.4651C11.2086 24.1914 10.724 24.0284 10.2219 23.9911C9.71987 23.9539 9.2165 24.0436 8.75822 24.252C8.29993 24.4604 7.90145 24.7808 7.5995 25.1836C7.29756 25.5865 7.10184 26.0588 7.0304 26.5572C6.95896 27.0555 7.01408 27.5639 7.19069 28.0353C7.36729 28.5068 7.65971 28.9262 8.04099 29.2549C7.79087 29.3911 7.5728 29.5792 7.40142 29.8066C7.23005 30.034 7.10935 30.2955 7.04744 30.5735C6.98553 30.8514 6.98385 31.1394 7.0425 31.4181C7.10115 31.6968 7.21877 31.9596 7.38747 32.1891C7.55617 32.4185 7.77203 32.6091 8.02054 32.7482C8.26904 32.8872 8.54444 32.9715 8.82822 32.9952C9.11199 33.019 9.39756 32.9818 9.66574 32.886C9.93392 32.7902 10.1785 32.6381 10.383 32.4399C10.4943 32.6414 10.6285 32.8293 10.783 32.9999C10.329 33.4932 10.0545 34.1251 10.0039 34.7936C9.95326 35.4621 10.1294 36.1281 10.504 36.6841C10.8785 37.2401 11.4295 37.6537 12.068 37.858C12.7065 38.0622 13.3953 38.0453 14.023 37.8099C14.023 37.8749 14.004 37.9349 14.004 37.9999C14.0018 38.6832 14.1747 39.3556 14.5062 39.9531C14.8376 40.5506 15.3166 41.0532 15.8975 41.413C16.4783 41.7728 17.1416 41.9779 17.8242 42.0086C18.5068 42.0393 19.1858 41.8946 19.7966 41.5884C20.4074 41.2822 20.9296 40.8246 21.3134 40.2593C21.6972 39.694 21.9297 39.0398 21.9889 38.3592C22.0481 37.6785 21.932 36.994 21.6515 36.3709C21.3711 35.7478 20.9358 35.207 20.387 34.7999H20.383Z" fill="#84D2F4"/>
<path d="M20 36.9999C19.1127 36.9984 18.2511 36.7013 17.5515 36.1555C16.8519 35.6096 16.3542 34.8462 16.137 33.9859C16.091 33.9859 16.047 33.9999 16 33.9999C15.4255 34.0184 14.8541 33.909 14.3271 33.6795C13.8001 33.4501 13.3307 33.1063 12.953 32.6731C12.5752 32.2399 12.2985 31.7281 12.1428 31.1748C11.9871 30.6215 11.9565 30.0405 12.053 29.4739C11.5921 29.2229 11.1861 28.8823 10.8589 28.472C10.5316 28.0618 10.2898 27.5902 10.1475 27.0851C10.0052 26.58 9.96537 26.0515 10.0304 25.5308C10.0954 25.01 10.2639 24.5075 10.526 24.0529C10.3525 24.02 10.1765 24.0022 9.99998 23.9999C9.38861 23.9973 8.79117 24.1824 8.28827 24.53C7.78537 24.8777 7.40123 25.3713 7.18767 25.9442C6.97411 26.517 6.94142 27.1416 7.09401 27.7336C7.2466 28.3257 7.57713 28.8566 8.04098 29.2549C7.79086 29.391 7.57279 29.5791 7.40142 29.8066C7.23004 30.034 7.10934 30.2955 7.04744 30.5734C6.98553 30.8514 6.98384 31.1394 7.04249 31.4181C7.10114 31.6967 7.21877 31.9596 7.38747 32.189C7.55616 32.4184 7.77202 32.6091 8.02053 32.7481C8.26904 32.8872 8.54443 32.9714 8.82821 32.9952C9.11198 33.019 9.39756 32.9817 9.66573 32.8859C9.93391 32.7902 10.1785 32.6381 10.383 32.4399C10.4943 32.6414 10.6285 32.8293 10.783 32.9999C10.329 33.4932 10.0545 34.1251 10.0039 34.7936C9.95325 35.462 10.1294 36.1281 10.504 36.6841C10.8785 37.2401 11.4295 37.6536 12.068 37.8579C12.7065 38.0622 13.3953 38.0453 14.023 37.8099C14.023 37.8749 14.004 37.9349 14.004 37.9999C14.004 39.0608 14.4254 40.0782 15.1756 40.8283C15.9257 41.5785 16.9431 41.9999 18.004 41.9999C19.0648 41.9999 20.0823 41.5785 20.8324 40.8283C21.5826 40.0782 22.004 39.0608 22.004 37.9999C22.004 37.5168 21.9152 37.0379 21.742 36.5869C21.2006 36.8562 20.6046 36.9974 20 36.9999V36.9999Z" fill="#57B7EB"/>
<path d="M34.0261 4.67107C33.1977 3.2362 31.3629 2.74457 29.928 3.573C28.4931 4.40142 28.0015 6.2362 28.8299 7.67107L31.8299 12.8672C32.6584 14.3021 34.4931 14.7937 35.928 13.9653C37.3629 13.1369 37.8545 11.3021 37.0261 9.86723L34.0261 4.67107Z" fill="#F9E109"/>
<path d="M28.8302 7.6712C28.0018 6.23632 26.167 5.74469 24.7321 6.57312C23.2972 7.40155 22.8056 9.23632 23.634 10.6712L26.634 15.8673C27.4625 17.3022 29.2972 17.7939 30.7321 16.9654C32.167 16.137 32.6586 14.3022 31.8302 12.8673L28.8302 7.6712Z" fill="#F9E109"/>
<path d="M23.6343 10.6712C22.8059 9.23632 20.9711 8.74469 19.5362 9.57312C18.1014 10.4015 17.6097 12.2363 18.4382 13.6712L21.4382 18.8673C22.2666 20.3022 24.1014 20.7939 25.5362 19.9654C26.9711 19.137 27.4628 17.3022 26.6343 15.8673L23.6343 10.6712Z" fill="#F9E109"/>
<path d="M18.4385 13.6703C17.61 12.2355 15.7753 11.7438 14.3404 12.5723C12.9055 13.4007 12.4139 15.2355 13.2423 16.6703L16.2423 21.8665C17.0707 23.3014 18.9055 23.793 20.3404 22.9646C21.7753 22.1361 22.2669 20.3014 21.4385 18.8665L18.4385 13.6703Z" fill="#F9E109"/>
<path d="M23.013 42.3219L23.01 42.3209L23.013 42.3219Z" fill="#D0D8DA"/>
<path d="M33.83 9.86694L30.83 4.66694C30.5986 4.2598 30.4667 3.80374 30.445 3.33594C30.0252 3.47784 29.6424 3.71154 29.3243 4.02002C29.0062 4.32851 28.7609 4.70402 28.6062 5.11924C28.4515 5.53446 28.3914 5.97894 28.4301 6.42035C28.4688 6.86175 28.6054 7.28898 28.83 7.67094L31.83 12.8709C32.166 13.456 32.69 13.9103 33.3167 14.1601C33.9435 14.4099 34.6363 14.4405 35.2827 14.247C35.929 14.0535 36.491 13.6471 36.8773 13.094C37.2637 12.5409 37.4518 11.8734 37.411 11.1999C36.7522 11.4286 36.0344 11.4206 35.3808 11.1773C34.7273 10.934 34.1789 10.4707 33.83 9.86694V9.86694Z" fill="#FCBC04"/>
<path d="M28.634 12.8669L25.634 7.66694C25.4026 7.2598 25.2707 6.80374 25.249 6.33594C24.8298 6.47797 24.4475 6.71157 24.1299 7.01977C23.8122 7.32796 23.5672 7.70303 23.4125 8.11773C23.2579 8.53244 23.1975 8.97637 23.2358 9.41731C23.2741 9.85825 23.4102 10.2851 23.634 10.6669L26.634 15.8669C26.97 16.4516 27.4935 16.9056 28.1198 17.1554C28.7461 17.4051 29.4384 17.4361 30.0845 17.2431C30.7306 17.0501 31.2925 16.6446 31.6792 16.0922C32.0659 15.5398 32.2547 14.873 32.215 14.1999C31.5562 14.4286 30.8384 14.4206 30.1848 14.1773C29.5313 13.934 28.9829 13.4707 28.634 12.8669V12.8669Z" fill="#FCBC04"/>
<path d="M23.438 15.8669L20.438 10.6669C20.2066 10.2598 20.0747 9.80374 20.053 9.33594C19.6338 9.47797 19.2515 9.71157 18.9338 10.0198C18.6162 10.328 18.3711 10.703 18.2165 11.1177C18.0619 11.5324 18.0015 11.9764 18.0398 12.4173C18.0781 12.8582 18.2141 13.2851 18.438 13.6669L21.438 18.8669C21.7739 19.4516 22.2975 19.9056 22.9238 20.1554C23.5501 20.4051 24.2424 20.4361 24.8885 20.2431C25.5346 20.0501 26.0965 19.6446 26.4832 19.0922C26.8699 18.5398 27.0587 17.873 27.019 17.1999C26.3602 17.4286 25.6423 17.4206 24.9888 17.1773C24.3353 16.934 23.7869 16.4707 23.438 15.8669V15.8669Z" fill="#FCBC04"/>
<path d="M18.242 18.8669L15.242 13.6669C15.0101 13.26 14.8782 12.8038 14.857 12.3359C14.4378 12.478 14.0555 12.7116 13.7379 13.0198C13.4202 13.328 13.1752 13.703 13.0205 14.1177C12.8659 14.5324 12.8055 14.9764 12.8438 15.4173C12.8821 15.8582 13.0182 16.2851 13.242 16.6669L16.242 21.8669C16.578 22.4516 17.1015 22.9056 17.7278 23.1554C18.3541 23.4051 19.0464 23.4361 19.6925 23.2431C20.3386 23.0501 20.9005 22.6446 21.2872 22.0922C21.6739 21.5398 21.8627 20.873 21.823 20.1999C21.1642 20.4286 20.4464 20.4206 19.7928 20.1773C19.1393 19.934 18.5909 19.4707 18.242 18.8669V18.8669Z" fill="#FCBC04"/>
<path d="M38 41L43 36V31L38.467 27.115C37.805 26.5475 37.3893 25.745 37.3078 24.8768C37.2263 24.0087 37.4852 23.1428 38.03 22.462V22.462C38.5637 21.7948 39.3315 21.356 40.1771 21.2345C41.0228 21.113 41.883 21.3181 42.583 21.808L46.715 24.7C48.8236 26.1753 50.2819 28.4073 50.786 30.931L51.564 34.817C51.8478 36.2369 51.6843 37.7099 51.096 39.033L48 46L47.121 47.464C46.5075 48.4871 45.5814 49.286 44.4792 49.7426C43.3771 50.1992 42.1573 50.2895 41 50V50L38 41Z" fill="#F9E109"/>
<path d="M54 15C53.9991 14.5056 53.8143 14.0292 53.4816 13.6634C53.1489 13.2976 52.6921 13.0687 52.2 13.021C52.6589 12.5301 52.9386 11.8985 52.9937 11.2288C53.0487 10.559 52.8759 9.89024 52.5032 9.33099C52.1306 8.77173 51.58 8.35474 50.9406 8.14764C50.3013 7.94054 49.6108 7.95546 48.981 8.19C48.981 8.126 49 8.065 49 8C49 7.20435 48.6839 6.44129 48.1213 5.87868C47.5587 5.31607 46.7956 5 46 5C45.2043 5 44.4413 5.31607 43.8787 5.87868C43.3161 6.44129 43 7.20435 43 8C43.0026 8.23617 43.0335 8.47117 43.092 8.7C42.7551 8.97422 42.4826 9.31918 42.2939 9.71044C42.1052 10.1017 42.0048 10.5297 42 10.9641C41.9951 11.3984 42.0858 11.8285 42.2657 12.2239C42.4456 12.6193 42.7103 12.9703 43.041 13.252C42.7909 13.3881 42.5728 13.5762 42.4014 13.8037C42.23 14.0311 42.1094 14.2926 42.0474 14.5705C41.9855 14.8485 41.9838 15.1365 42.0425 15.4151C42.1011 15.6938 42.2188 15.9567 42.3875 16.1861C42.5562 16.4155 42.772 16.6062 43.0205 16.7452C43.269 16.8843 43.5444 16.9685 43.8282 16.9923C44.112 17.0161 44.3976 16.9788 44.6657 16.883C44.9339 16.7872 45.1785 16.6352 45.383 16.437C45.7187 17.0686 46.2731 17.5561 46.9424 17.8083C47.6117 18.0604 48.35 18.06 49.019 17.807C49.013 17.871 49 17.932 49 17.997C49 18.3098 49.0733 18.6181 49.2141 18.8974C49.355 19.1767 49.5593 19.419 49.8107 19.605C50.0622 19.791 50.3538 19.9154 50.662 19.9682C50.9703 20.0211 51.2866 20.0009 51.5857 19.9093C51.8847 19.8177 52.1581 19.6573 52.3839 19.4409C52.6097 19.2245 52.7816 18.9581 52.8858 18.6632C52.9899 18.3683 53.0235 18.0531 52.9838 17.7429C52.9441 17.4327 52.8321 17.1361 52.657 16.877C53.0479 16.7421 53.3872 16.489 53.6278 16.1527C53.8685 15.8164 53.9985 15.4135 54 15V15Z" fill="#84D2F4"/>
<path d="M52 15C51.4853 14.9978 50.9759 14.8959 50.5 14.7C49.7289 15.0189 48.877 15.0873 48.0649 14.8954C47.2528 14.7036 46.5216 14.2612 45.9748 13.6308C45.4279 13.0005 45.0932 12.2142 45.0178 11.3831C44.9425 10.5521 45.1304 9.71837 45.555 9C45.1963 8.40408 45.0046 7.7226 45 7.02706C44.9954 6.33153 45.1781 5.64758 45.529 5.047C44.8249 5.15749 44.1833 5.51561 43.7197 6.05694C43.2561 6.59828 43.0009 7.28728 43 8C43.0026 8.23616 43.0335 8.47116 43.092 8.7C42.7551 8.97421 42.4826 9.31918 42.2939 9.71044C42.1052 10.1017 42.0048 10.5297 42 10.964C41.9951 11.3984 42.0858 11.8285 42.2657 12.2239C42.4456 12.6193 42.7103 12.9703 43.041 13.252C42.7909 13.3881 42.5728 13.5762 42.4014 13.8037C42.23 14.0311 42.1094 14.2926 42.0474 14.5705C41.9855 14.8485 41.9838 15.1365 42.0425 15.4151C42.1011 15.6938 42.2188 15.9567 42.3875 16.1861C42.5562 16.4155 42.772 16.6062 43.0205 16.7452C43.269 16.8843 43.5444 16.9685 43.8282 16.9923C44.112 17.0161 44.3976 16.9788 44.6657 16.883C44.9339 16.7872 45.1785 16.6352 45.383 16.437C45.7187 17.0686 46.2731 17.5561 46.9424 17.8083C47.6117 18.0604 48.35 18.06 49.019 17.807C49.013 17.871 49 17.932 49 17.997C49 18.3097 49.0733 18.6181 49.2141 18.8974C49.355 19.1767 49.5593 19.419 49.8107 19.605C50.0622 19.791 50.3538 19.9154 50.662 19.9682C50.9703 20.0211 51.2866 20.0009 51.5857 19.9093C51.8847 19.8177 52.1581 19.6573 52.3839 19.4409C52.6097 19.2245 52.7816 18.9581 52.8858 18.6632C52.9899 18.3683 53.0235 18.0531 52.9838 17.7429C52.9441 17.4327 52.8321 17.1361 52.657 16.877C53.0479 16.7421 53.3872 16.489 53.6278 16.1527C53.8685 15.8164 53.9985 15.4135 54 15C53.9978 14.826 53.9722 14.6532 53.924 14.486C53.3372 14.8191 52.6747 14.996 52 15V15Z" fill="#57B7EB"/>
<path d="M15.44 55.383C15.7777 55.0374 15.9782 54.5808 16.0043 54.0983C16.0303 53.6158 15.8801 53.1403 15.5816 52.7604C15.2831 52.3804 14.8567 52.1219 14.3817 52.0329C13.9068 51.944 13.4157 52.0308 13 52.277C12.6971 52.0977 12.352 52.0021 12 52V52C12 51.6044 11.8827 51.2178 11.6629 50.8889C11.4432 50.56 11.1308 50.3036 10.7654 50.1522C10.3999 50.0009 9.99778 49.9613 9.60982 50.0384C9.22186 50.1156 8.86549 50.3061 8.58579 50.5858C8.30608 50.8655 8.1156 51.2219 8.03843 51.6098C7.96126 51.9978 8.00087 52.3999 8.15224 52.7654C8.30362 53.1308 8.55996 53.4432 8.88886 53.6629C9.21776 53.8827 9.60444 54 10 54V54C10.0009 54.4944 10.1857 54.9708 10.5184 55.3366C10.8511 55.7024 11.3079 55.9313 11.8 55.979C11.3767 56.4384 11.1074 57.0184 11.0295 57.6382C10.9517 58.2579 11.0692 58.8865 11.3658 59.4363C11.6624 59.986 12.1231 60.4295 12.6838 60.7048C13.2445 60.9802 13.8772 61.0736 14.4935 60.9721C15.1099 60.8706 15.6792 60.5793 16.122 60.1387C16.5648 59.6982 16.8591 59.1304 16.9637 58.5146C17.0684 57.8988 16.9782 57.2656 16.7058 56.7035C16.4333 56.1414 15.9922 55.6784 15.444 55.379L15.44 55.383Z" fill="#84D2F4"/>
<path d="M31 24.9999C30.4695 24.9999 29.9608 24.7892 29.5858 24.4141C29.2107 24.0391 29 23.5304 29 22.9999C29.0005 22.7169 29.0619 22.4372 29.18 22.1799C28.8834 22.3118 28.6234 22.5138 28.4223 22.7686C28.2213 23.0234 28.0853 23.3233 28.026 23.6425C27.9668 23.9616 27.9861 24.2903 28.0823 24.6003C28.1785 24.9103 28.3487 25.1922 28.5782 25.4217C28.8077 25.6512 29.0896 25.8214 29.3996 25.9176C29.7096 26.0138 30.0383 26.0331 30.3575 25.9739C30.6766 25.9146 30.9765 25.7786 31.2313 25.5776C31.4861 25.3765 31.6881 25.1165 31.82 24.8199C31.5626 24.9376 31.283 24.9989 31 24.9999V24.9999Z" fill="#57B7EB"/>
<path d="M28 31.9999C27.4695 31.9999 26.9608 31.7892 26.5858 31.4141C26.2107 31.0391 26 30.5304 26 29.9999C26.0005 29.7169 26.0619 29.4372 26.18 29.1799C25.8834 29.3118 25.6234 29.5138 25.4223 29.7686C25.2213 30.0234 25.0853 30.3233 25.026 30.6425C24.9668 30.9616 24.9861 31.2903 25.0823 31.6003C25.1785 31.9103 25.3487 32.1922 25.5782 32.4217C25.8077 32.6512 26.0896 32.8214 26.3996 32.9176C26.7096 33.0138 27.0383 33.0331 27.3575 32.9739C27.6766 32.9146 27.9765 32.7786 28.2313 32.5776C28.4861 32.3765 28.6881 32.1165 28.82 31.8199C28.5626 31.9376 28.283 31.9989 28 31.9999V31.9999Z" fill="#57B7EB"/>
<path d="M38.467 27.115L43 31V36L38 41L41 50C42.1573 50.2894 43.3771 50.1992 44.4792 49.7426C45.5813 49.286 46.5075 48.4871 47.121 47.464L48 46L49.058 43.619C48.5114 43.2219 48.1176 42.6492 47.9425 41.9967C47.7674 41.3442 47.8216 40.6513 48.096 40.034V40.034C48.6838 38.7107 48.8473 37.2379 48.564 35.818L47.786 31.932C47.2822 29.4079 45.8239 27.1755 43.715 25.7L39.69 22.883C39.2458 22.5756 38.739 22.3706 38.206 22.283C38.149 22.345 38.084 22.397 38.03 22.464C37.4858 23.1447 37.2272 24.0101 37.3088 24.8778C37.3903 25.7454 37.8055 26.5475 38.467 27.115V27.115Z" fill="#FCBC04"/>
<path d="M23 53C22.4696 53 21.9609 52.7893 21.5858 52.4142C21.2107 52.0391 21 51.5304 21 51C21.0032 50.8249 21.023 50.6504 21.059 50.479C20.4261 51.1722 20.052 52.0628 20 53C20 53.5304 20.2107 54.0391 20.5858 54.4142C20.9609 54.7893 21.4696 55 22 55C22.5304 55 23.0391 54.7893 23.4142 54.4142C23.7893 54.0391 24 53.5304 24 53C24 52.918 23.985 52.825 23.976 52.736C23.6789 52.9068 23.3427 52.9978 23 53Z" fill="#57B7EB"/>
<path d="M16 58.9999C15.2044 58.9999 14.4413 58.6839 13.8787 58.1213C13.3161 57.5586 13 56.7956 13 55.9999C13.0033 55.4835 13.1411 54.9768 13.4 54.5299C12.8299 54.1664 12.3992 53.6209 12.178 52.9819C12.118 52.9819 12.061 52.9999 12 52.9999C11.2518 52.9984 10.5313 52.7165 9.98076 52.2098C9.4302 51.7031 9.08954 51.0085 9.02601 50.2629C8.63944 50.4777 8.33525 50.8149 8.16128 51.2215C7.9873 51.6281 7.95342 52.0809 8.06495 52.5089C8.17649 52.9368 8.42711 53.3155 8.7774 53.5854C9.1277 53.8553 9.55778 54.0012 10 53.9999V53.9999C10.0009 54.4944 10.1857 54.9708 10.5184 55.3365C10.8511 55.7023 11.3079 55.9313 11.8 55.9789C11.4929 56.3093 11.2645 56.7049 11.1319 57.1361C10.9993 57.5672 10.9659 58.0228 11.0343 58.4686C11.1027 58.9145 11.271 59.3391 11.5267 59.7108C11.7824 60.0824 12.1188 60.3913 12.5108 60.6145C12.9028 60.8377 13.3402 60.9693 13.7903 60.9996C14.2404 61.0298 14.6914 60.9578 15.1098 60.7891C15.5281 60.6203 15.9028 60.3591 16.2059 60.025C16.509 59.691 16.7326 59.2927 16.86 58.8599C16.5817 58.9484 16.292 58.9956 16 58.9999V58.9999Z" fill="#57B7EB"/>
<path d="M39 17.2849C39.5523 17.2849 40 16.8372 40 16.2849C40 15.7326 39.5523 15.2849 39 15.2849C38.4477 15.2849 38 15.7326 38 16.2849C38 16.8372 38.4477 17.2849 39 17.2849Z" fill="#84D2F4"/>
<path d="M34 29.9999C34.5523 29.9999 35 29.5522 35 28.9999C35 28.4476 34.5523 27.9999 34 27.9999C33.4477 27.9999 33 28.4476 33 28.9999C33 29.5522 33.4477 29.9999 34 29.9999Z" fill="#84D2F4"/>
<path d="M23 27.9999C23.5523 27.9999 24 27.5522 24 26.9999C24 26.4476 23.5523 25.9999 23 25.9999C22.4477 25.9999 22 26.4476 22 26.9999C22 27.5522 22.4477 27.9999 23 27.9999Z" fill="#84D2F4"/>
<path d="M45.832 29.4449C45.7591 29.3357 45.6654 29.2418 45.5563 29.1687C45.4471 29.0957 45.3247 29.0448 45.1959 29.0191C45.0671 28.9934 44.9345 28.9933 44.8056 29.0188C44.6768 29.0444 44.5542 29.095 44.445 29.1679L42.43 30.5109L43 30.9999V32.5349L45.555 30.8349C45.6647 30.762 45.7589 30.6682 45.8322 30.5588C45.9055 30.4494 45.9565 30.3266 45.9823 30.1975C46.008 30.0683 46.008 29.9354 45.9822 29.8062C45.9564 29.6771 45.9054 29.5543 45.832 29.4449Z" fill="#E59730"/>
</svg>
