<?xml version="1.0" encoding="utf-8"?>
<!-- Generator: Adobe Illustrator 16.0.0, SVG Export Plug-In . SVG Version: 6.00 Build 0)  -->
<!DOCTYPE svg PUBLIC "-//W3C//DTD SVG 1.0//EN" "http://www.w3.org/TR/2001/REC-SVG-20010904/DTD/svg10.dtd">
<svg version="1.0" id="Layer_1" xmlns="http://www.w3.org/2000/svg" xmlns:xlink="http://www.w3.org/1999/xlink" x="0px" y="0px"
	 width="100px" height="100px" viewBox="0 0 100 100" enable-background="new 0 0 100 100" xml:space="preserve">
<circle fill="#FAD05A" stroke="#333333" stroke-width="2" stroke-linecap="round" stroke-linejoin="round" stroke-miterlimit="10" cx="50" cy="49.999" r="40"/>
<path fill="#FCD3C9" stroke="#333333" stroke-width="2" stroke-linecap="round" stroke-linejoin="round" stroke-miterlimit="10" d="
	M66.336,45.626v-2.824c0-1.397-0.194-2.746-0.525-4.043c-4.584,4.25-10.707,6.867-17.456,6.867l2.354-7.059
	c-4.361,4.361-10.386,7.059-17.043,7.059l1.667,13.759c2.724,8.392,8.261,14.144,14.666,14.144c6.405,0,11.943-5.752,14.67-14.142
	L66.336,45.626z"/>
<path fill="#EAC5BD" d="M52.353,73.267c-0.769,0.173-1.554,0.263-2.354,0.263c-6.404,0-11.942-5.752-14.666-14.144l-1.667-13.759
	c1.592,0,3.146-0.158,4.652-0.452l1.722,14.211C42.424,66.729,46.963,72.053,52.353,73.267z"/>
<path fill="#FCD3C9" stroke="#333333" stroke-width="2" stroke-linecap="round" stroke-linejoin="round" stroke-miterlimit="10" d="
	M50.002,90.002c7.517,0,14.543-2.079,20.552-5.682l-10.312-4.273c-0.862-0.357-1.644-0.879-2.292-1.527
	c-1.277-1.277-2.065-3.044-2.065-4.993v-1.709c-1.829,1.1-3.811,1.712-5.887,1.712c-2.075,0-4.057-0.612-5.882-1.712v1.709
	c0,1.949-0.788,3.716-2.065,4.993c-0.652,0.648-1.43,1.17-2.292,1.527l-10.312,4.271C35.457,87.923,42.483,90.002,50.002,90.002z"/>
<path fill="#EAC5BD" d="M56.171,75.502c-1.942,1.005-4.014,1.559-6.172,1.559c-2.156,0-4.228-0.554-6.167-1.558
	c0.182-0.628,0.285-1.29,0.285-1.977v-1.709c1.825,1.1,3.807,1.712,5.882,1.712c2.076,0,4.058-0.612,5.887-1.712v1.709
	C55.886,74.213,55.988,74.875,56.171,75.502z"/>
<path fill="#F15D53" stroke="#333333" stroke-width="2" stroke-linecap="round" stroke-linejoin="round" stroke-miterlimit="10" d="
	M64.669,59.388h4.154c2.597,0,4.705-2.107,4.705-4.707l0.003-4.349c0-2.597-2.107-4.705-4.708-4.705h-2.487L64.669,59.388z"/>
<path fill="#F15D53" stroke="#333333" stroke-width="2" stroke-linecap="round" stroke-linejoin="round" stroke-miterlimit="10" d="
	M35.333,59.388h-4.157c-2.598,0-4.705-2.107-4.705-4.707l-0.003-4.349c0-2.597,2.108-4.705,4.708-4.705h2.49l1.667,13.759
	C35.333,59.386,35.333,59.386,35.333,59.388z"/>
<path fill="none" stroke="#333333" stroke-width="2" stroke-linecap="round" stroke-linejoin="round" stroke-miterlimit="10" d="
	M31.177,45.626v13.761V45.626z"/>
<path fill="none" stroke="#333333" stroke-width="2" stroke-linecap="round" stroke-linejoin="round" stroke-miterlimit="10" d="
	M68.823,45.626v13.761V45.626z"/>
<path fill="none" stroke="#333333" stroke-width="2" stroke-linecap="round" stroke-linejoin="round" stroke-miterlimit="10" d="
	M46.471,62.657c1.949,1.947,5.108,1.947,7.06,0C51.579,64.604,48.42,64.604,46.471,62.657z"/>
<path fill="none" stroke="#333333" stroke-width="2" stroke-linecap="round" stroke-linejoin="round" stroke-miterlimit="10" d="
	M58.236,51.176c-1.569-0.649-3.252-0.603-4.705,0C54.984,50.573,56.667,50.526,58.236,51.176z"/>
<path fill="none" stroke="#333333" stroke-width="2" stroke-linecap="round" stroke-linejoin="round" stroke-miterlimit="10" d="
	M46.468,51.176c-1.566-0.649-3.252-0.603-4.704,0C43.215,50.573,44.902,50.526,46.468,51.176z"/>
<path fill="none" stroke="#333333" stroke-width="2" stroke-linecap="round" stroke-linejoin="round" stroke-miterlimit="10" d="
	M31.177,59.282c0,5.197,2.104,9.904,5.512,13.309l13.31,13.313l13.312-13.313c3.408-3.404,5.516-8.111,5.516-13.309V45.626v-3.256
	c0-10.394-8.43-18.822-18.827-18.822c-10.398,0-18.822,8.428-18.822,18.822v3.256V59.282z"/>
<path fill="none" stroke="#333333" stroke-width="2" stroke-linecap="round" stroke-linejoin="round" stroke-miterlimit="10" d="
	M49.999,85.901v4.101V85.901z"/>
<path fill="#333333" stroke="#333333" stroke-width="2" stroke-linecap="round" stroke-linejoin="round" stroke-miterlimit="10" d="
	M33.667,45.626c6.657,0,12.682-2.698,17.043-7.059l-2.354,7.059c6.749,0,12.872-2.617,17.456-6.867
	c-1.803-7.06-8.188-12.291-15.812-12.291c-9.02,0-16.333,7.313-16.333,16.333V45.626z"/>
<path fill="none" stroke="#333333" stroke-width="2" stroke-linecap="round" stroke-linejoin="round" stroke-miterlimit="10" d="
	M66.336,45.626v-2.824c0-1.397-0.194-2.746-0.525-4.043c-4.584,4.25-10.707,6.867-17.456,6.867l2.354-7.059
	c-4.361,4.361-10.386,7.059-17.043,7.059l1.667,13.759c2.724,8.392,8.261,14.144,14.666,14.144c6.405,0,11.943-5.752,14.67-14.142
	L66.336,45.626z"/>
<path fill="none" stroke="#333333" stroke-width="2" stroke-linecap="round" stroke-linejoin="round" stroke-miterlimit="10" d="
	M50.002,90.002c7.517,0,14.543-2.079,20.552-5.682l-10.312-4.273c-0.862-0.357-1.644-0.879-2.292-1.527
	c-1.277-1.277-2.065-3.044-2.065-4.993v-1.709c-1.829,1.1-3.811,1.712-5.887,1.712c-2.075,0-4.057-0.612-5.882-1.712v1.709
	c0,1.949-0.788,3.716-2.065,4.993c-0.652,0.648-1.43,1.17-2.292,1.527l-10.312,4.271C35.457,87.923,42.483,90.002,50.002,90.002z"/>
</svg>
