<?xml version="1.0" encoding="UTF-8"?>
<!DOCTYPE svg PUBLIC "-//W3C//DTD SVG 1.1//EN" "http://www.w3.org/Graphics/SVG/1.1/DTD/svg11.dtd">
<!-- Creator: CorelDRAW -->
<svg xmlns="http://www.w3.org/2000/svg" xml:space="preserve" width="2.66666in" height="2.66666in" version="1.1" style="shape-rendering:geometricPrecision; text-rendering:geometricPrecision; image-rendering:optimizeQuality; fill-rule:evenodd; clip-rule:evenodd"
viewBox="0 0 2666.66 2666.66"
 xmlns:xlink="http://www.w3.org/1999/xlink"
 xmlns:xodm="http://www.corel.com/coreldraw/odm/2003">
 <defs>
  <style type="text/css">
   <![CDATA[
    .fil1 {fill:black}
    .fil3 {fill:#474747}
    .fil6 {fill:#62D8B6}
    .fil7 {fill:#77B5FE}
    .fil2 {fill:#F8B9A0}
    .fil4 {fill:#FA9682}
    .fil0 {fill:#FF9AA2}
    .fil5 {fill:#FFB800}
   ]]>
  </style>
 </defs>
 <g id="Layer_x0020_1">
  <metadata id="CorelCorpID_0Corel-Layer"/>
  <circle class="fil0" cx="1333.33" cy="1333.33" r="1333.33"/>
  <path class="fil1" d="M1337.5 1501.64c-179.02,0 -324.72,-145.69 -324.72,-324.72l0 -257.5c0,-26.36 40,-26.36 40,0l0 257.5c0,156.94 127.78,284.72 284.72,284.72 156.94,0 284.72,-127.78 284.72,-284.72l0 -257.5c0,-26.33 40,-26.33 40,0l0 257.5c0,179.02 -145.7,324.72 -324.72,324.72z"/>
  <path class="fil1" d="M1642.22 1127.2c-10.97,0 -20,-8.89 -20,-20l0 -212.5c0,-49.28 140.83,-8.33 140.83,100.83l0 10.69c-0,66.67 -54.17,120.97 -120.83,120.97zm20 -210l0 167.36c81.54,-20.71 81.53,-146.65 0,-167.36z"/>
  <path class="fil1" d="M1032.78 1127.2c-66.67,0 -120.83,-54.17 -120.83,-120.83l0 -10.69c0,-109.12 140.83,-150.18 140.83,-100.83l0 212.36c0,10.97 -8.89,20 -20,20zm-20 -210c-81.56,20.72 -81.5,146.58 0,167.36l0 -167.36z"/>
  <path class="fil1" d="M2057.91 2186.63l-1449.16 0c-11.11,0 -20,-9.03 -20,-20 0,-338.75 210.14,-578.89 510.97,-583.75 26.53,0.46 26.72,39.62 0.56,40 -271.67,4.44 -463.2,218.75 -471.25,523.75l1408.6 0c-6.94,-263.89 -151.39,-523.75 -464.44,-523.75 -26.3,0 -26.3,-40 0,-40 301.8,0 504.72,234.58 504.72,583.75 0,10.97 -9.02,20 -20,20z"/>
  <path class="fil1" d="M1332.78 1859.55c-209.33,0 -378.1,-114.41 -341.52,-252.5 1.94,-7.5 8.06,-13.19 15.56,-14.58 27.44,-5.13 64.54,-9.44 93.33,-9.44 11.09,0 20,8.95 20,20 0,66.11 97.36,122.08 212.5,122.08 115.97,0 213.06,-55.28 216.53,-123.19 0.56,-10.69 9.31,-19.03 20,-19.03 31.53,0 60.28,2.08 87.92,6.39 20.43,3.26 21.8,36.73 21.8,53.61 0,121.39 -152.08,216.67 -346.11,216.67zm-305.27 -230.28c-12.96,106.98 133,190.14 305.27,190.14 173.59,0 321.29,-85.52 304.86,-192.64 -16.25,-2.08 -33.19,-3.33 -50.97,-3.75 -18.33,80.97 -124.58,141.94 -253.89,141.94 -130.69,0 -235.27,-60.69 -250.55,-141.53 -18.61,0.97 -36.94,2.91 -54.72,5.83z"/>
  <path class="fil1" d="M1100.14 1622.89c-18.37,0 -26.86,-23 -13.19,-35 60.14,-52.64 59.86,-157.64 59.86,-158.75 -0.17,-26.45 39.83,-26.58 40,-0.28 0,5 0.28,124.58 -73.61,189.17 -3.61,3.33 -8.34,4.86 -13.06,4.86z"/>
  <path class="fil1" d="M1569.16 1622.89c-4.72,0 -9.31,-1.67 -13.19,-5 -65.69,-57.5 -75.56,-153.19 -77.08,-181.11l19.86 -1.81 9.03 -17.92c6.39,3.19 10.69,10.42 10.97,17.5 0.83,17.08 8.19,104.58 63.47,153.06 14.19,12.37 4.52,35.28 -13.06,35.28z"/>
  <path class="fil1" d="M857.92 2186.63c-11.11,0 -20,-9.03 -20,-20l0 -496.8c0,-26.33 40,-26.33 40,0l0 496.8c0,10.97 -8.89,20 -20,20z"/>
  <path class="fil1" d="M1808.74 2186.63c-10.97,0 -20,-9.03 -20,-20l0 -504.03c0,-26.3 40,-26.3 40,0l0 504.03c0,10.97 -9.03,20 -20,20z"/>
  <path class="fil1" d="M1338.47 1295.81c-44.07,0 -114.17,-42.32 -85.14,-68.19 24.62,-21.93 34.57,26.95 83.61,28.19 47.92,1.21 61.11,-51.79 85.83,-27.5 27.15,26.68 -43.64,67.5 -84.3,67.5z"/>
  <path class="fil1" d="M1640.83 914.7c-0.97,0 -1.94,-0.14 -3.06,-0.28 -242.64,-36.67 -614.3,-176.8 -643.19,-411.94 -2.42,-19.4 21.87,-30.33 34.86,-15.69 65.83,74.72 268.47,29.17 329.16,13.47 86.25,-22.36 162.08,-3.33 219.44,55.14 85.97,87.64 109.44,247.22 82.08,344.72 -2.5,8.75 -10.41,14.58 -19.3,14.58zm-593.89 -367.22c69.03,177.22 374.44,289.86 578.74,324.58 28.02,-141 -47.63,-387.43 -257.08,-333.06 -87.35,22.64 -231.66,49.31 -321.66,8.47z"/>
  <path class="fil1" d="M1032.92 914.7c-19.86,0 -154.2,-87.46 -104.86,-350.28 2.97,-15.82 22.52,-21.79 33.89,-10.42 0.56,0.56 55,54.31 105.97,50.97 26.51,-1.53 28.65,38.4 2.5,40 -42.22,2.5 -82.64,-20.14 -108.47,-38.89 -19.31,145.97 24.44,218.47 54.72,250.14 18.06,-79.86 97.36,-137.5 134.44,-160.69 22.33,-13.88 43.37,19.99 21.11,33.89 -37.08,23.06 -122.78,85.14 -119.17,164.3 0.49,11.54 -8.78,20.98 -20.13,20.98z"/>
  <path class="fil1" d="M1216.39 1060.11c-24.94,0 -18,-39.92 -55.14,-28.75 -25.11,7.55 -36.93,-30.12 -12.22,-38.19 59.63,-19.48 111,47.41 75.28,65.14 -2.5,1.39 -5.28,1.81 -7.91,1.81z"/>
  <path class="fil1" d="M1458.75 1060.11c-14.14,0 -24.2,-14.69 -18.33,-28.06 25.92,-59.06 110.19,-49.93 98.33,-13.61 -10.43,31.94 -45.08,-8.95 -61.81,29.72 -3.19,7.5 -10.56,11.94 -18.19,11.94z"/>
  <path class="fil1" d="M1333.33 2186.63c-6.25,0 -12.08,-2.92 -15.83,-7.78l-126.67 -163.61c-5.56,-7.22 -5.56,-17.22 0,-24.44l126.67 -163.61c7.5,-9.86 24.02,-9.86 31.66,0l126.67 163.61c5.56,7.22 5.56,17.22 0,24.44l-126.67 163.61c-3.75,4.86 -9.58,7.78 -15.83,7.78zm-101.39 -183.61l101.39 130.97 101.39 -130.97 -101.39 -130.97 -101.39 130.97z"/>
  <path class="fil2" d="M1253.33 1227.61c24.62,-21.93 34.57,26.95 83.61,28.19 47.92,1.21 61.11,-51.79 85.83,-27.5 27.15,26.68 -43.64,67.5 -84.3,67.5 -44.07,0 -114.17,-42.32 -85.14,-68.19zm-72.08 187.19c44.89,29.59 98.6,46.83 156.24,46.83 156.94,0 284.72,-127.78 284.72,-284.72l0 -69.72 0 -187.78 0 -7.47c-144.44,-23.91 -329.31,-82.9 -461.25,-175.28 -40.72,27.25 -111.2,85.09 -107.92,157.04 0.06,1.47 -0.03,2.91 -0.27,4.3l0 21.41 0 187.78 0 69.72c0,96.93 48.74,182.72 122.98,234.17 2.02,0.91 3.89,2.15 5.5,3.71zm277.5 -354.69c-14.14,0 -24.2,-14.69 -18.33,-28.06 25.92,-59.06 110.19,-49.93 98.33,-13.61 -10.43,31.94 -45.08,-8.95 -61.81,29.72 -3.19,7.5 -10.56,11.94 -18.19,11.94zm-309.72 -66.94c59.63,-19.48 111,47.41 75.28,65.14 -2.5,1.39 -5.28,1.81 -7.91,1.81 -24.94,0 -18,-39.92 -55.14,-28.75 -25.11,7.55 -36.93,-30.12 -12.22,-38.19z"/>
  <path class="fil3" d="M1086.67 615.27c109.42,138.24 362.13,226.72 539.02,256.79 28.02,-141 -47.63,-387.43 -257.08,-333.06 -87.35,22.64 -231.66,49.31 -321.66,8.47 8.41,21.6 20.34,42.24 35.16,61.89 1.92,1.65 3.44,3.67 4.56,5.9z"/>
  <path class="fil3" d="M1016.66 856.22c14.78,-65.38 70.61,-115.86 110.72,-144.75 -25.64,-20.67 -48.57,-42.81 -67.93,-66.4 -38.18,-1.51 -73.93,-21.87 -97.52,-38.99 -19.31,145.97 24.44,218.47 54.72,250.14z"/>
  <path class="fil4" d="M1012.78 1084.56l0 -165.14 0 -2.22c-81.56,20.72 -81.5,146.58 0,167.36z"/>
  <path class="fil4" d="M1662.22 919.42l0 165.14c81.54,-20.71 81.53,-146.65 0,-167.36l0 2.22z"/>
  <path class="fil4" d="M1482.15 1467.59c-43.58,21.78 -92.72,34.05 -144.66,34.05 -55.3,0 -107.41,-13.9 -153.03,-38.39 -4.8,39.34 -19.4,103.83 -63.83,147.86 7.54,62.52 101.6,113.99 212.01,113.99 110.95,0 204.62,-50.6 215.56,-114.45 -43.84,-43.3 -60.04,-103.96 -66.04,-143.07z"/>
  <path class="fil5" d="M1586.67 1623.03c-18.33,80.97 -124.58,141.94 -253.89,141.94 -130.69,0 -235.27,-60.69 -250.55,-141.48 -18.66,0.96 -36.91,2.92 -54.73,5.84 -12.9,106.96 133.04,190.08 305.28,190.08 173.59,0 321.29,-85.52 304.86,-192.64 -1.12,-0.14 -2.24,-0.28 -3.36,-0.42 -15.4,-1.8 -31.27,-2.91 -47.61,-3.33z"/>
  <path class="fil6" d="M1678.89 1642.89c0,112.83 -131.4,203.11 -305.75,215.27l102.69 132.64c5.56,7.22 5.56,17.22 0,24.44l-101.72 131.39 414.64 0 0 -472.9c-33.17,-17.78 -69.81,-31.4 -110.04,-40.05 0.14,3.37 0.18,6.5 0.18,9.2z"/>
  <polygon class="fil7" points="1434.72,2003.02 1333.33,1872.05 1231.94,2003.02 1333.33,2134 "/>
  <path class="fil6" d="M1190.83 1990.8l102.66 -132.6c-175.22,-12.18 -312.63,-104.88 -307.09,-220.23 -38.65,9.95 -74.94,24.66 -108.48,43.65l0 465.02 414.63 0 -101.72 -131.39c-5.56,-7.22 -5.56,-17.22 0,-24.44z"/>
  <path class="fil2" d="M837.92 2146.63l0 -439.41c-125.49,90.24 -203.8,246.73 -208.89,439.41l208.89 0z"/>
  <path class="fil2" d="M1828.74 1698.31l0 448.33 208.89 0c-4.66,-176.98 -71.16,-352.15 -208.89,-448.33z"/>
 </g>
</svg>
