<?xml version="1.0" encoding="UTF-8"?>
<!DOCTYPE svg PUBLIC "-//W3C//DTD SVG 1.1//EN" "http://www.w3.org/Graphics/SVG/1.1/DTD/svg11.dtd">
<!-- Creator: CorelDRAW -->
<svg xmlns="http://www.w3.org/2000/svg" xml:space="preserve" width="2.66666in" height="2.66666in" version="1.1" style="shape-rendering:geometricPrecision; text-rendering:geometricPrecision; image-rendering:optimizeQuality; fill-rule:evenodd; clip-rule:evenodd"
viewBox="0 0 2666.66 2666.66"
 xmlns:xlink="http://www.w3.org/1999/xlink"
 xmlns:xodm="http://www.corel.com/coreldraw/odm/2003">
 <defs>
  <style type="text/css">
   <![CDATA[
    .fil1 {fill:black}
    .fil5 {fill:#474747}
    .fil4 {fill:#8CD86B}
    .fil0 {fill:#B5EAD7}
    .fil3 {fill:#D62966}
    .fil2 {fill:#F8B9A0}
   ]]>
  </style>
 </defs>
 <g id="Layer_x0020_1">
  <metadata id="CorelCorpID_0Corel-Layer"/>
  <circle class="fil0" cx="1333.33" cy="1333.33" r="1333.33"/>
  <path class="fil1" d="M872.98 2186.1c-11.11,0 -20,-9.03 -20,-20l0 -181.39c0,-26.33 40,-26.33 40,0l0 181.39c0,10.97 -8.89,20 -20,20z"/>
  <path class="fil1" d="M1816.59 2186.1c-10.97,0 -20,-9.03 -20,-20l0 -181.39c0,-26.3 40,-26.3 40,0l0 181.39c0,10.97 -9.03,20 -20,20z"/>
  <path class="fil1" d="M2166.72 2186.1l-1666.66 0c-11.11,0 -20,-9.03 -20,-20 0,-354.47 275.86,-432.57 530,-519.72 24.87,-8.53 37.99,29.34 12.92,37.92 -245.83,84.1 -492.45,153.35 -502.63,461.8l1625.96 0c-10.21,-309.19 -257.54,-377.54 -502.63,-461.94 -24.93,-8.59 -11.98,-46.46 12.92,-37.92 258.02,88.48 527.79,164.33 530,519.72 0.14,11.11 -8.89,20.14 -19.86,20.14z"/>
  <path class="fil1" d="M1337.7 1900.55l-8.47 0c-166.39,0 -356.24,-175.42 -356.24,-329.3 0,-45.69 22.64,-90.69 65.56,-130.28 19.33,-17.91 46.38,11.59 27.08,29.44 -24.03,22.08 -52.64,57.64 -52.64,100.83 0,129.72 174.3,289.3 316.24,289.3l8.47 -0c141.81,0 316.25,-159.58 316.25,-289.3 0,-81.89 -81.24,-99.12 -53.89,-129.03 7.5,-8.19 20.14,-8.61 28.19,-1.25 42.92,39.44 65.56,84.44 65.56,130.28 0,153.89 -189.72,329.3 -356.11,329.3z"/>
  <path class="fil1" d="M1337.7 1820.55c-80.37,0 -141.58,-42.58 -174.86,-69.44 -99.31,-80.18 -137.46,-199.86 -89.72,-199.86 11.11,0 20,9.03 20,20 0,84.51 136.57,209.28 236.11,209.3 48.76,0.01 97.44,-18.24 149.72,-60.55 45.69,-36.94 94.86,-99.31 94.86,-148.75 0,-26.3 40,-26.3 40,0 0,105.63 -152.67,249.3 -276.11,249.3z"/>
  <path class="fil1" d="M1071.59 1991.66c-11.11,0 -20,-9.03 -20,-20l0 -225c0,-26.33 40,-26.33 40,0l0 225c0,11.11 -9.03,20 -20,20z"/>
  <path class="fil1" d="M1595.2 1991.66c-10.97,0 -20,-9.03 -20,-20l0 -225c0,-26.3 40,-26.3 40,0l0 225c0,11.11 -8.89,20 -20,20z"/>
  <path class="fil1" d="M1116.59 1991.66l-90 0c-26.33,0 -26.33,-40 0,-40l90 0c26.39,0 26.23,40 0,40z"/>
  <path class="fil1" d="M1640.2 1991.66l-90 0c-26.3,0 -26.3,-40 0,-40l90 0c26.23,0 26.39,40 0,40z"/>
  <path class="fil1" d="M1333.39 1618.33c-203.89,0 -369.72,-165.83 -369.72,-369.72l0 -295.83c0,-203.89 165.83,-369.72 369.72,-369.72 203.89,0 369.72,165.83 369.72,369.72l0 295.83c0,203.88 -165.83,369.72 -369.72,369.72zm0 -995.41c-181.8,0 -329.72,147.92 -329.72,329.72l0 295.83c0,181.8 147.92,329.72 329.72,329.72 181.8,0 329.72,-147.92 329.72,-329.72l0 -295.83c0,-181.67 -147.92,-329.72 -329.72,-329.72z"/>
  <path class="fil1" d="M1683.11 1103.47c-8.33,0 -16.11,-5.28 -18.89,-13.47 -20.69,-60 -52.78,-100.69 -95.56,-120.83 -75.85,-35.81 -126.47,3.16 -145.56,-5.97 -4.86,-2.36 -8.61,-6.67 -10.28,-11.94 -12.64,-40 7.5,-90.42 26.11,-124.86 -144.42,46.48 -242.78,293.15 -465.41,163.06 -22.77,-13.3 -2.35,-47.76 20.28,-34.44 215.49,126.76 290.39,-168.57 484.72,-175.97 16.53,-0.63 26.84,18.21 17.08,31.67 -13.06,18.06 -44.44,70.56 -46.67,109.17 113.22,-24.23 209.22,29.83 253.2,157.22 4.35,12.59 -4.57,26.4 -19.03,26.4z"/>
  <path class="fil1" d="M1174.79 1304.72c-77.5,0 -140.69,-61.39 -140.69,-136.81 0,-75.42 63.06,-136.81 140.69,-136.81 77.64,0 140.69,61.39 140.69,136.81 0,75.42 -63.06,136.81 -140.69,136.81zm0 -233.75c-55.56,0 -100.69,43.47 -100.69,96.81 0,53.33 45.14,96.81 100.69,96.81 55.56,0 100.69,-43.47 100.69,-96.81 0,-53.33 -45.14,-96.81 -100.69,-96.81z"/>
  <path class="fil1" d="M1369.78 1155.69l-78.89 0c-26.36,0 -26.36,-40 0,-40l78.89 0c26.27,0 26.43,40 0,40z"/>
  <path class="fil1" d="M1486.03 1304.72c-77.5,0 -140.69,-61.39 -140.69,-136.81 0,-75.42 63.06,-136.81 140.69,-136.81 77.64,0 140.69,61.39 140.69,136.81 0,75.42 -63.06,136.81 -140.69,136.81zm0 -233.75c-55.56,0 -100.69,43.47 -100.69,96.81 0,53.33 45.14,96.81 100.69,96.81 55.56,0 100.69,-43.47 100.69,-96.81 0,-53.33 -45.14,-96.81 -100.69,-96.81z"/>
  <path class="fil1" d="M1034.79 1193.33c-12.36,0 -29.72,-1.53 -54.44,-5.83 -25.95,-4.43 -19.24,-43.85 6.67,-39.44 70.03,11.89 49.37,0.52 66.11,-0.14 24.96,-1 37.97,45.42 -18.33,45.42zm-0.56 -24.44c0,0 0,0 0,0z"/>
  <path class="fil1" d="M1683.11 1187.91l-76.39 0c-26.33,0 -26.33,-40 0,-40l76.39 0c26.27,0 26.43,40 0,40z"/>
  <path class="fil1" d="M1331.73 1471.1c-38.79,0 -72.66,-23.6 -54.72,-45.28 21.38,-25.82 35.46,25.7 87.36,-4.59 22.59,-13.18 43,21.37 20,34.72 -19.59,11.39 -37.37,15.14 -52.64,15.14z"/>
  <path class="fil1" d="M1747.14 1244.3l-63.89 0c-26.33,0 -26.33,-40 0,-40l63.89 0c23.19,0 42.22,-18.89 42.22,-42.08l0 -159.03c0,-23.19 -18.89,-42.22 -42.22,-42.22l-45.7 0c-9.03,19.65 -38.19,13.08 -38.19,-8.19 0,-39.78 10.41,-31.8 84.02,-31.81 45.28,0 82.22,36.81 82.22,82.22l0 159.03c-0.28,45.28 -37.08,82.08 -82.36,82.08z"/>
  <path class="fil1" d="M983.68 1244.3l-63.89 0c-45.28,0 -82.22,-36.81 -82.22,-82.08l0 -159.03c0,-45.28 36.81,-82.22 82.22,-82.22l64.17 0c28.05,0 26.51,51.8 -0.42,51.8 -8.06,0 -15.14,-4.86 -18.19,-11.81l-45.69 0c-23.19,0 -42.22,18.89 -42.22,42.22l0 159.03c0,23.19 18.89,42.08 42.22,42.08l63.89 0c26.39,0 26.28,40 0.14,40z"/>
  <path class="fil1" d="M1752.98 960.97c-24.6,0 -20,-28.73 -20,-46.81 0,-217.08 -179.3,-393.61 -399.58,-393.61 -220.41,0 -399.58,176.53 -399.58,393.61 0,18.27 4.61,46.81 -20,46.81 -24.61,0 -20,-28.54 -20,-46.81 0,-239.03 197.22,-433.61 439.58,-433.61 242.36,0 439.58,194.44 439.58,433.61 0,18.27 4.61,46.81 -20,46.81z"/>
  <path class="fil2" d="M1486.03 1304.72c-77.5,0 -140.69,-61.39 -140.69,-136.81 0,-4.12 0.19,-8.19 0.56,-12.22l-30.97 0c0.37,4.03 0.56,8.1 0.56,12.22 0,75.42 -63.06,136.81 -140.69,136.81 -68.58,0 -125.96,-48.07 -138.26,-111.41 -0.57,0.01 -1.16,0.02 -1.74,0.02 -8.04,0 -18.19,-0.65 -31.11,-2.28l0 57.42c0,181.8 147.92,329.72 329.72,329.72 107.44,0 203.05,-51.66 263.29,-131.45 0.83,-1.43 1.9,-2.87 3.23,-4.35 0.05,-0.06 0.09,-0.12 0.13,-0.19 39.65,-54.43 63.07,-121.4 63.07,-193.73l0 -60.56 -37.89 0c-9.98,65.98 -68.55,116.81 -139.19,116.81zm-121.66 116.52c22.59,-13.18 43,21.37 20,34.72 -19.59,11.39 -37.37,15.14 -52.64,15.14 -38.79,0 -72.66,-23.6 -54.72,-45.28 21.38,-25.82 35.46,25.7 87.36,-4.59z"/>
  <path class="fil3" d="M1616.15 1486.59c-67.87,80.51 -169.43,131.74 -282.75,131.74 -113.57,0 -215.33,-51.46 -283.2,-132.28 -19.35,21.71 -37.21,51.07 -37.21,85.2 0,129.72 174.3,289.3 316.24,289.3l8.47 -0c141.81,0 316.25,-159.58 316.25,-289.3 0,-41.43 -20.8,-66.31 -37.8,-84.66zm-523.02 84.65c0,84.51 136.57,209.28 236.11,209.3 48.76,0.01 97.44,-18.24 149.72,-60.55 45.69,-36.94 94.86,-99.31 94.86,-148.75 0,-26.3 40,-26.3 40,0 0,105.63 -152.67,249.3 -276.11,249.3 -80.37,0 -141.58,-42.58 -174.86,-69.44 -99.31,-80.18 -137.46,-199.86 -89.72,-199.86 11.11,0 20,9.03 20,20z"/>
  <path class="fil4" d="M1575.2 1796.31c-67.83,61.63 -155.5,104.24 -237.5,104.24l-8.47 0c-82.03,0 -169.76,-42.63 -237.63,-104.3l0 155.41 25 0c26.39,0 26.23,40 0,40l-45 0 -45 0c-26.33,0 -26.33,-40 0,-40l25 0 0 -196.69c-17.54,-20.63 -32.81,-42.52 -45.1,-65.05 -240.25,81.7 -476.19,154.63 -486.15,456.18l332.64 0 0 -161.39c0,-26.33 40,-26.33 40,0l0 161.39 903.6 0 0 -161.39c0,-26.3 40,-26.3 40,0l0 161.39 309.72 0c-9.98,-302.17 -246.44,-374.31 -485.96,-456.22 -12.3,22.56 -27.58,44.5 -45.15,65.15l0 196.62 25 0c26.23,0 26.39,40 0,40l-45 0 -45 0c-26.3,0 -26.3,-40 0,-40l25 0 0 -155.35z"/>
  <path class="fil5" d="M1174.79 1264.58c55.56,0 100.69,-43.47 100.69,-96.81 0,-53.33 -45.14,-96.81 -100.69,-96.81 -54.74,0 -99.37,42.21 -100.67,94.48 0.41,2.24 0.45,4.54 0.08,6.82 2.45,51.26 46.6,92.31 100.59,92.31z"/>
  <path class="fil5" d="M1385.34 1167.78c0,53.33 45.14,96.81 100.69,96.81 55.56,0 100.69,-43.47 100.69,-96.81 0,-53.33 -45.14,-96.81 -100.69,-96.81 -55.56,0 -100.69,43.47 -100.69,96.81z"/>
  <path class="fil2" d="M1355.98 1115.69c21.13,-49.6 71.44,-84.59 130.05,-84.59 70.65,0 129.22,50.83 139.19,116.81l37.89 0 0 -61.09c-20.72,-58.26 -52.43,-97.88 -94.44,-117.67 -75.85,-35.81 -126.47,3.16 -145.56,-5.97 -4.86,-2.36 -8.61,-6.67 -10.28,-11.94 -12.64,-40 7.5,-90.42 26.11,-124.86 -137.73,44.32 -233.57,270.73 -435.27,178.76l0 145.56c16.24,2.37 25.53,2.97 31.2,2.68 7.48,-68.61 67.32,-122.28 139.91,-122.28 58.61,0 108.91,34.99 130.05,84.59l51.15 0z"/>
  <path class="fil5" d="M1003.68 960.56c207.97,112.17 283.53,-174.24 474.85,-181.54 16.53,-0.63 26.84,18.21 17.08,31.67 -13.06,18.06 -44.44,70.56 -46.67,109.17 86.69,-18.55 163.29,8.8 214.17,79.81l0 -47.03c0,-181.67 -147.92,-329.72 -329.72,-329.72 -177.71,0 -323.05,141.34 -329.49,317.51 0.69,4.19 0.61,8.62 -0.22,12.81l0 7.32z"/>
  <path class="fil3" d="M1703.11 1085.94l0 118.36 44.03 0c23.19,0 42.22,-18.89 42.22,-42.08l0 -159.03c0,-23.19 -18.89,-42.22 -42.22,-42.22l-44.03 0 0 120.32c0.19,1.57 0.18,3.13 0,4.65z"/>
  <path class="fil3" d="M963.68 1204.3l0 -229.41c-0.11,-1.2 -0.11,-2.42 0,-3.62l0 -10.3 -44.03 0c-23.19,0 -42.22,18.89 -42.22,42.22l0 159.03c0,23.19 18.89,42.08 42.22,42.08l44.03 0z"/>
 </g>
</svg>
