<?xml version="1.0" encoding="UTF-8" standalone="no"?> <svg width="64" height="64" viewBox="0 0 64 64" fill="none" xmlns="http://www.w3.org/2000/svg">
<path d="M15.172 45C14.1568 44.9831 13.1711 45.342 12.4045 46.0078C11.6379 46.6737 11.1445 47.5993 11.019 48.607C10.9652 49.1473 11.0223 49.693 11.1866 50.2105C11.351 50.7281 11.6193 51.2067 11.975 51.617C12.3139 51.9979 12.5011 52.4901 12.5011 53C12.5011 53.5098 12.3139 54.002 11.975 54.383C11.6193 54.7932 11.351 55.2718 11.1866 55.7894C11.0223 56.3069 10.9652 56.8526 11.019 57.393C11.1445 58.4006 11.6379 59.3263 12.4045 59.9921C13.1711 60.6579 14.1568 61.0169 15.172 61H45V45H15.172Z" fill="#84D2F4"/>
<path d="M17.0001 37H39.0001V45H17.0001C15.9392 45 14.9218 44.5786 14.1716 43.8284C13.4215 43.0783 13.0001 42.0609 13.0001 41C13.0001 39.9391 13.4215 38.9217 14.1716 38.1716C14.9218 37.4214 15.9392 37 17.0001 37V37Z" fill="#F9E109"/>
<path d="M39 37H16C15.6724 36.9999 15.3522 36.9027 15.0798 36.7207C14.8074 36.5387 14.5951 36.28 14.4696 35.9774C14.3442 35.6747 14.3113 35.3417 14.3751 35.0204C14.4389 34.699 14.5965 34.4038 14.828 34.172V34.172C15.1387 33.8611 15.3133 33.4395 15.3133 33C15.3133 32.5605 15.1387 32.1389 14.828 31.828V31.828C14.5965 31.5962 14.4389 31.301 14.3751 30.9796C14.3113 30.6583 14.3442 30.3253 14.4696 30.0226C14.5951 29.72 14.8074 29.4613 15.0798 29.2793C15.3522 29.0973 15.6724 29.0001 16 29H39V37Z" fill="#84D2F4"/>
<path d="M23.73 37C22.8762 38.5811 22.2173 40.2601 21.768 42H20C19.3978 42.0043 18.8025 41.8715 18.2592 41.6118C17.7158 41.3521 17.2387 40.9723 16.8637 40.501C16.4888 40.0297 16.2259 39.4794 16.095 38.8916C15.9641 38.3037 15.9685 37.6938 16.108 37.108C15.1566 37.3336 14.3208 37.8998 13.7585 38.6997C13.1961 39.4996 12.9463 40.4778 13.0561 41.4494C13.1659 42.421 13.6278 43.3187 14.3545 43.9729C15.0812 44.6271 16.0223 44.9925 17 45H39V37H23.73Z" fill="#FCBC04"/>
<path d="M26.09 29C26.3308 29.6452 26.4373 30.3328 26.4029 31.0206C26.3685 31.7085 26.194 32.382 25.89 33H20.285C19.8201 32.9801 19.364 32.8669 18.9436 32.6673C18.5233 32.4677 18.1473 32.1857 17.838 31.838L17.828 31.828C17.5965 31.5962 17.4389 31.301 17.3751 30.9796C17.3113 30.6583 17.3442 30.3253 17.4696 30.0226C17.5951 29.72 17.8074 29.4613 18.0798 29.2793C18.3522 29.0973 18.6724 29.0001 19 29H16C15.6724 29.0001 15.3522 29.0973 15.0798 29.2793C14.8074 29.4613 14.5951 29.72 14.4696 30.0226C14.3442 30.3253 14.3113 30.6583 14.3751 30.9796C14.4389 31.301 14.5965 31.5962 14.828 31.828C15.1387 32.1389 15.3133 32.5605 15.3133 33C15.3133 33.4395 15.1387 33.8611 14.828 34.172C14.5965 34.4038 14.4389 34.699 14.3751 35.0204C14.3113 35.3417 14.3442 35.6747 14.4696 35.9774C14.5951 36.28 14.8074 36.5387 15.0798 36.7207C15.3522 36.9027 15.6724 36.9999 16 37H39V29H26.09Z" fill="#57B7EB"/>
<path d="M21.17 45C21.0583 45.8991 21.0016 46.8041 21 47.71C21 48.1407 21.0124 48.5707 21.037 49H14.023C14.0145 48.8491 14.0145 48.6979 14.023 48.547C14.1619 47.551 14.6606 46.6403 15.425 45.9868C16.1894 45.3334 17.1665 44.9823 18.172 45H15.172C14.1568 44.9831 13.1711 45.3421 12.4045 46.0079C11.6379 46.6737 11.1445 47.5994 11.019 48.607C10.9652 49.1474 11.0223 49.6931 11.1866 50.2106C11.351 50.7282 11.6193 51.2067 11.975 51.617C12.3141 51.9979 12.5014 52.4901 12.5014 53C12.5014 53.51 12.3141 54.0021 11.975 54.383C11.6193 54.7933 11.351 55.2719 11.1866 55.7894C11.0223 56.307 10.9652 56.8527 11.019 57.393C11.1445 58.4006 11.6379 59.3263 12.4045 59.9922C13.1711 60.658 14.1568 61.0169 15.172 61H45V45H21.17ZM16.842 56C16.6341 55.9999 16.4291 55.9511 16.2435 55.8575C16.0579 55.7639 15.8967 55.6281 15.773 55.461L15.499 55.091C15.3637 54.8925 15.2808 54.6629 15.2581 54.4237C15.2354 54.1846 15.2735 53.9435 15.369 53.723C15.4511 53.491 15.4904 53.2461 15.485 53H21.636C21.8858 54.0213 22.2069 55.0237 22.597 56H16.842Z" fill="#57B7EB"/>
<path d="M46 23H30L32 15H44L46 23Z" fill="#D0D8DA"/>
<path d="M32.864 21.545C33.1885 20.2468 33.9377 19.0943 34.9924 18.2708C36.0471 17.4473 37.3469 17 38.685 17H44.5L44 15H32L30 23H32.5L32.864 21.545Z" fill="#93999A"/>
<path d="M44 3H32V11H44V3Z" fill="#F9E109"/>
<path d="M48.2 22.49C48.3886 22.0162 48.4533 21.5022 48.388 20.9964C48.3227 20.4906 48.1295 20.0099 47.8267 19.5995C47.524 19.1892 47.1216 18.8627 46.6576 18.6511C46.1936 18.4395 45.6834 18.3496 45.175 18.39L32.273 19.418C31.4496 19.484 30.654 19.7464 29.9529 20.1832C29.2518 20.6201 28.6656 21.2186 28.2435 21.9287C27.8213 22.6387 27.5756 23.4396 27.5268 24.2642C27.478 25.0889 27.6276 25.9132 27.963 26.668V26.668C28.2855 27.3933 28.4365 28.1831 28.4044 28.9761C28.3724 29.7692 28.158 30.5442 27.778 31.241L25.735 34.985C23.9402 38.2756 22.9998 41.9639 23 45.712V45.712C23 49.1897 23.8097 52.6196 25.365 55.73L26.894 58.789C27.2263 59.4535 27.737 60.0123 28.3689 60.4028C29.0009 60.7933 29.7291 61.0001 30.472 61H45.528C46.2709 61.0001 46.9991 60.7933 47.6311 60.4028C48.263 60.0123 48.7737 59.4535 49.106 58.789L50.706 55.589C52.2148 52.5721 53.0002 49.2452 53 45.872V45.872C53 42.0264 51.9789 38.2497 50.041 34.928L48.99 33.128C48.0578 31.5318 47.5021 29.7438 47.3652 27.9004C47.2283 26.0569 47.5138 24.2065 48.2 22.49V22.49Z" fill="#E9F1F2"/>
<path d="M45 11H31V15H45V11Z" fill="#F9E109"/>
<path d="M32.02 48.845C30.6909 46.1257 30 43.1388 30 40.112C29.9999 39.3825 30.1828 38.6646 30.532 38.024L31.284 36.646C32.7116 34.0264 33.5329 31.1198 33.6875 28.1405C33.842 25.1612 33.3258 22.1852 32.177 19.432C31.3635 19.5122 30.5806 19.7843 29.8928 20.226C29.2049 20.6678 28.6318 21.2664 28.2204 21.9728C27.809 22.6792 27.5711 23.4732 27.5264 24.2894C27.4817 25.1057 27.6313 25.9209 27.963 26.668V26.668C28.2855 27.3933 28.4365 28.183 28.4045 28.9761C28.3724 29.7692 28.158 30.5442 27.778 31.241L25.735 34.985C24.005 38.1567 23.0677 41.6998 23.0033 45.3121C22.9389 48.9244 23.7492 52.4986 25.365 55.73L26.894 58.789C27.2263 59.4534 27.737 60.0122 28.369 60.4027C29.0009 60.7933 29.7291 61.0001 30.472 61H45.528C46.5363 60.9973 47.5062 60.6133 48.243 59.925C44.811 59.641 41.5115 58.4706 38.6677 56.5284C35.8238 54.5861 33.5332 51.9386 32.02 48.845V48.845Z" fill="#D0D8DA"/>
<path d="M46.038 37.457L46.586 36.943C48.07 39.4864 48.8968 42.3596 48.9916 45.3027C49.0864 48.2459 48.4463 51.1663 47.129 53.8C46.6474 54.7618 45.9076 55.5706 44.9924 56.1358C44.0771 56.701 43.0227 57.0002 41.947 57H30.472L28.942 53.94C27.6683 51.384 27.0036 48.5678 27 45.712V45.712C34.1115 45.2521 40.8417 42.3338 46.038 37.457V37.457Z" fill="#F9E109"/>
<path d="M42 52C43.6569 52 45 50.6569 45 49C45 47.3431 43.6569 46 42 46C40.3431 46 39 47.3431 39 49C39 50.6569 40.3431 52 42 52Z" fill="#84D2F4"/>
<path d="M34.083 30.167C34.3603 30.7214 34.4827 31.3403 34.4373 31.9585C34.3919 32.5767 34.1803 33.1711 33.825 33.679L28 42L29.68 41.664C35.1052 40.5789 40.0878 37.9122 44 34V34L42.883 32.324C42.6063 31.909 42.4231 31.4389 42.3461 30.9461C42.2691 30.4533 42.3001 29.9496 42.437 29.47L42.504 29.234C42.6626 28.676 42.6776 28.087 42.5475 27.5217C42.4174 26.9564 42.1465 26.4332 41.7599 26.0007C41.3733 25.5683 40.8836 25.2406 40.3364 25.0481C39.7892 24.8557 39.2022 24.8047 38.63 24.9L36.595 25.239C36.0645 25.3278 35.5623 25.5397 35.1285 25.8577C34.6948 26.1757 34.3416 26.5909 34.0974 27.0701C33.8531 27.5493 33.7246 28.079 33.7221 28.6168C33.7196 29.1547 33.8432 29.6856 34.083 30.167V30.167Z" fill="#F9E109"/>
<path d="M29.68 41.66L28 42L30.18 38.89C30.0602 39.2856 29.9995 39.6967 30 40.11C30 40.6 30.02 41.09 30.06 41.58C29.93 41.61 29.81 41.63 29.68 41.66Z" fill="#FCBC04"/>
<path d="M39.4 57H30.47L28.94 53.94C27.6669 51.3831 27.0029 48.5663 27 45.71C28.235 45.6325 29.464 45.4789 30.68 45.25C31.0027 46.4894 31.4517 47.6923 32.02 48.84C33.6585 52.2034 36.2176 55.033 39.4 57Z" fill="#FCBC04"/>
<path d="M33.82 51.82C33.5636 51.9407 33.2834 52.0022 33 52C32.5785 52.0007 32.1676 51.8683 31.8259 51.6216C31.4841 51.3748 31.2291 51.0265 31.0971 50.6262C30.9652 50.2259 30.9631 49.7941 31.0911 49.3925C31.2191 48.9909 31.4707 48.6401 31.81 48.39C31.87 48.54 31.95 48.69 32.02 48.84C32.5292 49.8854 33.1317 50.8828 33.82 51.82V51.82Z" fill="#57B7EB"/>
<path d="M33.0001 52C34.1046 52 35.0001 51.1046 35.0001 50C35.0001 48.8954 34.1046 48 33.0001 48C31.8955 48 31.0001 48.8954 31.0001 50C31.0001 51.1046 31.8955 52 33.0001 52Z" fill="#84D2F4"/>
<path d="M34 51.0001C33.6657 51.0014 33.3364 50.9186 33.0424 50.7593C32.7485 50.6 32.4994 50.3692 32.3181 50.0883C32.1368 49.8073 32.0291 49.4853 32.005 49.1518C31.9809 48.8183 32.0411 48.4841 32.18 48.1801C31.8835 48.3119 31.6234 48.5139 31.4224 48.7688C31.2213 49.0236 31.0853 49.3235 31.0261 49.6426C30.9668 49.9617 30.9862 50.2904 31.0824 50.6004C31.1786 50.9104 31.3488 51.1923 31.5783 51.4218C31.8078 51.6513 32.0897 51.8215 32.3997 51.9177C32.7097 52.0139 33.0384 52.0332 33.3575 51.974C33.6766 51.9148 33.9765 51.7788 34.2313 51.5777C34.4861 51.3767 34.6882 51.1166 34.82 50.8201C34.5626 50.9377 34.2831 50.999 34 51.0001V51.0001Z" fill="#57B7EB"/>
<path d="M33.82 51.82C33.5636 51.9407 33.2834 52.0022 33 52C32.5785 52.0007 32.1676 51.8683 31.8259 51.6216C31.4841 51.3748 31.2291 51.0265 31.0971 50.6262C30.9652 50.2259 30.9631 49.7941 31.0911 49.3925C31.2191 48.9909 31.4707 48.6401 31.81 48.39C31.87 48.54 31.95 48.69 32.02 48.84C32.5292 49.8854 33.1317 50.8828 33.82 51.82V51.82Z" fill="#57B7EB"/>
<path d="M32 49C32 48.943 32.012 48.889 32.017 48.833C31.948 48.685 31.869 48.533 31.81 48.39C31.4707 48.6401 31.2191 48.9909 31.0911 49.3925C30.9631 49.7941 30.9652 50.2259 31.0971 50.6262C31.2291 51.0265 31.4841 51.3748 31.8259 51.6216C32.1676 51.8683 32.5785 52.0007 33 52C33.2834 52.0022 33.5636 51.9407 33.82 51.82C33.578 51.493 33.358 51.144 33.137 50.797C32.7973 50.6353 32.5102 50.3807 32.309 50.0627C32.1078 49.7447 32.0007 49.3763 32 49Z" fill="#4891D3"/>
<path d="M37 13C36.3814 12.9989 35.7784 12.8059 35.274 12.4477C34.7697 12.0895 34.3888 11.5837 34.184 11H31V15H45V13H37Z" fill="#FCBC04"/>
<path d="M40 9C38.4087 9 36.8826 8.36786 35.7574 7.24264C34.6321 6.11742 34 4.5913 34 3H32V11H44V9H40Z" fill="#FCBC04"/>
<path d="M44 50C43.5308 50.0064 43.0668 49.9011 42.6463 49.6929C42.2258 49.4847 41.8608 49.1795 41.5815 48.8025C41.3021 48.4254 41.1164 47.9874 41.0396 47.5245C40.9629 47.0616 40.9973 46.587 41.14 46.14C40.6431 46.2876 40.193 46.5618 39.8339 46.9356C39.4748 47.3095 39.219 47.7703 39.0916 48.2727C38.9642 48.7752 38.9695 49.3022 39.107 49.802C39.2446 50.3018 39.5096 50.7573 39.8762 51.1239C40.2427 51.4904 40.6982 51.7554 41.198 51.893C41.6978 52.0305 42.2248 52.0358 42.7273 51.9084C43.2298 51.781 43.6905 51.5252 44.0644 51.1661C44.4383 50.807 44.7124 50.3569 44.86 49.86C44.5817 49.9485 44.292 49.9957 44 50V50Z" fill="#57B7EB"/>
<path d="M21.0001 25C20.8558 23.9903 20.388 23.0546 19.6667 22.3333C18.9455 21.6121 18.0098 21.1442 17.0001 21V21C18.0098 20.8558 18.9455 20.3879 19.6667 19.6667C20.388 18.9454 20.8558 18.0097 21.0001 17V17C21.1443 18.0097 21.6122 18.9454 22.3334 19.6667C23.0546 20.3879 23.9903 20.8558 25.0001 21V21C23.9903 21.1442 23.0546 21.6121 22.3334 22.3333C21.6122 23.0546 21.1443 23.9903 21.0001 25V25Z" fill="#84D2F4"/>
<path d="M20.5881 19.058L21.0001 17C20.8558 18.0097 20.388 18.9454 19.6667 19.6667C18.9455 20.3879 18.0098 20.8558 17.0001 21C18.0098 21.1442 18.9455 21.6121 19.6667 22.3333C20.388 23.0546 20.8558 23.9903 21.0001 25C21.1443 23.9903 21.6122 23.0546 22.3334 22.3333C23.0546 21.6121 23.9903 21.1442 25.0001 21L22.9421 21.412C22.6191 21.4767 22.2851 21.4607 21.9699 21.3653C21.6546 21.2699 21.3678 21.0981 21.1349 20.8652C20.9019 20.6323 20.7302 20.3455 20.6348 20.0302C20.5394 19.7149 20.5233 19.381 20.5881 19.058Z" fill="#57B7EB"/>
<path d="M15 56C14.7348 56 14.4804 56.1054 14.2929 56.2929C14.1054 56.4804 14 56.7348 14 57C14 57.2652 14.1054 57.5196 14.2929 57.7071C14.4804 57.8946 14.7348 58 15 58H18C18.2652 58 18.5196 57.8946 18.7071 57.7071C18.8946 57.5196 19 57.2652 19 57C19 56.7348 18.8946 56.4804 18.7071 56.2929C18.5196 56.1054 18.2652 56 18 56H15Z" fill="#464A51"/>
<path d="M52.368 37.417C52.3211 37.2925 52.2498 37.1786 52.1582 37.082C52.0667 36.9854 51.9568 36.908 51.835 36.8544C51.7132 36.8008 51.582 36.7721 51.4489 36.7698C51.3159 36.7676 51.1837 36.792 51.0602 36.8415C50.9367 36.891 50.8243 36.9647 50.7296 37.0582C50.6349 37.1517 50.5599 37.2632 50.5088 37.386C50.4577 37.5089 50.4317 37.6408 50.4323 37.7738C50.4328 37.9069 50.4599 38.0385 50.512 38.161C51.6016 40.8797 52.1026 43.7986 51.9819 46.725C51.8613 49.6515 51.1217 52.5192 49.812 55.139L48.212 58.339C47.9645 58.839 47.5818 59.2596 47.1074 59.5531C46.633 59.8467 46.0859 60.0015 45.528 60H30.472C29.9146 60.0016 29.3679 59.8472 28.8937 59.5541C28.4196 59.2611 28.0369 58.8412 27.789 58.342L26.259 55.282C24.8868 52.5378 24.1209 49.5306 24.0132 46.4644C23.9056 43.3982 24.4587 40.3447 25.635 37.511C25.681 37.433 26.294 36.049 26.613 35.464L28.655 31.72C29.103 30.8963 29.3581 29.9817 29.401 29.045C29.4071 28.9099 29.3857 28.7749 29.3381 28.6483C29.2905 28.5216 29.2177 28.406 29.1242 28.3083C29.0306 28.2106 28.9182 28.1329 28.7937 28.0799C28.6692 28.0269 28.5353 27.9997 28.4 28H16C15.4746 28.0001 14.9611 28.156 14.5243 28.4479C14.0875 28.7398 13.747 29.1546 13.5459 29.64C13.3448 30.1253 13.2921 30.6594 13.3945 31.1747C13.4968 31.69 13.7497 32.1634 14.121 32.535C14.2437 32.6586 14.3126 32.8258 14.3126 33C14.3126 33.1742 14.2437 33.3414 14.121 33.465C13.7484 33.8356 13.4946 34.3088 13.3918 34.8241C13.2891 35.3395 13.342 35.8738 13.544 36.359C13.6486 36.6104 13.7909 36.8445 13.966 37.053C13.4151 37.4678 12.9572 37.9935 12.6219 38.5961C12.2865 39.1988 12.0812 39.865 12.0191 40.5518C11.957 41.2386 12.0396 41.9309 12.2614 42.5838C12.4832 43.2368 12.8394 43.8361 13.307 44.343C12.4257 44.6636 11.6513 45.2238 11.071 45.9605C10.4907 46.6971 10.1274 47.5811 10.022 48.513C9.95487 49.1881 10.0267 49.8699 10.2331 50.5162C10.4395 51.1625 10.776 51.7597 11.222 52.271C11.4041 52.4701 11.5052 52.7302 11.5052 53C11.5052 53.2698 11.4041 53.5299 11.222 53.729C10.7762 54.2404 10.4397 54.8376 10.2333 55.4839C10.027 56.1302 9.95505 56.8119 10.022 57.487C10.1745 58.7412 10.7843 59.8951 11.7345 60.7278C12.6847 61.5604 13.9086 62.0134 15.172 62H23.472C23.7372 62 23.9916 61.8946 24.1791 61.7071C24.3666 61.5196 24.472 61.2652 24.472 61C24.472 60.7348 24.3666 60.4804 24.1791 60.2929C23.9916 60.1054 23.7372 60 23.472 60H15.172C14.4059 60.0165 13.6604 59.7504 13.078 59.2524C12.4955 58.7544 12.1168 58.0594 12.014 57.3C11.973 56.8942 12.0154 56.4844 12.1385 56.0956C12.2616 55.7067 12.4629 55.3472 12.73 55.039C13.2243 54.4755 13.4968 53.7515 13.4968 53.002C13.4968 52.2525 13.2243 51.5285 12.73 50.965C12.4625 50.657 12.2609 50.2975 12.1376 49.9087C12.0143 49.5198 11.9719 49.1099 12.013 48.704C12.1151 47.9438 12.4937 47.2478 13.0764 46.749C13.6591 46.2502 14.4051 45.9836 15.172 46H19.022C19.2872 46 19.5416 45.8946 19.7291 45.7071C19.9166 45.5196 20.022 45.2652 20.022 45C20.022 44.7348 19.9166 44.4804 19.7291 44.2929C19.5416 44.1054 19.2872 44 19.022 44H17C16.2044 44 15.4413 43.6839 14.8787 43.1213C14.3161 42.5587 14 41.7957 14 41C14 40.2044 14.3161 39.4413 14.8787 38.8787C15.4413 38.3161 16.2044 38 17 38H23.309C23.08 38.657 22.885 39.325 22.715 40H17C16.7348 40 16.4804 40.1054 16.2929 40.2929C16.1054 40.4804 16 40.7348 16 41C16 41.2652 16.1054 41.5196 16.2929 41.7071C16.4804 41.8946 16.7348 42 17 42H22.306C22.1051 43.2272 22.0027 44.4685 22 45.712C22 46.476 22.047 47.239 22.122 48H16C15.7348 48 15.4804 48.1054 15.2929 48.2929C15.1054 48.4804 15 48.7348 15 49C15 49.2652 15.1054 49.5196 15.2929 49.7071C15.4804 49.8946 15.7348 50 16 50H22.405C22.531 50.6733 22.6867 51.34 22.872 52H17C16.7348 52 16.4804 52.1054 16.2929 52.2929C16.1054 52.4804 16 52.7348 16 53C16 53.2652 16.1054 53.5196 16.2929 53.7071C16.4804 53.8946 16.7348 54 17 54H23.526C23.7833 54.68 24.0707 55.3467 24.388 56H22C21.7348 56 21.4804 56.1054 21.2929 56.2929C21.1054 56.4804 21 56.7348 21 57C21 57.2652 21.1054 57.5196 21.2929 57.7071C21.4804 57.8946 21.7348 58 22 58H25.382L26 59.236C26.4128 60.0684 27.0506 60.7686 27.841 61.2571C28.6314 61.7456 29.5428 62.003 30.472 62H45.528C46.4572 62.003 47.3686 61.7456 48.159 61.2571C48.9494 60.7686 49.5872 60.0684 50 59.236L51.6 56.036C53.1739 52.8787 53.9953 49.3998 54 45.872C54.0024 42.9752 53.4484 40.1048 52.368 37.417ZM16 36C15.87 36.0003 15.7429 35.9619 15.6347 35.8898C15.5266 35.8176 15.4423 35.715 15.3926 35.5949C15.3429 35.4748 15.33 35.3426 15.3555 35.2152C15.381 35.0877 15.4439 34.9707 15.536 34.879C16.0334 34.3802 16.3128 33.7045 16.3128 33C16.3128 32.2955 16.0334 31.6198 15.536 31.121C15.4444 31.0291 15.382 30.9122 15.3567 30.7849C15.3314 30.6576 15.3445 30.5256 15.3941 30.4057C15.4437 30.2858 15.5278 30.1833 15.6356 30.1111C15.7434 30.0389 15.8702 30.0002 16 30H27.221C27.1396 30.264 27.0321 30.5193 26.9 30.762L26.225 32H19C18.7348 32 18.4804 32.1054 18.2929 32.2929C18.1054 32.4804 18 32.7348 18 33C18 33.2652 18.1054 33.5196 18.2929 33.7071C18.4804 33.8946 18.7348 34 19 34H25.134L24.857 34.507C24.5903 34.9963 24.3417 35.494 24.111 36H16Z" fill="#464A51"/>
<path d="M26 45.712C26.0036 48.7233 26.7046 51.6929 28.048 54.388L29.578 57.447C29.661 57.6131 29.7886 57.7528 29.9465 57.8504C30.1044 57.9481 30.2863 57.9999 30.472 58H41.947C43.2097 58.0042 44.4483 57.6545 45.5224 56.9906C46.5965 56.3268 47.4631 55.3753 48.024 54.244C49.4138 51.4627 50.0891 48.379 49.9889 45.2714C49.8887 42.1637 49.0161 39.13 47.45 36.444C47.3742 36.3142 47.2702 36.2031 47.1455 36.1191C47.0209 36.035 46.879 35.9801 46.7302 35.9585C46.5815 35.9369 46.4297 35.9491 46.2864 35.9942C46.143 36.0393 46.0116 36.1161 45.902 36.219L45.354 36.733C41.1714 40.6587 35.9402 43.2872 30.294 44.3C30.0347 44.349 29.8053 44.4984 29.6557 44.7159C29.5062 44.9333 29.4486 45.201 29.4956 45.4606C29.5426 45.7203 29.6903 45.9508 29.9065 46.1021C30.1227 46.2533 30.39 46.3129 30.65 46.268C36.4917 45.2175 41.9203 42.5454 46.316 38.557C47.4377 40.8632 48.0138 43.3965 47.9998 45.9609C47.9857 48.5254 47.3819 51.0522 46.235 53.346C45.8396 54.1448 45.2283 54.8169 44.4704 55.286C43.7125 55.7551 42.8383 56.0024 41.947 56H31.09L29.837 53.493C28.6319 51.076 28.0031 48.4127 28 45.712C28 45.4468 27.8946 45.1924 27.7071 45.0049C27.5196 44.8173 27.2652 44.712 27 44.712C26.7348 44.712 26.4804 44.8173 26.2929 45.0049C26.1054 45.1924 26 45.4468 26 45.712Z" fill="#464A51"/>
<path d="M46 49C46 48.2089 45.7654 47.4355 45.3259 46.7777C44.8864 46.1199 44.2616 45.6072 43.5307 45.3045C42.7998 45.0017 41.9956 44.9225 41.2196 45.0769C40.4437 45.2312 39.731 45.6122 39.1716 46.1716C38.6122 46.731 38.2312 47.4437 38.0769 48.2196C37.9225 48.9956 38.0017 49.7998 38.3045 50.5307C38.6072 51.2616 39.1199 51.8864 39.7777 52.3259C40.4355 52.7654 41.2089 53 42 53C43.0609 53 44.0783 52.5786 44.8284 51.8284C45.5786 51.0783 46 50.0609 46 49ZM40 49C40 48.6044 40.1173 48.2178 40.3371 47.8889C40.5568 47.56 40.8692 47.3036 41.2346 47.1522C41.6001 47.0009 42.0022 46.9613 42.3902 47.0384C42.7781 47.1156 43.1345 47.3061 43.4142 47.5858C43.6939 47.8655 43.8844 48.2219 43.9616 48.6098C44.0387 48.9978 43.9991 49.3999 43.8478 49.7654C43.6964 50.1308 43.44 50.4432 43.1111 50.6629C42.7822 50.8827 42.3956 51 42 51C41.4696 51 40.9609 50.7893 40.5858 50.4142C40.2107 50.0391 40 49.5304 40 49Z" fill="#464A51"/>
<path d="M36 50C36 49.4067 35.8241 48.8266 35.4944 48.3333C35.1648 47.8399 34.6962 47.4554 34.148 47.2284C33.5999 47.0013 32.9967 46.9419 32.4147 47.0576C31.8328 47.1734 31.2982 47.4591 30.8787 47.8787C30.4591 48.2982 30.1734 48.8328 30.0576 49.4147C29.9419 49.9967 30.0013 50.5999 30.2284 51.148C30.4554 51.6962 30.8399 52.1648 31.3333 52.4944C31.8266 52.8241 32.4067 53 33 53C33.7957 53 34.5587 52.6839 35.1213 52.1213C35.6839 51.5587 36 50.7957 36 50V50ZM32 50C32 49.8022 32.0586 49.6089 32.1685 49.4444C32.2784 49.28 32.4346 49.1518 32.6173 49.0761C32.8 49.0004 33.0011 48.9806 33.1951 49.0192C33.3891 49.0578 33.5673 49.153 33.7071 49.2929C33.847 49.4327 33.9422 49.6109 33.9808 49.8049C34.0194 49.9989 33.9996 50.2 33.9239 50.3827C33.8482 50.5654 33.72 50.7216 33.5556 50.8315C33.3911 50.9414 33.1978 51 33 51C32.7348 51 32.4804 50.8946 32.2929 50.7071C32.1054 50.5196 32 50.2652 32 50V50Z" fill="#464A51"/>
<path d="M27.181 41.427C27.0762 41.5768 27.0146 41.7525 27.0027 41.935C26.9908 42.1174 27.0291 42.2996 27.1136 42.4618C27.198 42.624 27.3253 42.7599 27.4816 42.8548C27.6379 42.9497 27.8172 42.9999 28 43C28.0672 43.0006 28.1342 42.9938 28.2 42.98L29.88 42.645C35.5007 41.5263 40.6626 38.7635 44.711 34.707C44.8745 34.5435 44.9763 34.3284 44.9991 34.0983C45.0219 33.8682 44.9643 33.6374 44.836 33.445L43.715 31.77C43.5186 31.4754 43.3885 31.1417 43.3337 30.7918C43.279 30.442 43.3009 30.0845 43.398 29.744C43.4392 29.6163 43.4542 29.4817 43.4422 29.348C43.4303 29.2144 43.3916 29.0846 43.3284 28.9662C43.2652 28.8479 43.1789 28.7435 43.0745 28.6592C42.9701 28.5749 42.8499 28.5125 42.7209 28.4756C42.5919 28.4388 42.4568 28.4283 42.3237 28.4447C42.1905 28.4612 42.0621 28.5042 41.9459 28.5713C41.8298 28.6385 41.7283 28.7283 41.6476 28.8354C41.5668 28.9425 41.5085 29.0648 41.476 29.195C41.2985 29.814 41.258 30.4642 41.3573 31.1004C41.4566 31.7366 41.6933 32.3435 42.051 32.879L42.706 33.862C39.2227 37.1479 34.926 39.4452 30.259 40.517L34.644 34.252C35.1033 33.597 35.3769 32.8299 35.4357 32.032C35.4945 31.2342 35.3364 30.4353 34.978 29.72C34.8071 29.3783 34.7187 29.0013 34.72 28.6192C34.7214 28.2372 34.8124 27.8608 34.9857 27.5203C35.1591 27.1798 35.4099 26.8848 35.7181 26.659C36.0263 26.4331 36.3831 26.2828 36.76 26.22L38.795 25.88C39.185 25.8115 39.5858 25.8406 39.9618 25.9647C40.3378 26.0888 40.6773 26.3039 40.95 26.591C41.0413 26.6855 41.1504 26.761 41.2709 26.8134C41.3915 26.8657 41.5211 26.8938 41.6525 26.896C41.7839 26.8983 41.9145 26.8746 42.0367 26.8264C42.159 26.7782 42.2705 26.7063 42.365 26.615C42.4595 26.5237 42.5351 26.4146 42.5874 26.2941C42.6397 26.1735 42.6678 26.0439 42.6701 25.9125C42.6723 25.7811 42.6486 25.6505 42.6004 25.5283C42.5522 25.406 42.4803 25.2945 42.389 25.2C41.8897 24.6814 41.2715 24.2924 40.5879 24.0667C39.9042 23.841 39.1759 23.7855 38.466 23.905L36.431 24.245C35.7455 24.3591 35.0963 24.6325 34.5357 25.0432C33.9752 25.454 33.5188 25.9906 33.2035 26.6098C32.8881 27.2291 32.7225 27.9137 32.72 28.6087C32.7175 29.3036 32.8781 29.9895 33.189 30.611C33.386 31.0041 33.473 31.4433 33.4406 31.8819C33.4082 32.3204 33.2577 32.7421 33.005 33.102L27.181 41.427Z" fill="#464A51"/>
<path d="M38 35C38.5523 35 39 34.5523 39 34C39 33.4477 38.5523 33 38 33C37.4477 33 37 33.4477 37 34C37 34.5523 37.4477 35 38 35Z" fill="#464A51"/>
<path d="M38 30C38.5523 30 39 29.5523 39 29C39 28.4477 38.5523 28 38 28C37.4477 28 37 28.4477 37 29C37 29.5523 37.4477 30 38 30Z" fill="#464A51"/>
<path d="M30.733 15.946L29.96 19.036C29.2081 19.4061 28.5408 19.9277 28 20.568C26.9388 21.823 26.4168 23.4467 26.548 25.085C26.5706 25.3494 26.6972 25.5941 26.9001 25.7651C27.103 25.9361 27.3656 26.0195 27.63 25.997C27.8944 25.9745 28.1391 25.8478 28.3101 25.6449C28.4811 25.442 28.5646 25.1794 28.542 24.915C28.4529 23.8069 28.8068 22.7087 29.526 21.861C29.8785 21.4442 30.3105 21.1017 30.7967 20.8534C31.2829 20.6051 31.8136 20.4561 32.358 20.415L45.264 19.383C45.6033 19.3558 45.9439 19.4156 46.2536 19.5568C46.5632 19.698 46.8318 19.9159 47.0337 20.1898C47.2357 20.4638 47.3644 20.7847 47.4077 21.1223C47.4509 21.4599 47.4073 21.803 47.281 22.119C46.5315 23.9746 46.2184 25.9776 46.3658 27.9735C46.5132 29.9693 47.1171 31.9046 48.131 33.63L49.182 35.43C49.3157 35.6591 49.5349 35.8258 49.7915 35.8933C50.048 35.9608 50.3209 35.9237 50.55 35.79C50.7792 35.6563 50.9458 35.4371 51.0133 35.1806C51.0808 34.924 51.0437 34.6511 50.91 34.422L49.859 32.622C48.9994 31.1589 48.4873 29.5178 48.3623 27.8254C48.2373 26.133 48.5027 24.4346 49.138 22.861C49.3744 22.2703 49.4665 21.6317 49.4067 20.9982C49.3468 20.3648 49.1367 19.7548 48.7937 19.2188C48.4508 18.6829 47.985 18.2364 47.4349 17.9166C46.8849 17.5968 46.2664 17.4129 45.631 17.38L45.272 15.946C45.4801 15.8896 45.664 15.7665 45.7954 15.5957C45.9269 15.4248 45.9988 15.2156 46 15V11C46 10.7348 45.8947 10.4804 45.7071 10.2929C45.5196 10.1054 45.2652 10 45 10H41V4H43V7C43 7.26522 43.1054 7.51957 43.2929 7.70711C43.4804 7.89464 43.7348 8 44 8C44.2652 8 44.5196 7.89464 44.7071 7.70711C44.8947 7.51957 45 7.26522 45 7V3C45 2.73478 44.8947 2.48043 44.7071 2.29289C44.5196 2.10536 44.2652 2 44 2H32C31.7348 2 31.4804 2.10536 31.2929 2.29289C31.1054 2.48043 31 2.73478 31 3V10C30.7348 10 30.4804 10.1054 30.2929 10.2929C30.1054 10.4804 30 10.7348 30 11V15C30.0015 15.2162 30.0741 15.426 30.2066 15.5969C30.339 15.7679 30.524 15.8905 30.733 15.946ZM34 12V14H32V12H34ZM38 12V14H36V12H38ZM32.194 18.421H32.175L32.781 16H43.219L43.596 17.509L32.194 18.421ZM44 14H40V12H44V14ZM39 10H37V4H39V10ZM33 4H35V10H33V4Z" fill="#464A51"/>
<path d="M24.5 15.5H25V16C25 16.2652 25.1054 16.5196 25.2929 16.7071C25.4804 16.8946 25.7348 17 26 17C26.2652 17 26.5196 16.8946 26.7071 16.7071C26.8946 16.5196 27 16.2652 27 16V15.5H27.5C27.7652 15.5 28.0196 15.3946 28.2071 15.2071C28.3946 15.0196 28.5 14.7652 28.5 14.5C28.5 14.2348 28.3946 13.9804 28.2071 13.7929C28.0196 13.6054 27.7652 13.5 27.5 13.5H27V13C27 12.7348 26.8946 12.4804 26.7071 12.2929C26.5196 12.1054 26.2652 12 26 12C25.7348 12 25.4804 12.1054 25.2929 12.2929C25.1054 12.4804 25 12.7348 25 13V13.5H24.5C24.2348 13.5 23.9804 13.6054 23.7929 13.7929C23.6054 13.9804 23.5 14.2348 23.5 14.5C23.5 14.7652 23.6054 15.0196 23.7929 15.2071C23.9804 15.3946 24.2348 15.5 24.5 15.5Z" fill="#464A51"/>
<path d="M14.5 12.5H15V13C15 13.2652 15.1054 13.5196 15.2929 13.7071C15.4804 13.8946 15.7348 14 16 14C16.2652 14 16.5196 13.8946 16.7071 13.7071C16.8946 13.5196 17 13.2652 17 13V12.5H17.5C17.7652 12.5 18.0196 12.3946 18.2071 12.2071C18.3946 12.0196 18.5 11.7652 18.5 11.5C18.5 11.2348 18.3946 10.9804 18.2071 10.7929C18.0196 10.6054 17.7652 10.5 17.5 10.5H17V10C17 9.73478 16.8946 9.48043 16.7071 9.29289C16.5196 9.10536 16.2652 9 16 9C15.7348 9 15.4804 9.10536 15.2929 9.29289C15.1054 9.48043 15 9.73478 15 10V10.5H14.5C14.2348 10.5 13.9804 10.6054 13.7929 10.7929C13.6054 10.9804 13.5 11.2348 13.5 11.5C13.5 11.7652 13.6054 12.0196 13.7929 12.2071C13.9804 12.3946 14.2348 12.5 14.5 12.5V12.5Z" fill="#464A51"/>
<path d="M16 21C16 21.2407 16.0869 21.4734 16.2447 21.6553C16.4025 21.8372 16.6206 21.956 16.859 21.99C17.6533 22.1068 18.3887 22.4765 18.9563 23.0443C19.5239 23.6121 19.8934 24.3476 20.01 25.142C20.044 25.3803 20.1628 25.5984 20.3447 25.7562C20.5265 25.914 20.7592 26.0009 21 26.0009C21.2408 26.0009 21.4735 25.914 21.6553 25.7562C21.8372 25.5984 21.956 25.3803 21.99 25.142C22.1066 24.3476 22.4761 23.6121 23.0437 23.0443C23.6113 22.4765 24.3467 22.1068 25.141 21.99C25.3794 21.956 25.5975 21.8372 25.7553 21.6553C25.9131 21.4734 25.9999 21.2407 25.9999 21C25.9999 20.7592 25.9131 20.5265 25.7553 20.3446C25.5975 20.1628 25.3794 20.0439 25.141 20.01C24.3467 19.8931 23.6113 19.5234 23.0437 18.9556C22.4761 18.3879 22.1066 17.6523 21.99 16.858C21.956 16.6196 21.8372 16.4015 21.6553 16.2437C21.4735 16.0859 21.2408 15.999 21 15.999C20.7592 15.999 20.5265 16.0859 20.3447 16.2437C20.1628 16.4015 20.044 16.6196 20.01 16.858C19.8934 17.6523 19.5239 18.3879 18.9563 18.9556C18.3887 19.5234 17.6533 19.8931 16.859 20.01C16.6206 20.0439 16.4025 20.1627 16.2447 20.3446C16.0869 20.5265 16 20.7592 16 21V21ZM21 19.62C21.3783 20.1546 21.8446 20.6212 22.379 21C21.8446 21.3787 21.3783 21.8453 21 22.38C20.6217 21.8453 20.1554 21.3787 19.621 21C20.1554 20.6212 20.6217 20.1546 21 19.62V19.62Z" fill="#464A51"/>
</svg>
